<?xml version="1.0" encoding="UTF-8"?>
<svg id="Calque_2" data-name="Calque 2" xmlns="http://www.w3.org/2000/svg" xmlns:xlink="http://www.w3.org/1999/xlink" viewBox="0 0 1493.54 1331.85">
  <defs>
    <style>
      .cls-1 {
        fill: #fff;
      }

      .cls-2 {
        fill: #00497c;
      }

      .cls-3 {
        fill: none;
      }

      .cls-4 {
        clip-path: url(#clippath-1);
      }

      .cls-5 {
        clip-path: url(#clippath);
      }
    </style>
    <clipPath id="clippath">
      <rect class="cls-3" width="1493.54" height="1331.85"/>
    </clipPath>
    <clipPath id="clippath-1">
      <rect class="cls-3" x="-93.51" y="-78.49" width="1680.74" height="1523.89"/>
    </clipPath>
  </defs>
  <g id="Calque_2-2" data-name="Calque 2">
    <g class="cls-5">
      <g id="Calque_1-2" data-name="Calque 1-2">
        <g>
          <rect class="cls-2" x="-93.6" y="-12.1" width="1680.72" height="1347.2"/>
          <g class="cls-4">
            <g>
              <path class="cls-1" d="M1014.32,1505.55l-15.28-2.25-26.21-62.33,16.68-5.94,20.67,49.16,74.08-83.77,13.87,10.39-83.79,94.75h-.01ZM532.57,1421.76l-10.39,13.39,132.4,86.99,10.39-13.39-132.4-86.99ZM1230.41,1548.8c11.56-26.43,48.23-36.61,73.1-22.49l13.24-5.41,17.03-74.12-17.49-3.4-14.71,64c-34.31-11.67-72.57,3.39-87.44,34.64l16.28,6.8h-.01ZM129.45,1427.25c24.9,14.79,30.28,49.79,9.62,70.39l3.16,13.01,75.62,29.91,7.06-15.11-65.3-25.83c19.47-28.68,9.97-66.95-19.75-85.72l-10.43,13.37h0v-.03ZM128.55,1490.81c-28.3-4.69-48.81-34.49-38.09-61.67l-8.32-10.91-82.3-1.06-.25,16.45,71.06.92c-6.13,33.34,18.67,65.46,53.81,72.28l4.1-16.02h0ZM1555.51,1334.21l-14.82-4.12-16.86-65.02,17.38-3.82,13.3,51.28,85.65-73.83,12.22,12.01-96.88,83.51h0ZM1538.2,42.78l-9.39,11.32,27.72,61.78,16.53-6.28-21.86-48.73,116.4,13.64,2.26-16.32-131.66-15.43h0ZM1649.74,1172.54l-149.77,58.42,6.97,15.15,149.77-58.42-6.97-15.15ZM1651.81,1397.4l-104.32,114.88,13.72,10.56,104.32-114.88-13.72-10.56ZM1545.4,306.51l-7.83,14.8,146.24,65.57,7.83-14.8-146.24-65.57ZM1650.79,716.25l-156.6,40.53,4.83,15.84,156.6-40.52-4.83-15.85ZM1628.94,585.59c-5.11,28.01-36.77,45.52-65.72,37.05l-11.57,8.01,1.52,75.75,17.87-.3-1.31-65.4c36.28,4.25,69.87-18.3,76.74-51.85l-17.52-3.24h-.01ZM1582.61,27.64c11.54-26.43,48.22-36.62,73.09-22.52l13.24-5.41,17-74.12-17.49-3.4-14.68,64c-34.31-11.66-72.56,3.41-87.44,34.66l16.28,6.79h0ZM1698.63,544.27c-26.47,10.71-61.46-3.6-69.05-31.51l-13.52-4.75-68.87,41.48,9.78,13.77,59.47-35.82c15.24,30.7,54.79,44.68,88.53,32.22l-6.33-15.39h0ZM1572.41,290.37c27.05-9.14,61.06,7.05,66.76,35.45l13.17,5.53,71.57-37.41-8.82-14.31-61.79,32.3c-13.1-31.53-51.71-47.76-86.15-37.29l5.27,15.72h0ZM1236.94,401.55l-10.62-10.36-70.72,15.15,4.06,16.03,55.78-11.95-33.51,103.52,17.14,4.7,37.89-117.09h-.01ZM747.35,277.41h-15.48l-36.54,57.76,15.45,8.29,28.82-45.55,58.83,93.46,15.47-8.25-66.53-105.71h-.01ZM1006.02,94.33l15.47.45,38.47-56.7-15.17-8.72-30.33,44.71-55.66-95.1-15.74,7.8,62.95,107.55h.01ZM1014.32-18.34l-15.28-2.25-26.21-62.33,16.68-5.94,20.67,49.16,74.08-83.77,13.87,10.39-83.79,94.75h-.01ZM1114.58-3.03l-13.01-7.73,3.32-66.77,17.86.75-2.61,52.65,104.49-49.17,8.14,14.65-118.18,55.61h-.01ZM1505.04-7.45l9.09,11.54-29.35,61.15-16.35-6.66,23.15-48.22-116.73,11.02-1.83-16.37,132.03-12.46h-.01Z"/>
              <path class="cls-1" d="M1375.24,143.88l-15.28-2.25-26.21-62.34,16.68-5.94,20.67,49.16,74.08-83.77,13.87,10.39-83.79,94.75h-.01ZM300.15,116.09l13.5,6.97,62.58-33.92-9.07-14.18-49.34,26.75-1.63-108.01-17.87.22,1.85,122.17h-.01ZM718.58,25.07l-8.69-11.79-72.44,4.58,1.22,16.41,57.13-3.61-51,97.28,16.1,7.16,57.68-110.02h0ZM730.74,221.14l-8.51-11.91-72.51,3.65.97,16.43,57.18-2.88-52.48,96.62,15.99,7.35,59.36-109.27h-.01ZM812.02,628.87l8.26-12.05,72.57,2.34-.63,16.44-57.24-1.85,54.53,95.64-15.84,7.64-61.67-108.18v.03ZM225.87,1085.28l-14.82-4.11-16.86-65.02,17.38-3.82,13.3,51.28,85.65-73.85,12.22,12.01-96.88,83.51ZM-125.22,1334.21l-14.82-4.12-16.86-65.02,17.38-3.82,13.3,51.28,85.65-73.83,12.22,12.01-96.88,83.51h0ZM336.01,1136.38l-8.43-11.95,32.73-59.67,15.95,7.42-25.81,47.06,117.2-5.48.91,16.44-132.55,6.18h0ZM394.53,1341.81l6.57,12.91-41.34,54.96-14.71-9.36,32.6-43.34-116.9-9.41,1.56-16.4,132.23,10.65h-.01ZM1018.55,487.16l11.87,9.14-12.25,65.89-17.62-2.77,9.66-51.96-110.28,36.91-6.11-15.47,124.73-41.76h0ZM968.49,463.75l10.06,10.83,71.44-11.95-3.19-16.19-56.34,9.43,38.97-101.89-16.86-5.46-44.08,115.23h0ZM775.57,647.68l-13.91,6.28-60.44-37.04,9.91-13.7,47.66,29.22,8.1-107.76,17.83,1.13-9.17,121.88h0ZM1387.04,322.31l15.44.97,32.21,59.91-16.02,7.3-25.39-47.24-65.59,89.58-14.82-9.2,74.19-101.3h-.01ZM658.97,980.74l15.15-2.89,48.53,49.73-13.3,11-38.28-39.21-36.98,102.52-16.96-5.19,41.82-115.94h0v-.03ZM362.62,831.7l-.07-14.25,62.59-33.89,9.06,14.18-49.37,26.72,101.79,53.76-8.9,14.27-115.12-60.81h.01ZM67.14,828.44l-10.54-10.43,21.02-63.99,17.11,4.77-16.58,50.46,114.41-24.06,3.98,16.05-129.39,27.21h0Z"/>
              <path class="cls-1" d="M173.96,726.93l2.22,14.1-56.86,41.58-11.12-12.88,44.84-32.79-108.93-40.19,6.66-15.27,123.19,45.46h0ZM-15.44,823.48l-15.32,2.05-45.17-52.34,14-10.24,35.61,41.28,43.66-100.27,16.6,6.12-49.38,113.4h.01ZM362.32,990.09l15.24,2.46,25.18,62.7-16.77,5.71-19.85-49.44-75.45,82.74-13.7-10.58,85.34-93.57h0ZM783.05,1264.64l5.27,13.41-46.6,51.26-13.71-10.56,36.75-40.43-115.48-19.18,3.18-16.19,130.61,21.69h-.01ZM162.65,992.32l8.67,11.8-31.55,60.2-16.1-7.16,24.88-47.48-117.07,7.43-1.23-16.41,132.41-8.4h0ZM261.61,918.58l5.27,13.41-46.6,51.26-13.71-10.56,36.75-40.43-115.5-19.18,3.18-16.19,130.61,21.69h0ZM919.06,974.66l14.67-4.57,54.73,43.94-11.75,12.41-43.16-34.65-23.18,105.9-17.53-3.24,26.22-119.76h0ZM544.09,797.18l.08,14.25-62.58,33.92-9.07-14.18,49.34-26.75-101.81-53.7,8.89-14.27,115.16,60.74h0ZM444.12,644.17l13.94,6.18,5.7,66.64-17.82,1.29-4.49-52.55-97.06,60.72-10.04-13.6,109.79-68.66h-.01Z"/>
              <path class="cls-1" d="M834.53,1150.36l-8.92-11.66,30.28-60.76,16.26,6.85-23.87,47.91,116.89-9.52,1.58,16.39-132.21,10.77h0ZM1002.23,1191.59l-10.48-10.49,21.48-63.85,17.08,4.87-16.94,50.36,114.56-23.37,3.87,16.07-129.59,26.43h0ZM1419.1,545.46l-14,6.09-59.85-37.86,10.12-13.56,47.19,29.86,9.81-107.64,17.82,1.38-11.1,121.75h0ZM1272.49,956.67l6.58,12.91-41.3,54.99-14.71-9.36,32.56-43.36-116.91-9.34,1.55-16.4,132.23,10.56h0ZM1254.39,1088.31l10.92,10.1-18.68,64.59-17.28-4.23,14.73-50.93-113.46,27.57-4.57-15.91,128.33-31.17h.01ZM1573.21,1056.35l-10.48,10.49-70.93-14.35,3.83-16.07,55.92,11.32-34.9-103.14,17.07-4.9,39.46,116.65h.03ZM1269.14,1308.33l-13.39,7.14-63.08-33.12,8.86-14.3,49.74,26.12v-108.03h17.87v122.17h0ZM1312.8,1360.78l-13.63-6.75-2.48-66.81,17.87-.56,1.96,52.68,99.9-56.68,9.39,14.01-112.99,64.1h-.01ZM1195.59,1421.1l-10.94,10.08-70.22-17,4.54-15.91,55.38,13.41-30.29-104.36,17.27-4.25,34.27,118.03h-.01ZM-83.08,461.13l1.67-14.17,66.31-27.25,7.29,15.02-52.3,21.48,94.63,63.88-10.57,13.28-107.03-72.24h0Z"/>
              <path class="cls-1" d="M1619.29,902.92l7.22,12.61-38.43,56.72-15.17-8.71,30.31-44.72-117.26-4.24.71-16.44,132.62,4.81h0v-.03ZM1451.66,908.59l-3.82,13.81-69.84,18.33-4.9-15.82,55.07-14.44-83.85-75.57,12.5-11.77,94.84,85.47h0ZM974.32,1319.66l9.74,11.07-25.75,62.5-16.72-5.83,20.31-49.29-115.93,16.77-2.77-16.26,131.11-18.96h0ZM858.92,1482.78l-13.35-7.21.24-66.85,17.87.05-.18,52.72,102.12-53.21,8.81,14.33-115.5,60.18h0ZM492.33,557.92l-14.27-5.51-58,40.22,10.75,13.14,45.73-31.72,14.9,107.15,17.73-2.09-16.85-121.18ZM283.65,455.82l1.69-14.17-58.39-39.73-10.62,13.24,46.05,31.34-107.34,43.65,7.22,15.05,121.41-49.36h-.01ZM498.17,172.37l12.96-7.79-3.69-66.76-17.86.83,2.91,52.64-104.76-48.69-8.06,14.69,118.48,55.06h.01Z"/>
              <path class="cls-1" d="M421,52l-5.83,13.21,44.37,52.92,14.15-10.06-34.98-41.73,116.22-14.96-2.47-16.3-131.44,16.91h-.03ZM-142.54,42.78l-9.39,11.32,27.72,61.78,16.53-6.28-21.86-48.73,116.42,13.64,2.26-16.32-131.66-15.43h-.01ZM13.37,74.43l13.37,7.18,63.21-32.91-8.8-14.33-49.84,25.95.42-108.03-17.87-.07-.49,122.17v.03ZM-44.74,210.05l-5.83,13.2,44.37,52.93,14.15-10.06-34.98-41.73,116.22-14.96-2.48-16.3-131.44,16.91h-.01ZM6.82,412.19l-.75,14.23,60.9,36.41,9.74-13.8-48.02-28.72,104.28-49.54-8.19-14.63L6.85,412.17h-.03ZM75.05,337.4l-8.64-11.82,31.64-60.16,16.08,7.17-24.96,47.44,117.09-7.27,1.21,16.41-132.42,8.23h0ZM451.24,530.03l-1.72-14.15-66.43-27.01-7.22,15.05,52.38,21.3-94.37,64.21,10.62,13.24,106.74-72.61h0ZM602.22,799.26l-15.19,2.72-47.85-50.29,13.45-10.85,37.72,39.65,38.39-102.08,16.9,5.38-43.41,115.44h-.01ZM576.96,1013.53l-15.14-2.98-22.58-63.54,16.99-5.12,17.81,50.11,78.81-80.03,13.25,11.06-89.13,90.52h0ZM321.68,786.99l10.81,10.2-19.39,64.42-17.23-4.4,15.3-50.8-113.76,26.5-4.39-15.95,128.67-29.98h0ZM692.7,901.5v-14.25l62.75-33.64,8.99,14.22-49.49,26.52,101.54,54.15-8.97,14.25-114.84-61.25h.01ZM1055.13,963.42v-14.25l62.75-33.64,8.99,14.22-49.49,26.52,101.54,54.15-8.97,14.25-114.84-61.24h.01ZM749.54,1175.89l-3.6-13.85,52.52-46.15,12.34,11.9-41.41,36.4,112.44,30.91-5.12,15.77-127.17-34.97h0ZM560.01,1262.84l-15.24,2.47-46.85-51.08,13.66-10.62,36.94,40.28,40.39-101.42,16.78,5.66-45.68,114.71h.01ZM459.55,1506.41l-15.24,2.47-46.85-51.08,13.66-10.62,36.94,40.28,40.39-101.42,16.78,5.66-45.68,114.71h.01ZM620.64,1162.89l14.17-5.72,58.71,39.35-10.52,13.3-46.29-31.03-13.01,107.36-17.77-1.83,14.72-121.42h-.01ZM658.07,1364.08l-4.7-13.58,48.7-49.58,13.26,11.04-38.41,39.1,114.59,23.25-3.85,16.07-129.61-26.3h.01ZM-71.73,1142.29l-8.73-11.77,31.17-60.37,16.15,7.06-24.59,47.61,117.02-8.05,1.33,16.41-132.36,9.1h.01ZM1261.54,747.88l15.39,1.55,29.52,61.07-16.33,6.68-23.28-48.16-69.51,87.03-14.4-9.74,78.61-98.43h.01ZM914.53,323.95l14.81-4.15,53.23,45.47-12.16,12.07-41.98-35.86-26.73,105.18-17.41-3.74,30.24-118.96h0ZM1208.9,590.38l.85-14.23,64.67-30.4,8.13,14.65-51,23.98,98.14,59.23-9.8,13.76-110.99-66.99h0ZM1106.85,867.78l2.48,14.06-56.07,42.48-11.36-12.71,44.22-33.5-109.67-38.45,6.37-15.38,124.03,43.49h-.01ZM536.92,543.17l13.92-6.24,60.31,37.23-9.95,13.67-47.56-29.36-8.48,107.74-17.83-1.18,9.6-121.85h0ZM901.72,761.78l-5.07,15.78,155.99,42.44,5.07-15.78-155.99-42.44ZM1206.45,1033.99l-140.59,75.32,8.99,14.22,140.59-75.32-8.99-14.22h0Z"/>
              <path class="cls-1" d="M598.88,1043.35l-71.81,134.35,16.05,7.26,71.81-134.35-16.05-7.26ZM860.98,910.47h-17.87v149.73h17.87v-149.73h0ZM561.98,292.61h-17.87v149.73h17.87v-149.73ZM570.87,884.61l-151.66,54.14,6.46,15.34,151.66-54.14-6.46-15.34h0ZM238.79,1214.94l-78.05,131.37,15.69,7.89,78.05-131.37-15.68-7.89h-.01ZM686.54,930.82l-11.52,12.58,124.41,96.46,11.52-12.58-124.41-96.46ZM1299.24,587.3l-1.86,16.36,161.78,15.61,1.86-16.36-161.78-15.61h0ZM1022.07,202.19l-159.87,27.68,3.31,16.18,159.87-27.68-3.31-16.18h0ZM1240.34,184.32l-45.96,143.64,17.15,4.65,45.96-143.64-17.15-4.65h0ZM1197.33,142.46l-45.96,143.64,17.15,4.65,45.96-143.64-17.15-4.65h0ZM1451.29,85.05l-7.75,14.82,146.58,64.92,7.75-14.82-146.59-64.92h.01ZM1357.34-37.71l-70.52,134.93,16.11,7.13,70.52-134.93-16.11-7.13h0ZM1459.55,413.55l-14.88,149.1,17.81,1.51,14.88-149.1-17.81-1.51h0ZM1514,708.19l-162.28,10.22,1.22,16.41,162.28-10.22-1.22-16.41h0ZM-31.01,1172.54l-149.77,58.42,6.97,15.15,149.77-58.42-6.97-15.15ZM117.98,159.48l-4.91,15.82,156.42,41.09,4.91-15.82-156.42-41.09ZM248.66,14.32l-62.71,138.15,16.49,6.34,62.71-138.15-16.49-6.34h0ZM225.42,225.56l-2.95,16.23,160.43,24.72,2.95-16.23-160.43-24.72ZM1324.18,1373.11l-11.66,12.47,123.28,97.68,11.66-12.47-123.28-97.68h0ZM661.66-70.23l-10.39,13.39,132.4,86.98,10.39-13.39-132.4-86.99h0ZM532.57-102.13l-10.39,13.39L654.58-1.74l10.39-13.39-132.4-86.98h0ZM743.97,51.42l-84.4,128,15.28,8.53,84.4-128-15.28-8.53h0ZM550.91,67.31l-17.6,2.9,28.69,147.38,17.6-2.9-28.69-147.38h0ZM933.43-65.96l-88.54,125.61,15,8.96,88.54-125.61-15-8.96h0ZM1489.74,1085.54l-154.55,46.69,5.58,15.64,154.55-46.69-5.58-15.64h0ZM1487.17,1126.81l-148.02,62.07,7.41,14.97,148.02-62.07-7.41-14.97h0ZM1102.99,336.25l-14.29,149.15,17.81,1.44,14.29-149.15-17.81-1.44h0ZM1064.25,273.21l-14.29,149.15,17.81,1.44,14.29-149.15-17.81-1.44ZM970.55,933.26l-10.87,13.06,129.1,91.09,10.87-13.06-129.1-91.09ZM1178.71,529.63l-112.69,107.97,12.89,11.4,112.69-107.97-12.89-11.4ZM1160.16,672.95l-13.21,149.24,17.82,1.34,13.21-149.24-17.82-1.34h0ZM703.19,674.8l-79.4,130.68,15.6,8.04,79.4-130.68-15.6-8.04h0ZM-28.92,1397.4l-104.32,114.88,13.72,10.56,104.32-114.88-13.72-10.56ZM519.41,465.66l-7.83,14.8,146.24,65.57,7.83-14.8-146.24-65.57h0ZM309.15,326.88l-7.83,14.8,146.24,65.57,7.83-14.8-146.24-65.57h0ZM-135.33,306.51l-7.83,14.8L3.08,386.88l7.83-14.8s-146.24-65.57-146.24-65.57ZM1156.55,1184.65l-156.71,40.14,4.79,15.85,156.71-40.14-4.79-15.85ZM1407.84,952.84l-65.51,137.06,16.36,6.63,65.51-137.06-16.36-6.63ZM762,1211.18l-4.35,15.97,157.79,36.37,4.35-15.97-157.79-36.37ZM1027.73,1264.88l-20.6,148.52,17.74,2.09,20.6-148.52-17.73-2.09h-.01ZM474.98,207.44l-17.12,4.75,46.9,143.37,17.12-4.74-46.9-143.37h0ZM165.86,551.07l-.7,16.44,162.54,5.8.7-16.44-162.54-5.8h0ZM820.81,207.19l-17.21,4.44,43.88,144.17,17.21-4.44-43.88-144.19h0ZM389.85,741.37l-160.78,22.7,2.7,16.27,160.78-22.7-2.72-16.27h.01ZM-29.96,716.25l-156.6,40.53,4.85,15.84,156.6-40.52-4.85-15.85ZM232.46,1345.56l-17.86.75,7.37,149.58,17.86-.75-7.37-149.58ZM270.5,1386.64l-13.38,10.91,107.82,112.12,13.38-10.91-107.82-112.12h0ZM287.36,1117.21l-162.64,3.03.37,16.45,162.64-3.03-.37-16.45h0ZM16.24,1082.03l-.13,16.45,162.66,1.02.12-16.45-162.66-1.04h.01ZM-64.02,1029.04l-1.75,16.37,161.89,14.67,1.75-16.37-161.89-14.67h0ZM804.77,676.93h-15.48l-36.54,57.76,15.44,8.29,28.82-45.55,58.83,93.46,15.47-8.25-66.53-105.71h0ZM882.75,806.88h-162.66v16.45h162.66v-16.45h0Z"/>
              <path class="cls-1" d="M802.93,747.53c-19.35,21.19-57.67,21.28-77.08.13l-14.4,1.3-41.55,65.4,15.43,8.31,35.87-56.47c28.55,21.09,70.22,17.73,94.84-7.5l-13.12-11.17h0ZM934.98,36.88h-15.48l-36.54,57.76,15.44,8.29,28.82-45.55,58.83,93.46,15.47-8.25-66.53-105.71h0ZM1012.97,166.83h-162.66v16.45h162.66v-16.45Z"/>
              <path class="cls-1" d="M933.15,107.49c-20.18,21.28-56.65,21.52-77.08.13l-14.42,1.3-41.55,65.4,15.43,8.31,35.87-56.47c28.55,21.09,70.22,17.74,94.84-7.5l-13.12-11.17h.01ZM1411.51,139.6h-15.48l-36.54,57.76,15.44,8.29,28.82-45.55,58.83,93.46,15.47-8.25-66.53-105.71h0ZM1489.49,269.55h-162.66v16.45h162.66v-16.45Z"/>
              <path class="cls-1" d="M1409.67,210.21c-19.54,21.07-57.04,21.52-77.08.14l-14.42,1.3-41.55,65.4,15.43,8.31,35.87-56.47c28.55,21.09,70.24,17.74,94.84-7.5l-13.12-11.17h.01ZM1323.05,1278.66l14.85,4.02,52.75-45.94-12.29-11.95-41.6,36.23-27.84-104.94-17.37,3.9,31.49,118.69h.01ZM1644.5,853.15h-162.66v16.45h162.66v-16.45Z"/>
              <path class="cls-1" d="M1564.68,793.8c-19.54,21.09-57.04,21.52-77.08.13l-14.42,1.3-41.55,65.4,15.43,8.31,35.87-56.47c28.56,21.09,70.22,17.73,94.86-7.5l-13.12-11.17h0ZM104.13,518.36h-15.48l-36.54,57.76,15.44,8.29,28.82-45.55,58.83,93.46,15.47-8.25-66.53-105.71h0ZM182.11,648.32H19.45v16.45h162.66v-16.45Z"/>
              <path class="cls-1" d="M102.31,588.96c-20.18,21.27-56.65,21.51-77.08.14l-14.42,1.3-41.55,65.4,15.43,8.31,35.87-56.47c28.55,21.09,70.22,17.74,94.86-7.5l-13.12-11.17h0ZM58.66,1233.87h-15.48l-36.54,57.76,15.44,8.29,28.82-45.55,58.83,93.46,15.47-8.25-66.53-105.71h0ZM136.64,1363.83H-26.02v16.45h162.66v-16.45Z"/>
              <path class="cls-1" d="M56.84,1304.48c-19.35,21.18-57.67,21.28-77.06.13l-14.42,1.3-41.55,65.4,15.43,8.31,35.87-56.47c28.55,21.09,70.24,17.74,94.84-7.5l-13.12-11.17h0ZM376.37,1164.15h-15.48l-36.54,57.76,15.45,8.29,28.82-45.55,58.83,93.46,15.47-8.25-66.53-105.71h-.01ZM454.35,1294.1h-162.66v16.45h162.66v-16.45h0Z"/>
              <path class="cls-1" d="M374.54,1234.75c-20.18,21.28-56.65,21.51-77.08.14l-14.42,1.3-41.55,65.4,15.43,8.3,35.87-56.47c28.55,21.09,70.22,17.74,94.84-7.5l-13.12-11.17h.01ZM697.36,534.8c3.16,28.35-24.92,53.09-53.61,50.97l-9.03,10.41,21.99,73.01,17.23-4.4-18.99-63.04c36.31-4.19,62.72-33.86,60.26-67.83l-17.84.88h0ZM846.94,508.54c14.65-24.91,50.38-32.33,75.17-15.65l13.76-4.16,25.01-72.18-17.03-5-21.59,62.32c-32.87-14.79-72.61-3.28-90.77,26.41l15.45,8.26h-.01ZM852.8,373.87c-2.26,28.91-34.15,48.45-62,42.14l-10.78,8.9,8.61,75.34,17.78-1.72-7.43-65.05c36.54,1.35,67.89-23.81,71.59-57.76l-17.77-1.85ZM1016.55,874.31c-19.54,21.09-57.04,21.52-77.08.13l-14.42,1.3-41.55,65.4,15.43,8.31,35.87-56.47c28.55,21.09,70.24,17.73,94.86-7.5l-13.12-11.17h0ZM-51.81,585.59c-4.82,28.55-38.62,45.56-65.72,37.05l-11.57,8.01,1.52,75.75,17.87-.3-1.31-65.4c33.97,4.66,70.37-17.96,76.74-51.85l-17.53-3.24h0ZM1052.9,579.24c-20.18,21.28-56.65,21.51-77.08.14l-14.42,1.3-41.55,65.4,15.43,8.3,35.87-56.47c28.55,21.09,70.22,17.74,94.84-7.5l-13.12-11.17h.01ZM1070.86,562.14c7.22-28.01,41.98-42.81,68.57-32.38l12.2-7.18,4.7-75.63-17.84-.93-4.06,65.31c-35.83-6.78-71.17,13.38-80.77,46.38l17.2,4.45h0ZM544.19,857.24c27.01-9.59,61.03,5.66,67.58,34.1l13.3,5.27,70.67-38.84-9.17-14.13-61.02,33.54c-13.84-31.26-52.8-46.72-87.02-35.54l5.65,15.61h0ZM268.4,891.44c28.66-9.6,60.78,6.07,67.58,34.1l13.3,5.27,70.67-38.84-9.17-14.13-61.02,33.54c-13.84-31.26-52.8-46.72-87.02-35.54l5.63,15.61h.01ZM153.62,701.14c27.77-6.71,59.85,11.62,63.03,40.82l12.58,6.6,74.94-31.34-7.39-14.98-64.69,27.06c-9.95-32.51-46.93-51.85-82.16-44.26l3.72,16.1h-.01ZM426.5,1399.06c3.78-28.73,36.63-46.86,64.17-39.29l11.24-8.4-4.6-75.65-17.84.92,3.97,65.31c-36.42-2.99-69.07,20.71-74.58,54.47l17.65,2.64h0ZM1156.41,1284.15c-2.94-28.94,25.07-52.98,53.59-50.99l9.03-10.43-22.02-73.01-17.23,4.41,19.01,63.03c-36.31,4.19-62.71,33.88-60.24,67.85l17.84-.88h.01ZM1493.56,1213.33c-2.94-28.94,25.07-52.98,53.59-50.99l9.03-10.41-22.02-73.01-17.23,4.4,19.01,63.03c-36.31,4.19-62.71,33.88-60.24,67.86l17.84-.88h.01ZM1473.98,1317.58c2.55-29.1-24.04-52.56-53.59-50.99l-9.03-10.43,22.02-73.01,17.23,4.4-19.01,63.03c36.31,4.19,62.71,33.88,60.24,67.86l-17.84-.88h-.01ZM1230.72,1325.01c-3.4,28.89,24.2,53.32,52.76,51.71l8.86,10.54-23.19,72.69-17.15-4.64,20.02-62.76c-36.24-4.69-62.16-34.74-59.14-68.67l17.83,1.13h0ZM143.05,1297.39c13.2-25.64-2.3-56.87-31.16-64.89l-4.57-12.66,48.06-61.5,14.51,9.61-41.49,53.1c32.58,15.43,46.09,52.08,31.07,82.83l-16.41-6.5h0ZM-82.51,997.8c28.45,2.78,57.25-20.48,55.21-49.49l11.29-8.35,79.37,20.04-4.73,15.86-68.53-17.31c-4.27,34.48-39.34,58.29-73.52,55.66l.91-16.44h0v.03ZM1558.52,1368.07c-23.66-16.08-61.11-8.65-74.92,16.64l-14.34,1.88-57.16-54.51,12.87-11.42,49.36,47.06c22.3-26.76,63.95-32.45,94.08-13.34l-9.89,13.71h0ZM1440.96,1388.97c11.84,25.88,48.35,36,73.51,21.32l13.33,5.2,18.42,73.83-17.42,3.68-15.91-63.76c-34.09,12.21-72.63-2.23-88.08-33.23l16.15-7.05h.01ZM51.66,483.47c28.64,1.27,56.05-24.27,51.84-52.5l10.71-8.97,80.56,15.55-3.68,16.11-69.55-13.43c-1.97,33.75-33.71,60.07-69.7,59.69l-.18-16.45h0ZM634.4,260.36c-20.52-20.02-58.8-18.26-76.95,3.99l-14.47-.53-45.62-63.05,14.88-9.13,39.39,54.45c27.15-22.6,69.04-21.44,95.16,2.4l-12.4,11.86ZM751.85,248.76c16.02-24.21,2.43-57.71-24.62-67.23l-3.3-12.99,53.94-57.22,13.5,10.78-46.57,49.41c30.96,18.08,40.73,55.82,22.76,85.09l-15.7-7.85h0ZM1055.97,198.87c15.65-24.41,3.35-56.8-24.62-67.23l-3.3-12.99,53.94-57.22,13.5,10.78-46.57,49.41c30.95,18.08,40.73,55.82,22.76,85.09l-15.7-7.85h0ZM1194.81,22.58c-25.58-13.94-61.02-4.1-73.03,22.65l-14.1,3.03-62.16-49.65,11.71-12.43,53.68,42.87c19.62-28.49,60.69-37.5,92.44-20.94l-8.52,14.46h-.01ZM1221.61,90.28c28.85,6.71,46.3,37.15,34.24,63.57l7.64,11.32,82.09,5.36,1.26-16.41-70.89-4.62c8.18-32.97-14.61-66.32-49.28-74.98l-5.08,15.77h.01ZM1435.52,1070.58c-2.7-28.31,23.44-52.59,53.59-50.99l9.03-10.43-22.02-73.01-17.23,4.4,19.01,63.03c-36.31,4.19-62.71,33.88-60.24,67.85l17.84-.88h0v.03ZM501.67,1120.65c2.86,28.95-25.22,52.92-53.74,50.85l-9.06,10.4,21.8,73.06,17.24-4.36-18.82-63.08c36.32-4.1,62.82-33.71,60.44-67.7l-17.84.83h-.01ZM313.26,1162.48c-21.28,19.2-59.46,16.19-76.72-6.79h-14.48l-48.29,61.35,14.48,9.65,41.69-52.97c26.16,23.58,68.11,23.94,95.18,1.06l-11.87-12.3h.01ZM85.62,1135.37c-9.01,27.43-44.66,40.38-70.6,28.44l-12.66,6.49-9.74,75.23,17.75,1.94,8.4-64.96c35.31,8.78,71.93-9.34,83.72-41.72l-16.87-5.42h0ZM228.43,869.83c-29.43,7.34-60.01-10.77-64.21-39.23l-12.78-6.28-73.98,33.21,7.84,14.8,63.88-28.68c10.91,32.25,48.41,50.66,83.45,42.19l-4.19-15.99h-.01ZM6.65,920.15c16.22-24.08,4.67-56.72-23.04-67.7l-2.99-13.04,55.25-56.15,13.25,11.04L1.41,842.78c30.54,18.68,39.42,56.63,20.77,85.52,0,0-15.52-8.17-15.52-8.15h-.01ZM268.4,622.62c28.66-9.6,60.78,6.07,67.58,34.1l13.3,5.27,70.67-38.84-9.17-14.13-61.02,33.54c-13.85-31.25-52.8-46.72-87.02-35.54l5.63,15.61h.01ZM498.27,502.88c-28.82-6.81-46.15-37.32-33.98-63.67l-7.59-11.34-82.08-5.63-1.33,16.41,70.87,4.87c-8.31,32.94,14.35,66.36,48.98,75.15l5.13-15.76h0v-.03ZM577.65,285.36c29.11,8.38,44.11,39.33,30.91,64.98l7.05,11.65,81.72,8.96,2.11-16.33-70.56-7.73c9.87-32.58-11.16-66.89-45.34-77.05l-5.88,15.53h-.01Z"/>
              <path class="cls-1" d="M1288.66,1129.87c12.08-26.2-6.88-57.51-34.97-63.22l-5.32-12.41,44.33-63.83,15.06,8.86-38.28,55.11c33.44,13.77,49.12,49.61,35.94,81.15l-16.78-5.67h.01ZM626.49,1438.67c11.63-26.29-5.69-56.66-34.97-63.22l-5.32-12.41,44.33-63.83,15.06,8.86-38.28,55.11c33.43,13.77,49.12,49.61,35.94,81.15l-16.78-5.67h.01ZM1282.98,305.09c-15.68,24.59-1.08,57.96,25.84,66.83l3.53,12.92-52.88,58.05-13.7-10.57,45.66-50.12c-31.28-17.6-41.76-55.16-24.3-84.72l15.85,7.6h0ZM460.35,324.25c-3.47,28.89,24.11,53.36,52.67,51.79l8.84,10.56-23.32,72.65-17.14-4.66,20.14-62.74c-36.23-4.74-62.09-34.84-59.02-68.76l17.83,1.16h0ZM1601.74,366.4l-72.24,134.16,16.02,7.31,72.24-134.16-16.02-7.3h0ZM-61.47,902.92l7.22,12.61-38.43,56.72-15.17-8.71,30.31-44.72-117.27-4.24.71-16.44,132.62,4.81v-.03ZM-229.45,85.05l-7.75,14.82,146.58,64.92,7.75-14.82-146.58-64.92ZM-36.25,853.15h-162.68v16.45H-36.26v-16.45h.01ZM-221.69,167.72c28.6-.96,55.54,24.12,51.33,52.93l10.62,9.05,80.7-14.88-3.51-16.14-69.68,12.84c-1.63-34.68-34.86-60.7-69.12-60.26l-.35,16.45h.01ZM-79,366.4l-72.24,134.16,16.02,7.31,72.24-134.16-16.02-7.3h0ZM1651.81-126.47l-104.32,114.88,13.72,10.56,104.32-114.88-13.72-10.56h0ZM858.92-41.11l-13.35-7.21.24-66.85,17.87.05-.18,52.72,102.12-53.21,8.81,14.31-115.5,60.18h0ZM459.55-17.47l-15.24,2.47-46.85-51.08,13.66-10.62,36.94,40.27,40.39-101.42,16.78,5.66-45.68,114.71h.01ZM1324.18-150.77l-11.66,12.47,123.28,97.68,11.66-12.47-123.28-97.68h0ZM-28.92-126.47L-133.24-11.59l13.72,10.56L-15.2-115.91l-13.72-10.56h0ZM232.46-178.32l-17.86.75,7.37,149.57,17.86-.75-7.37-149.58h0ZM270.5-137.25l-13.38,10.91L364.93-14.22l13.38-10.91-107.82-112.12h0ZM1230.72-198.87c-3.45,28.9,24.23,53.3,52.76,51.71l8.86,10.54-23.19,72.69-17.15-4.64,20.02-62.76c-33.96-3.69-62.75-34.42-59.14-68.67l17.83,1.13h0ZM1440.96-134.91c11.99,26.25,48.89,35.81,73.51,21.32l13.33,5.2,18.42,73.83-17.42,3.68-15.91-63.75c-32.24,12.19-73.16-2.1-88.08-33.23l16.15-7.05h.01ZM819.46-69.23c-28.44,2.91-57.35-20.22-55.49-49.24l-11.34-8.3-79.27,20.4,4.82,15.85,68.44-17.61c4.45,34.45,39.64,58.12,73.82,55.33l-.98-16.43h.01Z"/>
            </g>
          </g>
        </g>
      </g>
    </g>
  </g>
</svg>