<?xml version="1.0" encoding="UTF-8"?>
<svg id="Calque_2" data-name="Calque 2" xmlns="http://www.w3.org/2000/svg" viewBox="0 0 152.11 176.2">
  <defs>
    <style>
      .cls-1 {
        fill: #1c72b9;
      }

      .cls-2 {
        fill: #ce2c2d;
      }
    </style>
  </defs>
  <g id="Calque_1-2" data-name="Calque 1">
    <g>
      <path class="cls-2" d="M31.28,46.61v37.44h4.07v9.77h-4.07v10.09h-14.3v-10.09H0v-9.77l12.35-37.44h18.93ZM16.99,84.05v-24.38l-6.32,24.38h6.32Z"/>
      <path class="cls-2" d="M63.7,70.79c2.05.83,3.62,2.07,4.73,3.71,1.1,1.65,1.66,5.56,1.66,11.76,0,4.51-.44,7.84-1.31,9.98-.87,2.14-2.58,3.9-5.11,5.27-2.53,1.37-5.92,2.05-10.18,2.05s-7.42-.66-9.84-1.97c-2.42-1.31-4.15-3.05-5.19-5.21-1.05-2.16-1.57-5.77-1.57-10.81,0-3.38.26-6.32.78-8.81.52-2.49,2.15-4.48,4.88-5.97-1.73-.83-3.02-2.14-3.88-3.95-.86-1.81-1.29-4.1-1.29-6.88,0-4.81,1.33-8.41,4-10.81,2.67-2.4,6.66-3.6,11.98-3.6,6.14,0,10.39,1.28,12.73,3.83,2.35,2.55,3.52,6.2,3.52,10.93,0,3.01-.39,5.19-1.16,6.52-.77,1.33-2.35,2.66-4.75,3.97ZM56.14,82.02c0-2.14-.22-3.56-.66-4.26-.44-.7-1.13-1.05-2.07-1.05s-1.58.34-1.98,1.02c-.4.68-.6,2.11-.6,4.3v7.25c0,2.42.22,3.97.67,4.66.45.69,1.16,1.04,2.12,1.04s1.66-.35,2-1.05c.35-.7.52-2.28.52-4.75v-7.14ZM55.87,58.8c0-1.89-.17-3.13-.5-3.74-.33-.61-.97-.91-1.92-.91s-1.54.33-1.86.98c-.32.66-.48,1.88-.48,3.68v4.24c0,1.68.18,2.84.55,3.49.37.64.99.97,1.86.97.92,0,1.54-.32,1.86-.95.32-.63.48-1.94.48-3.92v-3.83Z"/>
      <path class="cls-1" d="M69.64,14.1c0-.76-.76-1.38-1.71-1.38s-1.71.62-1.71,1.38c0,.09.01.19.03.28h-.03v7.59c0,.76.76,1.38,1.71,1.38s1.71-.62,1.71-1.38v-7.59h-.03c.02-.09.03-.18.03-.28Z"/>
      <path class="cls-1" d="M40.55,20.94c-.38-.66-1.35-.81-2.17-.34-.82.47-1.17,1.39-.79,2.05.05.08.1.16.17.22l-.03.02,3.8,6.58c.38.66,1.35.81,2.17.34.82-.47,1.17-1.39.79-2.05l-3.8-6.58-.03.02c-.03-.09-.06-.17-.11-.26Z"/>
      <path class="cls-1" d="M37.45,120.88c-.38.66-.03,1.58.79,2.05.82.47,1.79.32,2.17-.34.05-.08.08-.17.11-.26l.03.02,3.8-6.58c.38-.66.03-1.58-.79-2.05-.82-.47-1.79-.32-2.17.34l-3.8,6.58.03.02c-.06.07-.12.14-.17.22Z"/>
      <path class="cls-1" d="M66.06,129.5c0,.76.76,1.38,1.71,1.38s1.71-.62,1.71-1.38c0-.09-.01-.19-.03-.28h.03v-7.59c0-.76-.76-1.38-1.71-1.38s-1.71.62-1.71,1.38v7.59h.03c-.02.09-.03.18-.03.28Z"/>
      <path class="cls-1" d="M95.15,122.67c.38.66,1.35.81,2.17.34.82-.47,1.17-1.39.79-2.05-.05-.08-.1-.16-.17-.22l.03-.02-3.8-6.58c-.38-.66-1.35-.81-2.17-.34-.82.47-1.17,1.39-.79,2.05l3.8,6.58.03-.02c.03.09.06.17.11.26Z"/>
      <path class="cls-1" d="M125.55,73.6c.76,0,1.38-.76,1.38-1.71s-.62-1.71-1.38-1.71c-.09,0-.19.01-.28.03v-.03h-7.59c-.76,0-1.38.76-1.38,1.71s.62,1.71,1.38,1.71h7.59v-.03c.09.02.18.03.28.03Z"/>
      <path class="cls-1" d="M118.72,44.51c.66-.38.81-1.35.34-2.17-.47-.82-1.39-1.17-2.05-.79-.08.05-.16.1-.22.17l-.02-.03-6.58,3.8c-.66.38-.81,1.35-.34,2.17.47.82,1.39,1.17,2.05.79l6.58-3.8-.02-.03c.09-.03.17-.06.26-.11Z"/>
      <path class="cls-1" d="M98.25,22.73c.38-.66.03-1.58-.79-2.05-.82-.47-1.79-.32-2.17.34-.05.08-.08.17-.11.26l-.03-.02-3.8,6.58c-.38.66-.03,1.58.79,2.05.82.47,1.79.32,2.17-.34l3.8-6.58-.03-.02c.06-.07.12-.14.17-.22Z"/>
      <path class="cls-1" d="M116.92,102.21c.66.38,1.58.03,2.05-.79.47-.82.32-1.79-.34-2.17-.08-.05-.17-.08-.26-.11l.02-.03-6.58-3.8c-.66-.38-1.58-.03-2.05.79-.47.82-.32,1.79.34,2.17l6.58,3.8.02-.03c.07.06.14.12.22.17Z"/>
      <path class="cls-2" d="M83.72,39.95v7.07c.67-.62,1.4-1.09,2.18-1.4.78-.31,1.62-.47,2.51-.47,1.37,0,2.54.35,3.5,1.05.96.7,1.55,1.5,1.77,2.42.21.91.32,2.58.32,5v17.76h-7.84v-18.12c0-1.5-.07-2.46-.22-2.89-.15-.43-.48-.64-1-.64-.48,0-.8.22-.97.66-.17.44-.25,1.31-.25,2.62v18.38h-7.84v-31.42h7.84Z"/>
      <path class="cls-1" d="M86.22.17c-2.65-.72-5.35.99-5.82,3.7h0c-.42,2.39,1.07,4.71,3.43,5.31,29.68,7.54,50.63,35.44,48.42,67.06-2.49,35.57-33.34,62.39-68.91,59.9-5.25-.37-10.31-1.35-15.11-2.88-.44-.14-.88-.24-1.34-.31l-23.91,33.84c.45.39.95.72,1.5.97,9.71,4.55,20.42,7.42,31.76,8.22,49.37,3.45,92.19-33.77,95.64-83.14C154.92,49.5,126.59,11.2,86.22.17Z"/>
    </g>
  </g>
</svg>