<?xml version="1.0" encoding="UTF-8"?>
<svg id="Calque_2" data-name="Calque 2" xmlns="http://www.w3.org/2000/svg" viewBox="0 0 190.03 194.66">
  <defs>
    <style>
      .cls-1 {
        fill: #ffd550;
      }

      .cls-1, .cls-2, .cls-3, .cls-4, .cls-5, .cls-6, .cls-7, .cls-8, .cls-9, .cls-10, .cls-11, .cls-12, .cls-13, .cls-14, .cls-15, .cls-16, .cls-17, .cls-18, .cls-19, .cls-20, .cls-21, .cls-22, .cls-23, .cls-24, .cls-25, .cls-26, .cls-27, .cls-28, .cls-29, .cls-30, .cls-31, .cls-32, .cls-33 {
        stroke: #1d1d1b;
        stroke-miterlimit: 10;
        stroke-width: .25px;
      }

      .cls-2 {
        fill: #2b4b9b;
      }

      .cls-3 {
        fill: #5e4037;
      }

      .cls-4 {
        fill: #f39677;
      }

      .cls-34 {
        opacity: .75;
      }

      .cls-5 {
        fill: #4e5ba6;
      }

      .cls-35 {
        fill: #1c72b9;
      }

      .cls-6 {
        fill: #ea951c;
      }

      .cls-7 {
        fill: #364850;
      }

      .cls-8 {
        fill: #a36d41;
      }

      .cls-9 {
        fill: #8b8ec0;
      }

      .cls-10 {
        fill: #273338;
      }

      .cls-11 {
        fill: #ea5658;
      }

      .cls-12 {
        fill: #2898d5;
      }

      .cls-13 {
        fill: #e5221c;
      }

      .cls-14 {
        fill: #d39b6b;
      }

      .cls-15 {
        fill: #f28d1b;
      }

      .cls-16 {
        fill: #4376ba;
      }

      .cls-17 {
        fill: #5c98d1;
      }

      .cls-36 {
        isolation: isolate;
      }

      .cls-18 {
        fill: #57423a;
      }

      .cls-19 {
        fill: #fff;
      }

      .cls-20 {
        fill: #f6ad49;
      }

      .cls-21 {
        fill: #d9dcf0;
      }

      .cls-22 {
        fill: #22398e;
      }

      .cls-23 {
        fill: #f9b216;
      }

      .cls-24 {
        fill: #b0b4dc;
      }

      .cls-25 {
        fill: #82bfea;
      }

      .cls-26 {
        fill: #ffe384;
      }

      .cls-27 {
        fill: #f6b29b;
      }

      .cls-28 {
        fill: #3c2c28;
      }

      .cls-29 {
        fill: #6cb759;
      }

      .cls-30 {
        fill: #864f32;
      }

      .cls-31 {
        fill: #856e64;
      }

      .cls-32 {
        fill: #7dbd5f;
      }

      .cls-33 {
        fill: #597381;
      }
    </style>
  </defs>
  <g id="Calque_1-2" data-name="Calque 1">
    <g>
      <g class="cls-34">
        <path class="cls-35" d="M5.45,136.57c9.48-8.95,28.11-13.18,42.22-8.97,14.11,4.21,17.31,14.55,7.83,23.51-9.32,8.8-28.24,12.74-42.35,8.53-14.34-4.28-17.02-14.27-7.7-23.07ZM41.86,113.89c15.93-11.42,35.06-13.9,51.99-16.24,15.93-2.24,28.75-3.2,35.82-9.88,4.28-4.31,3.04-7.88-3.91-9.95-8.29-2.47-18.13-.42-29.43,7.19l-43.01-12.84c30.52-23.25,69.49-27.19,102.93-17.01,35.39,10.56,42.03,27.12,24.35,43.82-14.63,13.81-32.93,17.73-51.62,20.34-17.53,2.36-36.63,2.85-49.18,9.69l-41.67-12.44,3.73-2.68Z"/>
      </g>
      <g>
        <path class="cls-14" d="M160.38,86.56c.14.58.47,3.76.26,4.27-.21.51-3.25-.04-3.59.51s-5,1.11-5.73.34c-.73-.77,1.97-2.35,2.91-2.56.94-.21,2.86-2.57,2.86-2.57h3.29Z"/>
        <path class="cls-14" d="M172.42,89.49c.08.47.59,3.21.39,4s-3.07.4-3.38,1.1c-.31.7-4.9,1.45-5.58.75-.68-.7.42-2.17,1.82-2.39,1.4-.22,3.64-3.4,3.64-3.4l3.12-.07Z"/>
        <path class="cls-17" d="M157.28,31.31c-.21.82-2.58,10.78-2.91,11.55-.33.76-7.07,6.3-7.12,7.12-.05.81.67,2.53,2.2,2.63s6.21-4.36,7.33-5.76c1.12-1.4,2.31-7.47,2.31-7.47l-1.82-8.06Z"/>
        <path class="cls-17" d="M156.42,51.71c.03.58-.5,14.41-.55,16-.05,1.59-.66,18.18.54,19.18,1.2,1.01,3.75.9,4.33,0,.52-.8,2.3-11.08,1.11-14.8-.26-.81-.34-1.65-.05-2.45,1.1-3.08,3.47-10.44,2.56-14.27-1.18-4.93-7.94-3.65-7.94-3.65Z"/>
        <path class="cls-25" d="M172.31,55.47s1.35,10.18-.1,15.21c-.21.72-.17,1.46,0,2.19.65,2.73,1.93,9.57.67,16.96,0,0-2.52,1.84-4.6,0-2.09-1.84-2.59-18.16-2.72-19.77s-4.05-14.01-1.77-15.79,7.75-.98,8.52,1.21Z"/>
        <path class="cls-25" d="M172.19,57.13c-.56,2.72-14.61.03-15.51-3.36-.91-3.42.91-10.37.67-12.53-.26-2.13-1.4-6.16.15-10.6.23-.67,2.04-1.12,4.15-.91.7.06,1.37.18,1.99.29.91.2,2.19.67,3.48,1.29v.03c2.22,1.08,4.5,2.54,4.94,3.36.7,1.32-1.11,11.22-1.05,12.36.06,1.14,1.78,7.39,1.2,10.08Z"/>
        <path class="cls-21" d="M163.22,36.27c-.53,1.26-.82,3.9-.53,6.43.29,2.52.31,8.47.21,10.38-.1,1.9.34,5.75.62,6.73.28.98-.12,1.22-.47.65-.35-.57-.87-4.95-.82-7.57.05-2.62.18-8.81,0-10.09-.19-1.29-.53-6,0-6.76.53-.76,1,.24,1,.24Z"/>
        <path class="cls-17" d="M161.64,29.73s-4.73,3.46.91,7.8l-.91-7.8Z"/>
        <path class="cls-17" d="M167.1,31.31s.51,2.22,0,3.5c-.51,1.29-3.43,3.33-4.56,2.72l4.56-6.22Z"/>
        <path class="cls-33" d="M167.1,31.31v.03c-.93,1.9-2.92,5.67-4.56,6.19,0,0-2.07-4.59-.91-7.8.12,0,.26.03.38.03.56.06,1.11.18,1.61.26.85.2,2.04.61,3.24,1.17.09.03.15.09.23.12Z"/>
        <path class="cls-4" d="M166.87,31.19c-.35.79-1.46,2.89-3.13,2.66-2.63-.38-2.13-2.86-1.72-4.09.56.06,1.11.18,1.61.26.85.2,2.04.61,3.24,1.17Z"/>
        <path class="cls-4" d="M166.52,29.19l.2,2.18-2.48.44s-.13-2.25,0-2.42,2.28-.2,2.28-.2Z"/>
        <path class="cls-27" d="M160.79,25.08c.04.75.38,6.08.92,6.31,1.93.83,4.93-.84,5.83-2.34.9-1.5,1.52-6.22-1.27-7.34-2.79-1.12-5.57,1.74-5.47,3.37Z"/>
        <path class="cls-31" d="M161.55,22.61c-.54.57-1.08.95-1.84.92-.76-.03-.05,2.25,1.84,1.89s3.79-.52,4.36.04c.57.56-.7,3.34.3,3.86s1.77-.03,2.09-.6c.32-.57,1.54-5.38-.17-6.66-1.7-1.27-4.68-1.48-6.57.54Z"/>
        <path class="cls-17" d="M172.04,34.7c.64.46,1.96,10.12,1.86,11.6-.11,1.48-2.48,9.66-3.59,10.03-1.11.37-2.32-.37-2.8-1.11-.48-.74,1.95-8.19,2.9-9.24,0,0-2.87-6.23-2.12-9.03s3.75-2.25,3.75-2.25Z"/>
        <path class="cls-17" d="M168.29,42.41c-1.38-1.49-4.36-1.42-4.36-1.42v-.45s2.98-.07,4.36,1.42v.45Z"/>
        <path class="cls-27" d="M149,52.12c-.11.27-.89.71-1.6.95,0,.03-.04.02-.04.02-.54.17-.99.25-1.11.12-.27-.32-.91-.73-.84-.96.07-.22-.61-.49-.5-.85.11-.36-.43-.8-.23-1.17.12-.21.51-.27.84-.36.29-.04.54-.08.57-.16.12-.21-.7-.4-.58-.82.13-.42,1.84.59,2.07.63,1.89.21,1.6,2.07,1.41,2.59Z"/>
        <g>
          <g>
            <path class="cls-8" d="M145.33,42.82l11.3,43.17c.03.1-.01.21-.12.32-.22.22-.64.32-.94.25-.16-.04-.25-.12-.27-.22l-11.3-43.17,1.33-.35Z"/>
            <path class="cls-14" d="M145.21,43.14c-.22.22-.64.33-.94.25-.3-.08-.36-.33-.14-.54.22-.22.64-.33.94-.25.3.08.36.33.14.54Z"/>
          </g>
          <g>
            <g>
              <polygon class="cls-7" points="148.3 41.03 149.14 44.25 148.57 44.09 148.11 43.97 147.51 43.8 147.05 43.67 146.45 43.5 145.98 43.38 145.39 43.23 144.93 43.1 144.33 42.93 143.87 42.8 143.27 42.63 142.8 42.51 142.21 42.34 141.77 42.23 141.17 42.06 140.71 41.93 140.11 41.78 139.64 41.63 139.05 41.48 138.59 41.36 137.99 41.19 137.15 37.96 137.74 38.13 138.21 38.26 138.8 38.41 139.27 38.56 139.86 38.71 140.33 38.83 140.92 39 141.36 39.11 141.96 39.29 142.42 39.41 143.02 39.58 143.49 39.71 144.08 39.88 144.55 40 145.14 40.15 145.6 40.28 146.2 40.45 146.66 40.58 147.26 40.75 147.73 40.87 148.3 41.03"/>
              <polygon class="cls-8" points="149.39 45.17 138.23 42.11 137.99 41.19 149.15 44.25 149.39 45.17"/>
            </g>
            <polygon class="cls-33" points="137.15 37.95 138.77 36.35 149.93 39.41 148.3 41.01 137.15 37.95"/>
            <g>
              <polygon class="cls-10" points="150.77 42.64 149.15 44.25 148.31 41.02 149.93 39.41 150.77 42.64"/>
              <polygon class="cls-30" points="151.02 43.56 149.39 45.17 149.15 44.25 150.77 42.64 151.02 43.56"/>
            </g>
          </g>
          <g>
            <polygon class="cls-10" points="138.21 38.26 139.05 41.48 138.59 41.36 137.74 38.13 138.21 38.26"/>
            <polygon class="cls-10" points="139.27 38.56 140.11 41.78 139.64 41.63 138.8 38.41 139.27 38.56"/>
            <polygon class="cls-10" points="140.33 38.83 141.17 42.06 140.71 41.93 139.86 38.71 140.33 38.83"/>
            <polygon class="cls-10" points="141.36 39.11 142.21 42.34 141.77 42.23 140.92 39 141.36 39.11"/>
            <polygon class="cls-10" points="142.42 39.41 143.27 42.63 142.8 42.51 141.96 39.29 142.42 39.41"/>
            <polygon class="cls-10" points="143.49 39.71 144.33 42.93 143.87 42.8 143.02 39.58 143.49 39.71"/>
            <polygon class="cls-10" points="144.55 40 145.39 43.23 144.93 43.1 144.08 39.88 144.55 40"/>
            <polygon class="cls-10" points="145.6 40.28 146.45 43.5 145.98 43.38 145.14 40.15 145.6 40.28"/>
            <polygon class="cls-10" points="146.66 40.58 147.51 43.8 147.05 43.67 146.2 40.45 146.66 40.58"/>
            <polygon class="cls-10" points="147.73 40.87 148.57 44.09 148.11 43.97 147.26 40.75 147.73 40.87"/>
          </g>
        </g>
        <path class="cls-4" d="M147.4,53.07s-.04.02-.04.02c-.54.17-.99.25-1.11.12-.27-.32-.91-.73-.84-.96.07-.22-.61-.49-.5-.85.11-.36-.43-.8-.23-1.17.12-.21.51-.27.84-.36.59-.04,1.07-.01,1.09.15.07.39-1.04.6-1.05.84-.01.24,1.31-.18,1.36.04.05.23-1.09.47-.98.8.09.3,1.22-.61,1.28-.1.07.48-1.03.69-.8.95.23.25,1.01-.61,1.15-.17.06.2,0,.43-.17.68Z"/>
        <g>
          <g>
            <path class="cls-24" d="M172.69,62.12l-1.17,8.04c.02.6-.38,1.22-1.2,1.7-1.63.93-4.24.93-5.86,0-.81-.48-1.22-1.1-1.2-1.7l-1.17-8.04,5.29.36,5.31-.36Z"/>
            <g>
              <path class="cls-21" d="M171.14,64.29c-2.07,1.2-5.44,1.2-7.51,0-2.07-1.2-2.07-3.14,0-4.34s5.44-1.2,7.51,0c2.07,1.2,2.07,3.14,0,4.34Z"/>
              <path class="cls-24" d="M171.97,62.77c-.19.45-.6.91-1.24,1.27-1.84,1.08-4.83,1.08-6.68,0-.62-.36-1.05-.81-1.24-1.27-.38-.89.05-1.87,1.24-2.56,1.84-1.08,4.83-1.08,6.68,0,1.2.69,1.63,1.67,1.24,2.56Z"/>
              <path class="cls-5" d="M171.97,62.77s-.05.12-.1.17c-.19.41-.57.79-1.15,1.1-1.84,1.08-4.83,1.08-6.68,0-.55-.31-.93-.69-1.15-1.1-.05-.05-.07-.12-.1-.17.17-.48.6-.93,1.24-1.32,1.84-1.05,4.83-1.05,6.68,0,.65.38,1.08.84,1.24,1.32Z"/>
              <path class="cls-2" d="M171.88,62.93c-.19.41-.57.79-1.15,1.1-1.84,1.08-4.83,1.08-6.68,0-.55-.31-.93-.69-1.15-1.1.22-.41.6-.77,1.15-1.08,1.84-1.08,4.83-1.08,6.68,0,.55.31.93.67,1.15,1.08Z"/>
            </g>
          </g>
          <path class="cls-9" d="M171.21,59.99s-.05-.02-.07-.05c-.17-.1-.33-.17-.5-.24-.05-.93-.41-1.63-.98-1.96-.65-.36-1.51-.26-2.46.29-.5.29-1,.69-1.46,1.17-1.27,1.36-2.18,3.3-2.25,5-.02.1-.02.19-.02.29,0,.17-.12.29-.26.29-.17,0-.29-.12-.29-.29,0-.22.02-.43.05-.67.17-1.48.86-3.09,1.89-4.38.6-.79,1.32-1.46,2.08-1.89,1.12-.65,2.18-.74,3.02-.26.81.46,1.27,1.41,1.27,2.7Z"/>
        </g>
        <path class="cls-27" d="M168.04,55.2c-.06.04-1.75,1.82-1.43,2.04s.98-.67,1.12-.38c.14.29-1.2,1.35-.91,1.79.28.43.97.04,1.09.43s.64-.09.8.19c.16.28.83-.14,1.17-.04.34.1,1.25-3.05.55-3.67-.7-.63-1.87-.68-2.38-.35Z"/>
      </g>
      <g>
        <g>
          <path class="cls-14" d="M80.83,64.7s-.38,4.01,0,4.54c.38.53,2.92-.15,3.33.15.42.3,4.43,1.54,5.11.68.68-.87-1.44-1.85-2.31-2.19-.87-.34-2.95-2.84-2.95-2.84l-3.18-.34Z"/>
          <path class="cls-14" d="M68.36,68.51s-.41,3.55-.22,4.15c.19.6,2.54.11,2.88.67.34.56,4.44,2.09,5.23,1.08.78-1.01-1.53-1.83-2.28-2.35-.75-.52-2.17-3.14-2.17-3.14l-3.44-.41Z"/>
          <path class="cls-17" d="M83.37,31.9s.7,13.83.95,15.27c.25,1.43,1.03,16.63.45,18.02-.58,1.38-4.16,1.26-4.66,0-.45-1.12-2.05-11.14-1.03-15.01.23-.87.02-1.79-.46-2.55-1.39-2.22-3.61-6.77-2.13-11.34,2.07-6.4,6.87-4.39,6.87-4.39Z"/>
          <path class="cls-25" d="M69.69,37.38s-1.46,9.41-.31,14.3c.27,1.13.27,2.28-.11,3.37-.93,2.73-2.35,8.28-1.22,14.28,0,0,3.31,1.64,4.78,0,1.46-1.64,2.61-16.52,2.8-17.63.19-1.11,4.46-16.12,1.59-17.46-2.87-1.34-7.53,3.14-7.53,3.14Z"/>
          <path class="cls-13" d="M82.3,13.3s5.69,6.84,5.62,8.72c-.08,1.88-3.84,7.97-4.85,7.56-1.02-.41-.76-2.29-.76-2.29,0,0,.95-3.19,1.98-4.42.25-.3.26-.72-.04-.96-.81-.65-2.1-1.86-2.46-3.12-.53-1.87.51-5.47.51-5.47Z"/>
          <g>
            <path class="cls-11" d="M69.97,35c-.18,1.37-.32,2.62-.29,3.38.08,2.06,12.74-1.66,13.45-4.76.29-1.27.29-2.56.18-3.8-.26-2.77-1.16-5.31-.95-6.79.32-2.14.32-7.61.08-9.38-.08-.5-.61-.82-1.35-.98h-.03c-.4-.08-.87-.13-1.37-.13-.74,0-1.53.08-2.27.21-.24.05-.48.11-.71.19-.87.21-2.06.87-3.28,1.69-.77.53-1.53,1.11-2.22,1.66-.32.26-.61.53-.9.77-.77.69-1.35,1.29-1.64,1.72-.92,1.43,2.14,8.96,2.06,10.41-.05.9-.48,3.51-.77,5.81Z"/>
            <path class="cls-25" d="M69.68,38.38c.08,2.06,12.74-1.66,13.45-4.76.29-1.27.29-2.56.18-3.8-1.11-2.11-2.48-4.76-2.83-5.95,0,0-5.26,2.88-5.87,2.99-.5.11-1.9,6.24-4.65,8.14-.18,1.37-.32,2.62-.29,3.38Z"/>
            <path class="cls-4" d="M73.44,14.63c.87,1.06,2.62,2.83,3.94,2.32,1.4-.53.55-3.01.05-4.2-.24.05-.48.11-.71.19-.87.21-2.06.87-3.28,1.69Z"/>
            <path class="cls-13" d="M77.62,13.13s-1.3,3.31-.24,3.83,1.51-2.52.24-3.83Z"/>
            <polygon class="cls-4" points="74.04 11.7 74.04 14.72 76.44 14.9 76.68 11.9 74.04 11.7"/>
          </g>
          <path class="cls-27" d="M78.56,6.58c.03,1.18.15,6.63-.66,7-.81.37-5.45-.74-5.97-2.8-.52-2.06,0-3.84,1.55-5.38,1.56-1.54,5.04-.29,5.08,1.18Z"/>
          <path class="cls-21" d="M78.1,5.02c.82.39,1.58-.2,1.63.64.05.84-.74,2.23-2.18,1.98-1.43-.25-3.26.25-3.71,1.29-.44,1.04.85,2.05.2,2.77-.65.72-1.71.74-2.31,0-.61-.74-1.3-3.07-.75-4.7.54-1.63,2.62-4.1,7.12-1.98Z"/>
          <path class="cls-20" d="M80.92,5.31c-.63,1.04-9.89,5.66-11.85,4.85s1.71-4.02,3.5-4.88c2.77-1.34,9.83-2.42,8.34.03Z"/>
          <path class="cls-6" d="M77.05,5.81c-.21.21-3.24,2.46-5.32,2.41l-2.11-6.2s4.01-.29,5.19-1.71l2.23,5.5Z"/>
          <path class="cls-20" d="M74.82.31s-.73-.41-2.44,0c-1.71.41-2.87,1.34-2.75,1.71.13.37,4.1.82,5.19-1.71Z"/>
          <path class="cls-13" d="M68.69,18.78c-.46.74-5.44,8.89-5.66,10.43s4.68,6.58,5.49,6.58,1.48-1.39,1.1-2.49c-.29-.85-1.28-2.85-2.12-3.91-.31-.39-.24-.96.14-1.28,1.32-1.16,3.78-3.69,3.51-6.22-.37-3.44-2.46-3.11-2.46-3.11Z"/>
          <path class="cls-27" d="M69.41,33.42s2.22-.21,1.99,0c-.23.21-.92.27-.86.54.06.27.92.25.98.59.06.34-.44.5-.35.86.08.36-.36.33-.31.75.04.42.05.48-.38.57-.43.08-1.81-.8-2.06-1.47-.25-.67,1-1.84,1-1.84Z"/>
          <path class="cls-25" d="M70.31,17.06c3.96,3.22,4.89,10.62,4.89,10.62l.9-.77s-.92-7.4-4.89-10.62c-.32.26-.61.53-.9.77Z"/>
          <path class="cls-25" d="M78.77,25.54l1.22-.24s3.25-7.61,1.11-12.63h-.03c-.4-.08-.87-.13-1.37-.13,2.54,4.99-.92,13-.92,13Z"/>
          <path class="cls-20" d="M75.17,28.22c0,.35.24.48.54.31.3-.17.54-.59.54-.94s-.24-.49-.54-.31c-.3.17-.54.59-.54.94Z"/>
          <path class="cls-20" d="M79.19,25.93c0,.35.24.49.54.31.3-.17.54-.59.54-.94s-.24-.48-.54-.31c-.3.17-.54.59-.54.94Z"/>
          <path class="cls-13" d="M73.44,14.63s4.66,1.35,3.94,2.32c-.73.97-3.35-.43-3.94-2.32Z"/>
        </g>
        <g>
          <g>
            <g>
              <path class="cls-15" d="M86.53,67.64s.35,8.03,8.32,8.33v-6.66s-8.32-1.67-8.32-1.67Z"/>
              <path class="cls-23" d="M88.23,70.03s.4,5.49,6.62,5.94l-2.54-5.94h-4.09Z"/>
              <path class="cls-1" d="M92.32,71.18s.24,4.79,2.54,4.79v-4.79s-2.54,0-2.54,0Z"/>
              <path class="cls-23" d="M86.53,67.64s1.02-7.89,8.32-7.86l-6.12,9.32s-1.83.6-2.2-1.46Z"/>
              <path class="cls-1" d="M88.23,70.03s-.16-9.03,6.62-10.25l-2.54,11.39s-3.4,1.38-4.09-1.14Z"/>
              <path class="cls-26" d="M92.32,71.18s-1.48-9,2.54-11.39v12.66s-1.81.23-2.54-1.27Z"/>
            </g>
            <g>
              <path class="cls-15" d="M103.18,67.64s-.35,8.03-8.32,8.33v-6.66s8.32-1.67,8.32-1.67Z"/>
              <path class="cls-23" d="M101.48,70.03s-.4,5.49-6.62,5.94l2.54-5.94h4.09Z"/>
              <path class="cls-1" d="M97.39,71.18s-.24,4.79-2.54,4.79v-4.79h2.54Z"/>
              <path class="cls-23" d="M103.18,67.64s-1.02-7.89-8.32-7.86l6.12,9.32s1.83.6,2.2-1.46Z"/>
              <path class="cls-1" d="M101.48,70.03s.16-9.03-6.62-10.25l2.54,11.39s3.4,1.38,4.09-1.14Z"/>
              <path class="cls-26" d="M97.39,71.18s1.48-9-2.54-11.39v12.66s1.81.23,2.54-1.27Z"/>
            </g>
          </g>
          <path class="cls-23" d="M93.98,61.22c.48.28,1.27.28,1.75,0,.48-.28.48-.73,0-1.01-.48-.28-1.27-.28-1.75,0-.48.28-.48.73,0,1.01Z"/>
          <g>
            <path class="cls-29" d="M94.04,60.5c0,.14.09.24.24.35.31.17.83.17,1.15,0,.16-.1.21-.22.21-.34h.02s-.02-.07-.02-.07l-.26-1.76h-1.07s-.28,1.83-.28,1.83Z"/>
            <path class="cls-32" d="M94.48,58.89c.21.12.54.12.75,0,.21-.12.21-.31,0-.43s-.54-.12-.75,0-.21.31,0,.43Z"/>
          </g>
        </g>
        <g>
          <g>
            <g>
              <path class="cls-15" d="M77.2,75s.19,4.28,4.43,4.44v-3.55s-4.43-.89-4.43-.89Z"/>
              <path class="cls-23" d="M78.11,76.27s.22,2.92,3.53,3.16l-1.35-3.16h-2.18Z"/>
              <path class="cls-1" d="M80.28,76.88s.13,2.55,1.35,2.55v-2.55s-1.35,0-1.35,0Z"/>
              <path class="cls-23" d="M77.2,75s.54-4.2,4.43-4.19l-3.26,4.97s-.97.32-1.17-.78Z"/>
              <path class="cls-1" d="M78.11,76.27s-.09-4.81,3.53-5.46l-1.35,6.07s-1.81.74-2.18-.61Z"/>
              <path class="cls-26" d="M80.28,76.88s-.79-4.8,1.35-6.07v6.74s-.97.12-1.35-.68Z"/>
            </g>
            <g>
              <path class="cls-15" d="M86.07,75s-.19,4.28-4.43,4.44v-3.55s4.43-.89,4.43-.89Z"/>
              <path class="cls-23" d="M85.16,76.27s-.22,2.92-3.53,3.16l1.35-3.16h2.18Z"/>
              <path class="cls-1" d="M82.99,76.88s-.13,2.55-1.35,2.55v-2.55h1.35Z"/>
              <path class="cls-23" d="M86.07,75s-.54-4.2-4.43-4.19l3.26,4.97s.97.32,1.17-.78Z"/>
              <path class="cls-1" d="M85.16,76.27s.09-4.81-3.53-5.46l1.35,6.07s1.81.74,2.18-.61Z"/>
              <path class="cls-26" d="M82.99,76.88s.79-4.8-1.35-6.07v6.74s.97.13,1.35-.68Z"/>
            </g>
          </g>
          <path class="cls-23" d="M81.17,71.58c.26.15.68.15.93,0s.26-.39,0-.54c-.26-.15-.68-.15-.93,0-.26.15-.26.39,0,.54Z"/>
          <g>
            <path class="cls-29" d="M81.2,71.19c0,.07.05.13.13.18.17.09.44.09.62,0,.08-.06.11-.12.11-.18h0s0-.04,0-.04l-.14-.94h-.57s-.15.97-.15.97Z"/>
            <path class="cls-32" d="M81.44,70.33c.11.06.29.06.4,0,.11-.06.11-.17,0-.23-.11-.06-.29-.06-.4,0-.11.06-.11.17,0,.23Z"/>
          </g>
        </g>
      </g>
      <g>
        <path class="cls-14" d="M123.71,162.84c.14.54.84,3.65.83,4.32-.01.68-2.71.54-3.02,1.08-.3.54-4.73,2.63-5.3,1.32-.57-1.32,1.49-2.24,2.43-2.81.95-.57,1.38-2.53,1.38-2.53l3.67-1.38Z"/>
        <path class="cls-22" d="M126.75,136.98s-11.07,8.15-11.27,10.02,3.16,16.73,4.17,17.39c1.01.66,4.48-.77,4.48-.77l-.71-10.83,3.33-15.81Z"/>
        <g>
          <g class="cls-36">
            <path class="cls-21" d="M137.6,149.48l-1.39-.81c-.06-.03-.09-.1-.1-.19l1.39.81c0,.09.04.16.1.19Z"/>
            <path class="cls-21" d="M123.24,157.79l-1.39-.81c-.08-.04-.12-.15-.09-.3l1.39.81c-.02.15.02.25.09.3Z"/>
            <polygon class="cls-21" points="137.5 149.29 136.11 148.49 135.02 132.25 136.41 133.06 137.5 149.29"/>
            <path class="cls-21" d="M135.6,131.23l1.39.81c-.06-.04-.15-.03-.25.02l-1.39-.81c.1-.06.19-.06.25-.02Z"/>
            <polygon class="cls-21" points="125.94 138.29 124.55 137.49 135.35 131.25 136.73 132.06 125.94 138.29"/>
            <polygon class="cls-21" points="123.15 157.49 121.76 156.69 124.2 138.04 125.59 138.84 123.15 157.49"/>
            <path class="cls-21" d="M125.59,138.84l-1.39-.81c.04-.22.17-.45.35-.55l1.39.81c-.18.1-.31.33-.35.55Z"/>
            <path class="cls-24" d="M136.73,132.06c.19-.11.34-.02.35.17l1.1,16.6c.03.22-.12.49-.31.61-.2.12-.37.04-.38-.16l-1.09-16.23-10.18,5.88-2.4,18.29c-.02.2-.17.43-.34.53l-.06.04c-.19.07-.31-.06-.28-.3l2.44-18.65c.04-.22.17-.45.35-.55l10.79-6.23Z"/>
          </g>
          <g class="cls-36">
            <polygon class="cls-25" points="140.02 147.37 124.76 138.5 134.19 133.06 149.45 141.93 140.02 147.37"/>
            <path class="cls-12" d="M139.65,148.62l-15.26-8.87c-.09-.06-.15-.17-.15-.34,0-.33.24-.74.53-.91l15.26,8.87c-.29.17-.53.58-.53.91,0,.16.06.28.15.34Z"/>
            <path class="cls-25" d="M138.04,110.13l15.26,8.87c-.1-.06-.23-.04-.36.04l-15.26-8.87c.13-.08.26-.09.36-.04Z"/>
            <path class="cls-25" d="M152.59,119.4l-15.26-8.87c.1-.17.22-.29.35-.37l15.26,8.87c-.13.07-.25.2-.35.37Z"/>
            <path class="cls-25" d="M149.45,141.93l-15.26-8.87c1.36-.78,2.41-2.75,2.24-4.22-.52-4.55-1.33-12.06-1.21-13.29.17-1.83,1.91-4.71,2.11-5.02l15.26,8.87c-.2.32-1.94,3.19-2.11,5.02-.12,1.23.69,8.74,1.21,13.29.17,1.47-.88,3.43-2.24,4.22Z"/>
            <path class="cls-16" d="M152.94,119.04c.14-.08.28-.1.38-.02.2.13.19.53-.02.87-.46.74-1.68,2.94-1.79,4.1s.91,10.42,1.62,16.36c.01.17-.04.37-.12.55-.1.19-.25.35-.4.43l-12.58,7.26c-.29.17-.53.03-.53-.3,0-.33.24-.74.53-.91l9.42-5.44c1.36-.78,2.41-2.75,2.24-4.22-.52-4.55-1.33-12.06-1.21-13.29.17-1.83,1.91-4.71,2.11-5.02.1-.17.22-.29.35-.37Z"/>
          </g>
          <g class="cls-36">
            <path class="cls-21" d="M154.11,158.99l-1.39-.81c-.06-.03-.09-.1-.1-.19l1.39.81c0,.09.04.16.1.19Z"/>
            <path class="cls-21" d="M139.75,167.3l-1.39-.81c-.08-.04-.12-.15-.09-.3l1.39.81c-.02.15.02.25.09.3Z"/>
            <polygon class="cls-21" points="154.01 158.81 152.62 158 151.53 141.77 152.92 142.57 154.01 158.81"/>
            <path class="cls-21" d="M152.1,140.74l1.39.81c-.06-.04-.15-.03-.25.02l-1.39-.81c.1-.06.19-.06.25-.02Z"/>
            <polygon class="cls-21" points="142.45 147.81 141.06 147 151.85 140.77 153.24 141.57 142.45 147.81"/>
            <polygon class="cls-21" points="139.66 167 138.27 166.2 140.71 147.55 142.1 148.36 139.66 167"/>
            <path class="cls-21" d="M142.1,148.36l-1.39-.81c.04-.22.17-.45.35-.55l1.39.81c-.18.1-.31.33-.35.55Z"/>
            <path class="cls-24" d="M153.24,141.57c.19-.11.34-.02.35.17l1.1,16.6c.03.22-.12.49-.31.61-.2.12-.37.04-.38-.16l-1.09-16.23-10.18,5.88-2.4,18.29c-.02.2-.17.43-.34.53l-.06.04c-.19.07-.31-.06-.28-.3l2.44-18.65c.04-.22.17-.45.35-.55l10.79-6.23Z"/>
          </g>
        </g>
        <path class="cls-21" d="M143.92,143.51c-.49,2.53-15.24-3.51-15.81-5.92-.55-2.41,1.23-8.26,1.49-10.47.32-2.64-.7-5.66-.4-8.26.28-2.3,2.36-4.02,4.64-3.77.09.02.21.04.32.06.15.04.3.06.45.11.72.17,1.45.45,2.23.79.64.3,1.43.68,2.28,1.13.19.09.36.19.55.3,2.34,1.26,4.85,2.92,5.38,4.36.77,2.06-1.4,10.24-1.6,12.43-.19,2.21.96,6.74.47,9.24Z"/>
        <path class="cls-24" d="M139.67,117.48c-.92,1.72-2.79,4.41-5.43,5,0,0-1.87-5.02-.4-7.4.09.02.21.04.32.06.15.04.3.06.45.11.72.17,1.45.45,2.23.79.64.3,1.43.68,2.28,1.13.19.09.36.19.55.3Z"/>
        <path class="cls-4" d="M139.12,117.18c-.66,1.3-2.23,3.85-4.53,4.36,0,0-1.72-4.62.02-6.28.72.17,1.45.45,2.23.79.64.3,1.43.68,2.28,1.13Z"/>
        <polygon class="cls-4" points="138.58 114.9 138.88 117.29 136.1 117.02 136.86 115.25 138.58 114.9"/>
        <polygon class="cls-10" points="90.41 142.7 92.58 141.45 92.58 164.85 90.41 166.1 90.41 142.7"/>
        <polygon class="cls-33" points="139.49 168.57 88.23 138.98 111.41 125.6 162.67 155.19 139.49 168.57"/>
        <path class="cls-27" d="M129.16,119.69c-.02.08-.02.15-.02.23v-.25l.02.02Z"/>
        <g>
          <polygon class="cls-7" points="139.49 168.57 88.23 138.98 88.23 141.45 139.49 171.04 139.49 168.57"/>
          <polygon class="cls-7" points="139.49 171.04 124.13 162.17 124.13 185.57 139.49 194.44 139.49 171.04"/>
          <polygon class="cls-7" points="90.41 142.7 88.23 141.45 88.23 164.85 90.41 166.1 90.41 142.7"/>
        </g>
        <g>
          <polygon class="cls-10" points="162.67 155.19 139.49 168.57 139.49 171.04 162.67 157.66 162.67 155.19"/>
          <polygon class="cls-10" points="160.5 158.92 139.49 171.04 139.49 194.44 160.5 182.32 160.5 158.92"/>
          <polygon class="cls-10" points="162.67 157.66 160.5 158.92 160.5 182.32 162.67 181.06 162.67 157.66"/>
        </g>
        <g>
          <g>
            <polygon class="cls-9" points="136.88 143.63 126.74 149.48 126.74 150.05 136.88 144.2 136.88 143.63"/>
            <g>
              <polygon class="cls-21" points="126.74 149.48 113.04 141.57 123.17 135.72 136.88 143.63 126.74 149.48"/>
              <path class="cls-27" d="M129.6,127.12c-.19,1.62-1.21,5.19-1.51,7.92-1.68,1.15-3.49,2.07-4.41,2.45-1.92.79-1.89-.59-2.19-1.62-.32-1.02,6.57-6.13,7-6.74.4-.55.62-7.74.66-9.23,0,2.34.74,4.9.45,7.21Z"/>
              <path class="cls-24" d="M129.65,125.84c-.53.04-.98-.02-1.09-.25-.3-.58.64-6.73.64-6.73-.25,2.19.43,4.68.45,6.98Z"/>
              <g>
                <polygon class="cls-24" points="130.22 146.42 118.35 139.56 118.83 139.28 130.71 146.14 130.22 146.42"/>
                <polygon class="cls-24" points="129.11 147.06 117.24 140.2 117.73 139.92 129.6 146.78 129.11 147.06"/>
                <polygon class="cls-24" points="128 147.7 116.13 140.84 116.62 140.56 128.49 147.42 128 147.7"/>
                <polygon class="cls-24" points="126.89 148.34 115.02 141.48 115.51 141.2 127.38 148.06 126.89 148.34"/>
              </g>
              <path class="cls-24" d="M128.01,143.27l-4.21-2.43c-.32-.18-.28-.5.09-.71l1.54-.89c.37-.21.92-.23,1.23-.05l4.21,2.43c.32.18.28.5-.09.71l-1.54.89c-.37.21-.92.23-1.23.05Z"/>
            </g>
          </g>
          <g>
            <polygon class="cls-21" points="126.75 138.35 113.04 130.44 112.55 130.72 126.25 138.63 126.75 138.35"/>
            <polygon class="cls-9" points="126.75 150.05 126.75 138.35 126.25 138.63 126.25 150.34 126.75 150.05"/>
            <g>
              <polygon class="cls-24" points="126.25 150.34 112.55 142.42 112.55 130.72 126.25 138.63 126.25 150.34"/>
              <path class="cls-19" d="M120.32,141.06c0,.59-.41.83-.92.53-.51-.29-.92-1.01-.92-1.6s.41-.83.92-.53c.51.29.92,1.01.92,1.6Z"/>
            </g>
          </g>
        </g>
        <g>
          <path class="cls-27" d="M132.62,110.78c-.19,1.26.49,6.55,1.9,6.98,1.41.42,4.23-1.13,4.86-2.26.63-1.13,2.47-6.2,0-7.33s-6.27-.63-6.77,2.61Z"/>
          <path class="cls-20" d="M134.87,111.05c-.55-.83-2.74.43-3.42-.43s-.2-2.97.65-3c.85-.03,2.45-.3,3.3-.35.85-.05,3.71-.32,5.23.8,1.53,1.12.25,6.23-.39,7.19-.64.96-.96.48-1.97-.53s.27-2.69-.27-3.23c-.53-.55-2.61.36-3.14-.44Z"/>
        </g>
        <path class="cls-27" d="M145.14,124.49c0,.73.29,10.17-.24,11.54-.53,1.38-7.83,7.15-9.56,7.17-1.72.03-1.88-1.39-1.78-2.06.11-.67,5.68-6.11,6.61-6.66,0,0-.77-9.4,1.4-11.47,2.17-2.07,3.57.14,3.56,1.46Z"/>
        <path class="cls-24" d="M143.39,121.53c-.27-.01-2.06.3-2.68,1.52-.62,1.22-1.46,5.42-1.06,6.84.4,1.42,5.06,1.18,5.84,0,.79-1.18,1.84-8.18-2.1-8.36Z"/>
        <path class="cls-27" d="M133.72,140.86c-.07.1-2.37.51-2.28.67.09.16,1.29-.11,1.29.24s-3.37.65-3.24.95,3-.31,3.04,0c.04.31-3.16.57-2.93.92.22.35,2.84-.46,2.89-.24.04.23-2.2.87-2.06,1.14.13.27,2.53-.82,2.51-.58-.02.24-1.18.76-.98.96s3.95-1.84,3.95-1.84l-2.18-2.22Z"/>
      </g>
      <g>
        <path class="cls-7" d="M23.02,140.13s-.47,2.25,0,2.98c.47.73,2.4,0,2.83.34s3.32.97,3.9.34-.97-1.8-1.74-1.95-2.06-2.04-2.06-2.04l-2.94.32Z"/>
        <path class="cls-7" d="M16.51,144.42s-.24,2.54,0,3.25c.24.71,1.93,0,2.37.54.44.54,3.8,1.42,4.2.68.41-.75-2.01-2.21-2.48-2.39-.47-.18-.84-2.09-.84-2.09h-3.26Z"/>
        <path class="cls-2" d="M25.6,113.96s1.44,14.16,1.48,15.6c.03,1.43-.35,9.37-.74,10.34-.39.97-2.72,1.53-3.41.87-.69-.66-2.32-24-2.32-24l4.99-2.81Z"/>
        <path class="cls-5" d="M15.17,117.54s-.48,10.81.68,13.05-.07,13.49.32,14.27c.39.78,3.51.39,3.93.09s3.57-26.94,1.47-28.72c-2.1-1.78-6.4,1.31-6.4,1.31Z"/>
        <path class="cls-1" d="M15.59,112.46c-.05,2.17-1.08,5.13-.21,6.37.87,1.24,10.86-2.01,10.78-4.81-.08-2.8-.48-5.97,0-8.03.5-2.04,0-7.39-.48-8.63-.11-.29-.42-.5-.84-.61-.27-.08-.6-.13-.93-.14-.66-.05-1.38.03-2.01.14-.24.03-.45.08-.64.14-.53.16-1.72.55-2.99,1.05-.34.13-.68.27-1.01.43-.29.11-.56.24-.82.39-1.26.61-2.29,1.3-2.51,2-.53,1.67,1.74,9.54,1.67,11.7Z"/>
        <path class="cls-3" d="M24.53,104.07c-.14-.9-3.92,1.02-4.43,1.32-.51.29-4.17,12.85-5.22,13.72-1.05.87,0,5.58,0,5.58l11.84-4.42s-.59-6.89-.68-8.63-1.28-6.11-1.51-7.58Z"/>
        <g>
          <g>
            <g>
              <polygon class="cls-8" points="40.08 132.41 40.87 131.96 40.87 109.75 40.08 110.21 40.08 132.41"/>
              <polygon class="cls-30" points="40.08 132.41 39.29 131.96 39.29 109.75 40.08 110.21 40.08 132.41"/>
            </g>
            <polygon class="cls-30" points="52.74 140.62 51.94 140.16 51.94 117.96 52.74 118.41 52.74 140.62"/>
            <polygon class="cls-8" points="6.23 152.86 7.02 152.4 7.02 130.2 6.23 130.66 6.23 152.86"/>
            <polygon class="cls-14" points="18.88 137.06 53.53 117.05 40.08 109.29 5.43 129.3 18.88 137.06"/>
            <g>
              <polygon class="cls-8" points="18.88 137.06 53.53 117.05 53.53 117.96 18.88 137.96 18.88 137.06"/>
              <polygon class="cls-8" points="52.74 140.62 53.53 140.16 53.53 117.96 52.74 118.41 52.74 140.62"/>
              <polygon class="cls-8" points="18.88 160.17 19.67 159.71 19.67 137.5 18.88 137.96 18.88 160.17"/>
            </g>
            <g>
              <polygon class="cls-30" points="18.88 137.06 5.43 129.3 5.43 130.2 18.88 137.96 18.88 137.06"/>
              <polygon class="cls-30" points="6.23 152.86 5.43 152.4 5.43 130.2 6.23 130.66 6.23 152.86"/>
              <polygon class="cls-30" points="18.88 160.17 18.09 159.71 18.09 137.5 18.88 137.96 18.88 160.17"/>
            </g>
          </g>
          <g>
            <g>
              <polygon class="cls-31" points="13.53 131.37 45.43 112.95 41.2 110.51 9.3 128.93 13.53 131.37"/>
              <polygon class="cls-18" points="13.53 131.37 45.43 112.95 45.43 113.84 13.53 132.26 13.53 131.37"/>
              <polygon class="cls-28" points="9.3 128.92 13.53 131.37 13.53 132.26 9.3 129.82 9.3 128.92"/>
            </g>
            <g>
              <polygon class="cls-31" points="13.53 130.15 45.43 111.73 41.2 109.29 9.3 127.71 13.53 130.15"/>
              <polygon class="cls-18" points="13.53 130.15 45.43 111.73 45.43 112.62 13.53 131.04 13.53 130.15"/>
              <polygon class="cls-28" points="9.3 127.7 13.53 130.15 13.53 131.04 9.3 128.6 9.3 127.7"/>
            </g>
          </g>
          <g>
            <g>
              <polygon class="cls-21" points="47.96 117.27 45.33 115.75 46.32 115.18 48.95 116.7 47.96 117.27"/>
              <polygon class="cls-9" points="47.96 117.27 45.33 115.75 45.33 116.66 47.96 118.17 47.96 117.27"/>
              <polygon class="cls-24" points="48.95 116.7 47.96 117.27 47.96 118.17 48.95 117.6 48.95 116.7"/>
            </g>
            <g>
              <path class="cls-31" d="M46.87,117.19c0,.12-.05.2-.12.23l-4.25,2.45-.49-.8,4.28-2.47.03-.02c.06-.03.14-.03.23.03.18.11.33.36.33.58Z"/>
              <path class="cls-18" d="M42.58,119.67c0,.21-.15.3-.33.19-.18-.11-.33-.36-.33-.57,0-.21.15-.3.33-.19.18.11.33.36.33.57Z"/>
            </g>
          </g>
        </g>
        <path class="cls-23" d="M26.03,111.63c.34,1.03,1.11,4.09,1.61,4.39.55.34,1.79.26,2.03-.47.24-.72-1.9-6.53-2.16-7.37-.16-.56-.87-5-1.32-7.85.21,2,.27,4.43-.03,5.66-.35,1.48-.24,3.54-.13,5.63Z"/>
        <g>
          <g class="cls-36">
            <polygon class="cls-3" points="30.3 116.74 28.95 115.95 29.52 115.62 30.87 116.41 30.3 116.74"/>
            <polygon class="cls-3" points="30.41 114.88 29.07 114.1 29.4 114.29 30.75 115.07 30.41 114.88"/>
            <polygon class="cls-31" points="28.87 117.56 27.52 116.78 29.07 114.1 30.41 114.88 28.87 117.56"/>
            <polygon class="cls-31" points="25.21 120.88 23.86 120.09 24.58 119.68 25.93 120.46 25.21 120.88"/>
            <polygon class="cls-28" points="25.21 121.6 23.86 120.82 23.86 120.09 25.21 120.88 25.21 121.6"/>
            <polygon class="cls-31" points="25.93 119.26 24.58 118.48 27.52 116.78 28.87 117.56 25.93 119.26"/>
            <polygon class="cls-3" points="25.83 117.94 26.85 118.54 27.33 118.26 28.35 117.68 27.33 117.08 25.83 117.94"/>
            <polygon class="cls-28" points="25.93 120.46 24.58 119.68 24.58 118.48 25.93 119.26 25.93 120.46"/>
            <polygon class="cls-3" points="30.41 114.88 30.75 115.07 30.3 115.85 30.3 116.74 30.87 116.41 30.87 117.61 30.87 118.33 25.21 121.6 25.21 120.88 25.93 120.46 25.93 119.26 28.87 117.56 30.41 114.88"/>
          </g>
          <polygon class="cls-28" points="27.33 117.08 27.33 118.26 28.35 117.68 27.33 117.08"/>
          <g>
            <path class="cls-28" d="M25.4,116.27v2.3c0,.06.04.12.12.16.15.09.4.09.55,0,.08-.05.12-.11.12-.16v-2.3s-.78,0-.78,0Z"/>
            <path class="cls-31" d="M25.51,116.43c.15.09.4.09.55,0,.15-.09.15-.23,0-.32-.15-.09-.4-.09-.55,0-.15.09-.15.23,0,.32Z"/>
          </g>
        </g>
        <path class="cls-4" d="M18.26,97.95c.26,1.21,1.08,4.02,3.09,3.2,1.74-.72,1.08-3.07.55-4.39-.24.03-.45.08-.64.14-.53.16-1.72.55-2.99,1.05Z"/>
        <path class="cls-4" d="M18.96,95.85s-.36,2.05-.31,2.18,1.8.46,1.8.46l.53-1.59-2.03-1.05Z"/>
        <g>
          <g>
            <path class="cls-27" d="M23.54,91.81c-.03,1.04-.34,5.99-1.7,6.21-1.36.22-4.29-1.92-4.8-3.7-.52-1.77.96-4.8,2.66-5.1,1.7-.3,3.89,1.2,3.84,2.59Z"/>
            <path class="cls-31" d="M21.73,92.12c.8-.51,1.68.57,2.25-.66.57-1.23-2.78-3.04-4.37-2.82-1.59.22-3.88,2.88-3.4,4.97.49,2.09,1.16,2.73,1.98,2.99.83.25,1.06-.28,1.32-1.29.26-1.01-1.23-1.46-.22-2.29s1.59-.35,2.43-.88Z"/>
          </g>
          <path class="cls-27" d="M18.68,95.01c.15.52.59.85.98.73.39-.11.57-.63.42-1.15-.15-.52-.59-.85-.98-.73s-.57.63-.42,1.15Z"/>
        </g>
        <path class="cls-23" d="M13.85,101.55c-.21.55,1.88,8.92,2.72,10.06.83,1.14,6,6.25,6.57,6.2.56-.05,1.07-1.27,1-2.12-.07-.85-4.48-5.92-5.13-6.31,0,0-.85-8.09-2.26-8.78-1.4-.68-2.65.31-2.9.96Z"/>
        <path class="cls-27" d="M23.86,115.68s1.51-.19,1.3.15-.72.09-.63.44c.09.35.77.86,1.15.81.38-.05.65-.42.68-.13.03.29-.27.32-.16.58.11.26.15.54-.03.78-.18.25-1.16.19-1.65,0-.49-.19-1.25-.57-1.42-.99-.17-.42-.03-1.39.75-1.65Z"/>
        <path class="cls-27" d="M30.39,115.52c.2-.27.74.11.85.51.11.4.05,1.59-.39,1.78-.44.19-.61,0-.59-.53.02-.54-.2-1.31.14-1.76Z"/>
        <path class="cls-3" d="M16.42,98.77c2.17,1.71,3.81,7.53,3.81,7.53l.76-.47s-1.59-5.68-3.75-7.45c-.29.11-.56.24-.82.39Z"/>
        <path class="cls-3" d="M23.18,105.03l.9.02s1.59-5.52.76-8.29c-.27-.08-.6-.13-.93-.14.92,2.7-.72,8.42-.72,8.42Z"/>
        <polygon class="cls-28" points="20.43 108 24.05 106.77 24.14 106.31 20.52 107.54 20.43 108"/>
      </g>
    </g>
  </g>
</svg>