<?xml version="1.0" encoding="UTF-8"?>
<svg id="Calque_2" data-name="Calque 2" xmlns="http://www.w3.org/2000/svg" viewBox="0 0 143.53 143.16">
  <defs>
    <style>
      .cls-1 {
        fill: #1c72b9;
        opacity: .75;
      }

      .cls-2 {
        fill: #ce2c2d;
      }

      .cls-3 {
        fill: #353535;
      }
    </style>
  </defs>
  <g id="Calque_1-2" data-name="Calque 1">
    <g>
      <path class="cls-1" d="M100.95,0H12.85C5.75,0,0,5.75,0,12.85v117.47c0,7.1,5.75,12.85,12.85,12.85h88.1c7.1,0,12.85-5.75,12.85-12.85V12.85c0-7.1-5.75-12.85-12.85-12.85Z"/>
      <path class="cls-2" d="M139.7,45.39l-10.35-10.5c-2.42-2.4-5.69-3.75-9.1-3.75s-6.68,1.35-9.1,3.75l-44.56,44.56c-1.2,1.19-2.14,2.61-2.78,4.18-.64,1.56-.97,3.24-.96,4.93v10.35c0,3.41,1.35,6.68,3.76,9.08,2.41,2.41,5.68,3.76,9.08,3.76h10.57c3.3.04,6.48-1.2,8.88-3.45l44.56-44.56c1.21-1.2,2.17-2.63,2.83-4.21.66-1.58.99-3.26.99-4.97s-.34-3.4-.99-4.97c-.66-1.58-1.62-3-2.83-4.21Z"/>
      <path class="cls-3" d="M139.71,45.37l-10.35-10.5c-2.02-1.99-4.63-3.27-7.45-3.62-2.81-.36-5.66.22-8.12,1.64V12.85c-.02-3.4-1.38-6.66-3.78-9.06-2.41-2.41-5.66-3.76-9.06-3.78H12.85c-3.4.02-6.66,1.38-9.06,3.78C1.38,6.19.02,9.45,0,12.85v117.47c.02,3.4,1.38,6.66,3.78,9.06,2.41,2.41,5.66,3.76,9.06,3.78h88.1c3.4-.02,6.66-1.38,9.06-3.78,2.41-2.41,3.77-5.66,3.78-9.06v-40.82l25.92-25.92c2.4-2.42,3.75-5.69,3.75-9.1s-1.35-6.68-3.75-9.1ZM102.78,130.31c0,.49-.19.95-.54,1.3-.34.34-.81.54-1.3.54H12.85c-.49,0-.95-.19-1.3-.54s-.54-.81-.54-1.3V12.85c0-.49.19-.95.54-1.3.34-.34.81-.54,1.3-.54h88.1c.49,0,.95.19,1.3.54.34.34.54.81.54,1.3v30.54l-36.19,36.19c-1.2,1.19-2.14,2.61-2.78,4.18-.64,1.56-.97,3.24-.96,4.93v10.35c0,3.41,1.35,6.68,3.76,9.08,2.41,2.41,5.68,3.76,9.08,3.76h10.57c3.32,0,6.5-1.29,8.88-3.6l7.34-7.34.29,29.37ZM132.15,55.8l-44.56,44.56c-.17.19-.37.33-.6.44-.23.1-.47.15-.72.15h-10.57c-.49,0-.95-.19-1.3-.54-.34-.34-.54-.81-.54-1.3v-10.43c-.01-.24.03-.49.12-.71.09-.23.22-.43.4-.61l44.56-44.56c.17-.19.37-.33.6-.44.23-.1.47-.15.72-.15.49,0,.96.18,1.32.51l10.35,10.35c.19.17.34.38.44.62.1.23.16.49.16.74s-.05.51-.16.74c-.1.23-.25.44-.44.62h.22ZM62.4,115.63c-.02,1.45-.61,2.84-1.63,3.87-1.03,1.03-2.42,1.61-3.87,1.63h-29.37c-1.46,0-2.86-.58-3.89-1.61-1.03-1.03-1.61-2.43-1.61-3.89s.58-2.86,1.61-3.89c1.03-1.03,2.43-1.61,3.89-1.61h29.37c1.45.02,2.84.61,3.87,1.63,1.03,1.03,1.61,2.42,1.63,3.87ZM62.4,71.58c-.02,1.45-.61,2.84-1.63,3.87-1.03,1.03-2.42,1.61-3.87,1.63h-29.37c-1.46,0-2.86-.58-3.89-1.61-1.03-1.03-1.61-2.43-1.61-3.89s.58-2.86,1.61-3.89c1.03-1.03,2.43-1.61,3.89-1.61h29.37c1.45.02,2.84.61,3.87,1.63,1.03,1.03,1.61,2.42,1.63,3.87ZM22.03,49.56c.02-1.45.61-2.84,1.63-3.87,1.03-1.03,2.42-1.61,3.87-1.63h58.73c1.46,0,2.86.58,3.89,1.61,1.03,1.03,1.61,2.43,1.61,3.89s-.58,2.86-1.61,3.89c-1.03,1.03-2.43,1.61-3.89,1.61H27.53c-1.45-.02-2.84-.61-3.87-1.63-1.03-1.03-1.61-2.42-1.63-3.87ZM22.03,27.53c.02-1.45.61-2.84,1.63-3.87s2.42-1.61,3.87-1.63h58.73c1.46,0,2.86.58,3.89,1.61,1.03,1.03,1.61,2.43,1.61,3.89s-.58,2.86-1.61,3.89c-1.03,1.03-2.43,1.61-3.89,1.61H27.53c-1.45-.02-2.84-.61-3.87-1.63-1.03-1.03-1.61-2.42-1.63-3.87Z"/>
    </g>
  </g>
</svg>