<?xml version="1.0" encoding="UTF-8"?>
<svg id="Calque_2" data-name="Calque 2" xmlns="http://www.w3.org/2000/svg" viewBox="0 0 78.65 71.86">
  <defs>
    <style>
      .cls-1 {
        opacity: .25;
      }
    </style>
  </defs>
  <g id="laurel_wreath" data-name="laurel wreath">
    <g class="cls-1">
      <path d="M22.14,53.13c-.18-.26-.33-.48-.44-.62-.06-.07-.1-.13-.13-.17-.03-.04-.04-.06-.04-.06,0,0-.05.09-.13.25-.07.16-.17.38-.28.66-.21.56-.43,1.34-.49,2.21-.04.44,0,.87.09,1.31.09.44.24.88.46,1.29.06.1.12.2.18.31.07.1.15.19.22.28.16.18.34.35.54.51.4.32.88.58,1.45.77.72-.62.88-1.41.76-2.24-.06-.41-.19-.83-.37-1.24-.04-.1-.09-.2-.14-.31-.04-.1-.09-.21-.13-.31-.1-.21-.2-.41-.3-.61-.21-.4-.45-.77-.67-1.11-.2-.35-.4-.67-.58-.93Z"/>
      <path d="M18.95,51.44l-.07-.31c-.1-.41-.22-.8-.35-1.15-.06-.17-.13-.34-.19-.5-.05-.16-.1-.31-.15-.45-.2-.55-.36-.9-.36-.9,0,0-.27.3-.61.81-.17.25-.36.56-.54.9-.18.34-.36.73-.47,1.13-.11.4-.19.82-.22,1.26-.01.22-.01.43,0,.65,0,.11.02.22.04.33.02.1.05.21.09.31.14.41.35.81.65,1.18.15.18.32.36.53.51.21.15.45.29.71.41.83-.5,1.13-1.23,1.18-2.01.04-.4.02-.82-.05-1.24-.03-.21-.08-.41-.13-.62-.03-.1-.05-.2-.08-.3Z"/>
      <path d="M12.95,50.44c.16.17.35.34.56.49.9-.35,1.38-1,1.62-1.74.06-.18.11-.38.16-.57.04-.2.08-.4.1-.6.05-.41.04-.81.03-1.2,0-.4,0-.79-.04-1.15-.03-.36-.09-.67-.1-.96-.05-.56-.13-.92-.13-.92,0,0-.33.25-.77.69-.23.22-.48.48-.73.78-.13.15-.26.31-.37.48-.12.17-.23.34-.33.52-.21.36-.39.76-.52,1.16-.07.2-.12.41-.16.62-.02.21-.03.41-.02.62.02.41.12.83.32,1.22.09.2.23.38.39.55Z"/>
      <path d="M9.61,45.25c.11.19.25.37.41.55.95-.2,1.56-.75,1.97-1.41.05-.08.1-.17.15-.25.05-.09.1-.18.14-.27.09-.18.17-.37.24-.56.14-.38.24-.77.31-1.16.09-.39.17-.77.21-1.12.03-.18.04-.34.06-.5.01-.16.02-.31.04-.45.07-.56.08-.92.08-.92,0,0-.37.2-.89.57-.26.18-.56.4-.87.66-.31.26-.6.55-.89.87-.28.32-.55.67-.77,1.05-.11.19-.21.38-.29.57-.07.19-.13.39-.17.59-.08.4-.08.8,0,1.2.04.2.13.39.24.58Z"/>
      <path d="M10.38,38.89c.26-.29.51-.63.72-.99.21-.35.38-.73.53-1.09.31-.74.55-1.46.68-2,.16-.54.23-.91.23-.91,0,0-.39.16-.95.46-.28.15-.61.34-.94.55-.33.22-.67.47-1,.75-.66.56-1.3,1.24-1.59,1.98-.16.37-.24.76-.24,1.16.01.39.15.79.38,1.17.94-.06,1.65-.5,2.18-1.09Z"/>
      <path d="M9.14,33.87c.15-.13.3-.27.44-.42.14-.15.28-.31.41-.47.26-.33.49-.68.69-1.02.1-.17.19-.34.28-.52.09-.18.18-.35.26-.52.16-.34.29-.65.39-.92.2-.54.32-.9.32-.9,0,0-.4.13-.97.4-.57.26-1.32.65-2.04,1.15-.36.25-.71.53-1.03.83-.31.3-.58.62-.79.96-.21.34-.36.71-.42,1.09-.04.38,0,.77.16,1.17.91.04,1.67-.3,2.28-.82Z"/>
      <path d="M6.45,29.05c.87.11,1.64-.17,2.29-.64.33-.23.63-.51.9-.82.29-.3.54-.62.77-.94.23-.32.42-.65.62-.95.19-.3.35-.57.48-.81.13-.24.23-.44.3-.58.07-.14.11-.22.11-.22,0,0-.1.02-.27.07-.18.04-.41.12-.7.22-.57.2-1.34.5-2.09.92-.19.1-.37.22-.56.33-.18.12-.35.25-.51.38-.33.27-.62.56-.86.88-.49.63-.69,1.37-.49,2.16Z"/>
      <path d="M9.38,22.45c.66-.39,1.31-.93,1.83-1.47.13-.14.25-.27.37-.41.13-.13.25-.26.36-.38.22-.25.42-.49.57-.69.15-.2.29-.37.38-.48.09-.12.14-.18.14-.18,0,0-.39.03-.98.14-.59.11-1.35.3-2.13.61-.39.15-.78.34-1.14.55-.35.22-.67.47-.94.75-.14.14-.26.29-.37.44-.11.15-.2.31-.26.48-.12.34-.17.7-.11,1.08.83.16,1.6-.05,2.27-.44Z"/>
      <path d="M14.76,14.35c-.29,0-.64.03-1.01.06-.38.04-.76.1-1.16.19-.4.09-.81.2-1.2.35-.2.07-.39.15-.58.25-.18.09-.35.2-.5.31-.63.45-1.13,1.03-1.16,1.77.75.27,1.52.17,2.23-.08.75-.25,1.45-.66,2.07-1.09.66-.41,1.19-.86,1.6-1.19.42-.33.67-.55.67-.55,0,0-.38-.02-.96,0Z"/>
      <path d="M18.49,10.03c-.57-.05-1.35-.08-2.14-.01-.8.07-1.66.23-2.39.56-.69.34-1.29.82-1.53,1.5.32.18.66.28,1.02.32.37.04.75.01,1.13-.05.38-.07.76-.17,1.14-.31.37-.13.73-.29,1.1-.45.73-.32,1.34-.69,1.82-.97.48-.27.78-.47.78-.47,0,0-.36-.06-.93-.11Z"/>
      <path d="M17.94,6.04c-.68.32-1.27.79-1.51,1.45,1.19.72,2.89.18,4.25-.49.7-.34,1.34-.71,1.79-1,.46-.29.74-.5.74-.5,0,0-1.39-.19-2.96-.02-.78.08-1.63.25-2.31.57Z"/>
      <path d="M55.07,59.87c.57-.19,1.05-.46,1.45-.78.2-.16.38-.33.54-.51.08-.09.16-.18.22-.28.07-.1.12-.2.18-.31.22-.41.37-.85.46-1.29.08-.44.14-.87.09-1.31-.06-.87-.28-1.65-.49-2.21-.11-.28-.21-.51-.28-.67-.08-.16-.13-.25-.13-.25,0,0-.01.02-.04.06-.03.04-.07.1-.13.17-.11.15-.27.36-.44.62-.18.26-.38.58-.58.93-.23.34-.46.71-.67,1.11-.11.2-.21.4-.3.61-.05.1-.09.21-.14.31-.05.1-.1.2-.14.31-.18.41-.31.83-.37,1.24-.12.82.04,1.62.76,2.24Z"/>
      <path d="M61.43,48.95c-.34-.5-.61-.81-.61-.81,0,0-.17.34-.36.9-.05.14-.1.29-.15.45-.06.16-.13.32-.19.5-.13.35-.25.74-.35,1.15l-.07.31c-.03.1-.06.2-.08.3-.05.2-.09.41-.13.62-.07.41-.09.83-.05,1.24.06.79.36,1.51,1.18,2.01.26-.12.49-.26.71-.41.21-.15.37-.33.53-.51.3-.36.52-.76.65-1.18.03-.1.06-.21.09-.31.02-.11.03-.22.04-.33.02-.22.02-.44.01-.65-.02-.43-.1-.86-.22-1.26-.11-.39-.29-.79-.47-1.13-.18-.34-.37-.65-.54-.9Z"/>
      <path d="M65.71,46.26c-.11-.18-.22-.36-.33-.52-.11-.17-.25-.33-.37-.48-.25-.3-.51-.57-.73-.78-.45-.43-.78-.69-.78-.69,0,0-.07.36-.13.92-.01.29-.07.6-.1.96-.03.36-.05.74-.04,1.15-.01.39-.02.8.03,1.2.02.2.06.4.1.6.05.2.1.39.16.57.24.73.72,1.38,1.62,1.74.22-.15.4-.32.57-.49.16-.17.3-.36.39-.55.19-.39.29-.8.32-1.22.01-.21,0-.41-.02-.62-.04-.21-.09-.42-.16-.62-.13-.41-.31-.8-.52-1.16Z"/>
      <path d="M66.66,44.39c.41.66,1.02,1.21,1.97,1.41.17-.18.3-.36.41-.55.11-.19.2-.38.24-.58.09-.4.08-.81,0-1.2-.04-.2-.09-.4-.16-.59-.08-.19-.18-.39-.29-.57-.22-.37-.48-.72-.77-1.04-.29-.32-.57-.61-.89-.87-.31-.26-.61-.48-.87-.66-.52-.36-.89-.57-.89-.57,0,0,0,.36.07.92.02.14.03.29.05.45.02.16.03.33.06.5.05.35.12.73.21,1.12.07.38.17.77.31,1.16.07.19.15.38.24.56.05.09.09.18.14.27.05.09.09.17.14.26Z"/>
      <path d="M70.84,38.81c0-.39-.09-.78-.24-1.15-.29-.74-.93-1.43-1.59-1.98-.33-.28-.68-.53-1-.75-.33-.22-.66-.4-.94-.56-.56-.3-.95-.46-.95-.46,0,0,.07.36.23.91.13.54.36,1.26.68,2,.14.37.32.74.53,1.09.21.35.46.69.72.99.53.59,1.24,1.03,2.18,1.09.23-.39.37-.78.38-1.17Z"/>
      <path d="M71.96,33.52c-.05-.38-.21-.74-.42-1.09-.21-.34-.48-.67-.79-.96-.31-.3-.67-.58-1.03-.83-.72-.5-1.47-.89-2.04-1.15-.57-.26-.97-.4-.97-.4,0,0,.12.35.32.9.1.27.24.59.39.92.08.17.16.34.26.52.09.17.18.34.28.52.2.35.43.7.69,1.02.13.16.27.32.41.47.14.15.28.29.44.42.62.52,1.37.86,2.28.82.16-.4.2-.79.16-1.17Z"/>
      <path d="M71.71,26.89c-.24-.32-.54-.61-.86-.88-.16-.13-.33-.26-.51-.38-.18-.12-.37-.23-.55-.33-.75-.42-1.51-.72-2.09-.92-.29-.1-.52-.17-.7-.22-.18-.04-.27-.07-.27-.07,0,0,.04.08.11.22.07.14.16.34.29.58.13.24.29.52.48.81.2.29.38.63.62.95.23.32.49.65.78.94.28.3.57.58.9.82.65.47,1.42.75,2.29.64.2-.79,0-1.53-.49-2.16Z"/>
      <path d="M71.18,21.33c-.11-.15-.23-.3-.37-.44-.27-.28-.6-.53-.94-.75-.36-.22-.75-.4-1.14-.55-.78-.31-1.54-.51-2.13-.61-.59-.11-.99-.14-.99-.14,0,0,.05.07.14.18.09.12.23.28.38.48.16.2.35.44.57.69.11.12.23.26.36.38.12.14.24.27.37.41.52.55,1.17,1.09,1.83,1.48.68.38,1.45.6,2.28.44.06-.38.01-.74-.11-1.08-.06-.17-.15-.33-.26-.48Z"/>
      <path d="M68.35,15.5c-.16-.11-.32-.22-.51-.31-.19-.09-.38-.17-.58-.25-.39-.15-.8-.26-1.2-.35-.4-.09-.78-.15-1.16-.19-.38-.04-.72-.06-1.01-.06-.58-.02-.96,0-.96,0,0,0,.25.23.67.55.41.33.94.77,1.6,1.19.61.43,1.31.84,2.07,1.09.72.26,1.48.35,2.23.08-.02-.74-.53-1.32-1.15-1.77Z"/>
      <path d="M64.69,10.57c-.73-.32-1.59-.49-2.39-.56-.79-.07-1.58-.04-2.14.01-.56.05-.92.11-.92.11,0,0,.3.2.78.47.48.28,1.09.65,1.82.97.37.16.73.32,1.1.45.37.13.76.24,1.14.31.38.07.76.09,1.13.05.36-.04.7-.13,1.02-.32-.24-.68-.84-1.17-1.53-1.5Z"/>
      <path d="M57.97,6.99c1.36.68,3.06,1.21,4.25.49-.25-.66-.83-1.12-1.51-1.45-.68-.33-1.52-.49-2.3-.57-1.57-.16-2.97.02-2.97.02,0,0,.28.21.74.5.45.29,1.1.66,1.8,1Z"/>
      <path d="M72.86,40.69c.86.15,1.67-.08,2.41-.57.4-.25.73-.58,1.06-.94.32-.36.62-.76.89-1.17.51-.81.86-1.67,1.11-2.31.22-.64.32-1.08.32-1.08,0,0-.4.18-.99.5-.29.16-.62.35-1,.57-.37.22-.76.47-1.15.74-.77.54-1.49,1.17-2.05,1.88-.03.03-.05.07-.07.1.27-1.26.49-2.52.66-3.79.72-.03,1.35-.33,1.89-.79.16-.14.32-.3.47-.46.14-.17.27-.34.4-.53.25-.37.47-.77.66-1.18.09-.2.18-.41.26-.61.07-.2.14-.39.2-.58.12-.38.22-.73.29-1.04.15-.61.19-1.02.19-1.02,0,0-.36.2-.9.53-.54.33-1.24.81-1.9,1.38-.33.28-.65.59-.94.92-.12.14-.24.28-.35.42.06-1.07.08-2.15.04-3.22.51-.14.95-.42,1.33-.81.28-.29.53-.63.74-.99.2-.37.37-.77.5-1.17.13-.4.26-.8.33-1.19.07-.38.12-.75.15-1.06.03-.31.05-.57.06-.75,0-.18,0-.29,0-.29,0,0-.08.06-.22.16-.14.1-.34.25-.58.44-.47.38-1.09.9-1.66,1.5-.14.15-.28.31-.41.47-.14.16-.27.32-.4.49-.04.05-.06.09-.1.14-.14-1.03-.33-2.05-.58-3.06.48-.18.87-.5,1.17-.91.48-.61.7-1.44.82-2.27.03-.21.06-.41.07-.62,0-.2,0-.41,0-.6-.01-.39-.04-.76-.07-1.07-.03-.31-.08-.57-.13-.75-.04-.18-.07-.28-.07-.28,0,0-.26.26-.61.69-.35.43-.85,1.02-1.27,1.68-.21.33-.4.67-.57,1.03-.07.13-.12.26-.18.4-.42-1.17-.88-2.25-1.39-3.25.52-.23.88-.64,1.11-1.15.26-.65.3-1.48.21-2.3-.13-.8-.36-1.6-.59-2.17-.24-.57-.44-.94-.44-.94,0,0-.18.29-.42.74-.12.23-.25.5-.37.79-.12.3-.27.63-.39.98-.12.35-.23.7-.29,1.06-.03.18-.06.36-.07.54,0,.06,0,.13-.01.19-.74-1.16-1.55-2.23-2.44-3.28.25-.13.45-.29.6-.49.19-.25.3-.54.35-.87.05-.33.04-.68-.02-1.06-.06-.37-.15-.76-.3-1.12-.28-.72-.65-1.43-.97-1.93-.33-.49-.58-.81-.58-.81,0,0-.12.29-.26.74-.14.45-.29,1.06-.39,1.75-.09.68-.09,1.4.09,2.07.01.05.02.09.04.14-1.04-1.09-2.19-2.17-3.44-3.3,1.24-.7.9-2.16.21-3.49-.36-.65-.8-1.25-1.16-1.7-.35-.44-.62-.72-.62-.72,0,0-.35,1.13-.34,2.41,0,.64.11,1.31.38,1.94.06.13.12.25.19.37t0,0c-1.14-1.01-3.13-2.05-3.13-2.05,7.91,6.62,13.94,14.63,14.84,23.81.32,3.33-.08,6.66-.6,9.97-.58,3.73-1.53,7.45-3.46,10.91-2.99,5.35-6.98,9.63-12.4,12.97,0,0-8.14,4.08-16.87,4.17h0c-.21,0-.42,0-.63,0-.1,0-.2,0-.3,0h0c-8.62-.12-16.87-4.17-16.87-4.17-5.42-3.34-9.41-7.62-12.4-12.97-1.93-3.46-2.87-7.18-3.46-10.91-.52-3.31-.92-6.63-.6-9.97.9-9.18,6.94-17.19,14.84-23.81,0,0-1.99,1.04-3.13,2.05,0,0,0,0,0,0,.07-.12.14-.24.19-.37.26-.63.37-1.3.38-1.94.01-1.28-.34-2.41-.34-2.41,0,0-.26.28-.62.72-.35.44-.8,1.04-1.16,1.7-.69,1.33-1.03,2.8.21,3.5-1.25,1.13-2.4,2.21-3.44,3.3.01-.05.03-.09.04-.14.19-.67.19-1.39.09-2.07-.1-.68-.25-1.3-.39-1.75-.14-.45-.26-.74-.26-.74,0,0-.25.32-.57.81-.32.5-.69,1.21-.97,1.93-.15.36-.24.74-.3,1.12-.06.37-.07.73-.02,1.06.05.33.16.62.35.87.15.2.35.36.6.49-.89,1.04-1.71,2.12-2.44,3.28,0-.07-.01-.13-.01-.19-.01-.18-.04-.36-.07-.54-.07-.36-.17-.72-.29-1.06-.12-.34-.27-.68-.39-.97-.13-.3-.26-.57-.37-.79-.23-.46-.41-.74-.41-.74,0,0-.2.37-.44.94-.23.58-.46,1.37-.59,2.17-.09.81-.05,1.65.21,2.3.23.51.59.92,1.11,1.15-.51,1.01-.97,2.08-1.39,3.25-.05-.13-.11-.27-.18-.4-.17-.35-.36-.7-.57-1.03-.42-.66-.91-1.25-1.27-1.68-.35-.43-.61-.69-.61-.69,0,0-.02.1-.07.28-.04.18-.1.44-.13.75-.03.31-.06.68-.07,1.07,0,.2,0,.4,0,.6.01.21.04.41.07.62.12.83.35,1.65.82,2.27.31.42.69.73,1.17.91-.25,1.01-.44,2.03-.58,3.06-.03-.05-.06-.09-.1-.14-.12-.17-.26-.33-.4-.49-.13-.16-.27-.32-.41-.47-.57-.6-1.18-1.13-1.66-1.5-.24-.19-.44-.34-.58-.44-.14-.1-.22-.16-.22-.16,0,0,0,.11,0,.29.01.18.03.44.06.75.03.31.08.68.15,1.06.06.39.19.79.32,1.19.14.4.31.8.51,1.17.21.37.46.71.74.99.38.38.82.66,1.33.81-.04,1.07-.02,2.15.04,3.22-.11-.14-.22-.28-.35-.42-.29-.33-.61-.63-.94-.92-.66-.57-1.36-1.04-1.9-1.38-.54-.34-.9-.53-.9-.53,0,0,.04.42.19,1.02.07.3.17.66.29,1.03.06.19.13.38.2.58.08.2.17.41.26.61.19.41.41.81.66,1.18.12.18.26.36.4.53.15.17.31.32.47.46.54.47,1.18.76,1.89.79.17,1.27.39,2.54.66,3.79-.02-.03-.05-.07-.07-.1-.56-.7-1.28-1.33-2.05-1.88-.38-.27-.78-.52-1.15-.74-.37-.22-.7-.41-1-.57-.59-.32-.99-.5-.99-.5,0,0,.1.44.32,1.08.25.65.6,1.5,1.11,2.31.27.41.56.81.89,1.17.33.36.66.68,1.06.94.74.48,1.55.72,2.41.57.04.16.08.32.12.48.3,1.12.66,2.23,1.09,3.32-.08-.08-.16-.16-.25-.25-.18-.16-.37-.32-.57-.47-.2-.15-.39-.3-.6-.44-.42-.28-.86-.54-1.31-.77-.44-.24-.91-.44-1.32-.63-.41-.19-.79-.35-1.12-.48-.66-.26-1.11-.41-1.11-.41,0,0,.19.45.53,1.1.17.33.42.7.69,1.09.27.39.58.8.92,1.19.37.39.76.77,1.17,1.1.2.17.41.32.63.46.11.07.21.13.32.2.12.06.23.12.34.17.88.4,1.77.52,2.61.24.61,1.22,1.31,2.42,2.13,3.57-.13-.1-.26-.19-.4-.28-.22-.14-.46-.27-.7-.39-.23-.13-.47-.24-.71-.36-.49-.22-1.01-.42-1.52-.59-.26-.09-.51-.17-.77-.24-.25-.07-.49-.15-.72-.22-.46-.14-.89-.25-1.26-.34-.74-.18-1.23-.27-1.23-.27,0,0,.3.44.81,1.07.24.32.59.66.96,1.03.38.36.79.74,1.23,1.1.47.35.97.67,1.47.94.25.14.51.26.76.37.25.11.5.2.77.27,1.02.27,1.96.25,2.75-.2.79.99,1.63,1.99,2.52,2.96-.04-.02-.07-.03-.11-.05-.13-.05-.26-.1-.4-.15-.13-.05-.26-.1-.39-.14-.27-.09-.54-.17-.82-.24-.56-.14-1.13-.26-1.7-.35-.58-.09-1.1-.18-1.61-.24-.5-.06-.97-.11-1.37-.15-.8-.07-1.32-.09-1.32-.09,0,0,.42.4,1.11.96.17.14.36.29.56.44.2.15.44.3.68.46.48.31,1,.62,1.54.91.14.07.27.14.41.21.14.06.29.13.44.18.29.12.59.23.88.32.58.2,1.16.34,1.7.41.93.1,1.76-.02,2.41-.42.73.7,1.49,1.38,2.28,2.02-.24-.03-.48-.07-.73-.09-.6-.06-1.23-.07-1.8-.09-1.16-.04-2.28.01-3.11.07-.41.03-.75.06-.99.08-.23.02-.36.04-.36.04,0,0,.03.02.09.06.06.04.15.09.27.16.24.14.58.33,1,.56.42.22.91.47,1.45.72.56.23,1.16.46,1.78.66.31.1.62.19.93.28.16.04.31.08.47.12.16.03.32.06.48.09.64.1,1.25.15,1.82.14.78-.02,1.45-.18,1.99-.5.3.17.59.34.9.5.07.04.12.05.16.04,4.1,2.26,9.18,3.65,13.36,4.15-3.35.62-7.28,1.31-11.45,1.94l-4.51,3.83s10.14-3.38,19.6-5.53c9.46,2.15,19.6,5.53,19.6,5.53l-4.51-3.83c-4.28-.65-8.31-1.36-11.71-1.99,5.17-.59,9.52-2.11,13-4.1.04,0,.07-.01.12-.04.3-.16.6-.33.9-.5.53.32,1.21.48,1.99.5.57.02,1.18-.04,1.82-.14.16-.03.32-.05.48-.09.16-.04.31-.08.47-.12.31-.08.63-.18.94-.28.62-.2,1.22-.43,1.78-.66.54-.25,1.03-.5,1.45-.73.42-.22.76-.42,1-.56.12-.07.21-.12.27-.16.06-.04.09-.06.09-.06,0,0-.13-.01-.36-.04-.24-.02-.58-.05-.99-.08-.83-.06-1.94-.11-3.1-.07-.57.03-1.2.03-1.8.1-.24.02-.49.05-.73.09.79-.64,1.55-1.32,2.28-2.02.65.39,1.48.51,2.41.42.54-.07,1.12-.21,1.7-.4.29-.1.59-.21.88-.33.15-.06.29-.12.44-.18.14-.07.28-.14.41-.21.54-.29,1.06-.6,1.54-.91.24-.16.47-.3.68-.46.2-.16.39-.3.56-.44.68-.56,1.11-.96,1.11-.96,0,0-.52.02-1.32.09-.4.04-.87.08-1.37.15-.51.06-1.03.15-1.61.24-.57.09-1.14.21-1.7.35-.28.07-.55.15-.82.24-.13.04-.26.09-.39.14-.13.05-.27.09-.4.14-.04.01-.07.03-.11.05.89-.98,1.73-1.97,2.52-2.96.79.45,1.74.47,2.75.2.26-.07.51-.16.77-.27.25-.11.51-.23.76-.37.5-.27,1-.6,1.47-.94.44-.36.86-.73,1.24-1.1.37-.36.72-.71.96-1.03.51-.63.81-1.07.81-1.07,0,0-.49.09-1.23.27-.37.09-.8.21-1.26.34-.23.07-.47.14-.72.22-.25.08-.51.16-.77.25-.52.17-1.03.37-1.52.59-.25.11-.49.23-.71.36-.24.12-.47.25-.69.39-.14.09-.28.18-.41.28.82-1.15,1.52-2.35,2.13-3.57.85.29,1.74.16,2.61-.24.11-.05.23-.11.34-.17.11-.06.21-.13.32-.2.21-.14.42-.29.63-.46.41-.33.8-.71,1.17-1.1.34-.39.64-.8.92-1.19.26-.39.52-.76.69-1.09.34-.65.53-1.1.53-1.1,0,0-.45.15-1.11.41-.33.13-.72.29-1.12.48-.4.19-.87.4-1.32.63-.45.23-.9.49-1.31.77-.21.14-.4.29-.6.44-.2.15-.39.3-.57.47-.09.08-.17.16-.25.24.43-1.09.79-2.2,1.09-3.32.04-.16.08-.32.12-.47Z"/>
    </g>
  </g>
</svg>