<?xml version="1.0" encoding="UTF-8"?>
<svg id="Calque_2" data-name="Calque 2" xmlns="http://www.w3.org/2000/svg" viewBox="0 0 2710.58 1622.56">
  <defs>
    <style>
      .cls-1 {
        fill: #2e3552;
      }

      .cls-2 {
        fill: #95c38b;
      }

      .cls-3 {
        fill: #ed7d2b;
      }

      .cls-4 {
        fill: #2b478b;
      }

      .cls-5 {
        fill: #233862;
      }

      .cls-6 {
        fill: #82b378;
      }

      .cls-7 {
        fill: #ffb583;
      }

      .cls-8 {
        fill: #699dee;
      }

      .cls-9 {
        fill: #92beff;
      }

      .cls-10 {
        fill: #d1f2c9;
      }

      .cls-11 {
        fill: #ff9045;
      }

      .cls-12 {
        fill: #ffb07b;
      }

      .cls-13 {
        fill: #ea8e50;
      }

      .cls-14 {
        fill: #ffda9f;
      }

      .cls-15 {
        fill: #1e3d70;
      }

      .cls-16 {
        fill: #ed985f;
      }

      .cls-17 {
        fill: #efcbab;
      }

      .cls-18 {
        fill: #ffb93e;
      }

      .cls-19 {
        fill: #ea6c2d;
      }

      .cls-20 {
        fill: #2a4e96;
      }

      .cls-21 {
        fill: #ebf3fa;
      }

      .cls-22 {
        fill: #ffb27d;
      }

      .cls-23 {
        fill: #f46c0f;
      }

      .cls-24 {
        fill: #2c3a64;
      }

      .cls-25 {
        fill: #ffa412;
      }

      .cls-26 {
        fill: #a8d29f;
      }

      .cls-27 {
        fill: #f99746;
      }

      .cls-28 {
        fill: #fcecdb;
      }
    </style>
  </defs>
  <g id="_Слой_1" data-name="Слой 1">
    <g>
      <path class="cls-21" d="M167.84,1619.15s-315.41-338.65-53.34-705.28c232.52-325.3,503.62-303.07,702.52-171.06,84.71,56.22,328.96,6.93,536.84-324.08,283.49-451.4,1266.18-177.63,1087,516.87-86.71,336.09,263.89,348.3,85.25,684.26l-2358.27-.71Z"/>
      <g>
        <g>
          <g>
            <g>
              <path class="cls-26" d="M1456.25,581.13c-.09,1.76-.15,2.69-.15,2.69,0,0-.29-.9-.85-2.61-4.6-14.18-27.06-84.15-47.51-162.07-28.28-107.8-52.69-230.78-20.57-242.15,60.84-21.55,72.05,150.68,72.22,277.78.11,62.61-2.49,114.25-3.14,126.37Z"/>
              <path class="cls-26" d="M1515.78,441.17c-21.98,48.77-41.06,89.8-52,114.37-4.77,10.72-7.98,18.29-9.23,22.02,1.06-6.07,3.93-22.36,8.03-45.54v-.03c6.15-34.73,15.07-84.9,24.86-139.37,23.77-132.41,52.7-290.16,59.46-312.72,11.91-39.78,66.83-124.48,103.79-50.79,24.01,47.89-68.66,265.06-134.91,412.05Z"/>
              <path class="cls-26" d="M1520.21,510.75c-22.72,23.98-41.82,43.43-52.49,54.17-5.83,5.89-9.14,9.17-9.14,9.17,0,0,5.81-12.4,15.73-32.21,9.37-18.72,22.37-44.03,37.58-71.74,49.83-90.8,123.19-207.18,168.68-200.45,51.91,7.66-78,154.13-160.37,241.06Z"/>
              <path class="cls-6" d="M1456.25,581.13c-.32.02-.65.05-1,.08-4.6-14.18-27.06-84.15-47.51-162.07,9.53,14.28,26.78,33.44,51.65,35.63.11,62.61-2.49,114.25-3.14,126.37Z"/>
              <path class="cls-6" d="M1515.78,441.17c-21.98,48.77-41.06,89.8-52,114.37-.83-6.86-1.2-14.81-1.2-23.51v-.03c6.15-34.73,15.07-84.9,24.86-139.37,3.83,19.02,11.79,40.09,28.34,48.54Z"/>
              <path class="cls-6" d="M1520.21,510.75c-22.72,23.98-41.82,43.43-52.49,54.17,1.03-6.18,3.43-14.19,6.59-23.04,9.37-18.72,22.37-44.03,37.58-71.74.35,11.61,2,28.92,8.32,40.6Z"/>
            </g>
            <path class="cls-26" d="M1454.53,577.6c-.3,1.7-.46,2.6-.46,2.6-.23-.12-.08-1,.46-2.6Z"/>
            <path class="cls-3" d="M1485.04,752.67c-38.11,107.98-85.58,225.73-85.58,225.73l-107.22-32.13s12.55-79.98,30.98-168.97c21.49-103.76,33.76-208.46,77.85-235.7,12.13-7.5,25.24-10.97,38.05-11.92,6.47-.49,12.9-.27,19.19.56,1.5.2,2.97.43,4.46.68,3.72.67,7.38,1.53,10.94,2.6,1.4.39,2.78.83,4.14,1.32,4.75,1.61,9.34,3.55,13.71,5.77,18.56,9.44,33.52,23.64,39.37,38.99,17.61,46.15-17.09,91.48-45.9,173.07Z"/>
          </g>
          <g>
            <path class="cls-18" d="M1432.65,884.96c-28.17,85.45-36.54,179.22-24.97,279.27,1.93,16.69,11.23,31.18,24.66,40.07,6.02,3.98,12.85,6.83,20.24,8.28,16.55-.09,49.2-30.17,67.87-68.56,5.13-10.56,9.21-21.74,11.61-33.11,18.72-88.8,53.38-195.73,96.38-250.38,43.97-55.89,103.2-122.69,184.64-168.64,0,0,0-.01.03-.02,7.86-4.5,192.64-139.06,192.64-139.06,18.39-19.44-3.39-41.21-3.39-41.21,0,0-17.55,15.39-71.09,46.22-53.53,30.82-147.55-5.3-147.58-5.31-26.34-11.91-57.6-10.7-83.48,5.01-39.94,24.24-93.12,62.48-143.56,117.52-56.75,61.93-98.47,132.56-123.99,209.92Z"/>
            <path class="cls-25" d="M1532.05,1110.9c18.72-88.8,53.38-195.73,96.38-250.38,43.97-55.89,103.2-122.69,184.64-168.64,0,0,0-.01.03-.02,1.42-1.03,56.51-41.66-4.55-78.45-59.76-36-303.68,232.21-288.1,530.59,5.13-10.56,9.21-21.74,11.61-33.11Z"/>
          </g>
          <g>
            <path class="cls-26" d="M1308.39,763.6c-7.72,12.13-17.19,23.86-28.37,34.87-42.35,41.72-108.84,72.66-194.41,71.85,0,0-35.93-34.25-53.35-77.83l.02-.02c-12.08-30.23-20.9-74.74-.02-107.78,13.46-21.29,30.77-31.36,48.32-36.67,29.81-9.07,60.29-4.39,73.61-17.67,13.13-13.09,31.83-24.39,52.35-30.9,3.35-1.07,6.75-2.02,10.2-2.79h.02c1.43-.34,2.84-.65,4.29-.93.03-.02.06-.02.09-.02,31.64-6.18,65.44-.12,88.95,28.09,5.45,6.54,10.4,14.44,14.61,23.94,15.06,33.85,8.59,76.77-16.3,115.85Z"/>
            <path class="cls-10" d="M1059.48,679.8s-28.24,22.17-19.59,46.7c8.65,24.53,30.97,13.2,37.95-3.79,6.98-16.99.2-51.14-18.37-42.91Z"/>
            <path class="cls-2" d="M1310.08,623.8c5.45,6.54,10.4,14.45,14.62,23.95,15.06,33.84,35.73,123.62,10.85,162.71l-33.38,30.53c-42.35,41.72-130.97,30.14-216.55,29.33,0,0-35.92-34.25-53.35-77.82h.01s105.86,41.87,205.57-45.57c45.28-39.72,64.61-85.25,72.23-123.12Z"/>
            <g>
              <path class="cls-26" d="M1148.62,579.15c-17.47-10.41-35.16,4.21-55.68,12.24-20.53,8.04-60.03,7.87-60.03,7.87,0,0,16.25-23.39,42.88-46.62,26.63-23.23,72.84,26.51,72.84,26.51Z"/>
              <path class="cls-6" d="M1148.62,579.15c-16.42-13.48-46.79-21.21-61.61-15.15-14.82,6.06-54.1,35.26-54.1,35.26,0,0,16.25-23.39,42.88-46.62,26.63-23.23,72.84,26.51,72.84,26.51Z"/>
            </g>
            <path class="cls-2" d="M1154.19,630.36c13.13-13.09,31.83-24.39,52.35-30.9-34.9,13.09-54.15,57.32-67.4,52.2-14.21-5.51-56.93-3.71-58.56-3.63,29.81-9.07,60.29-4.39,73.61-17.67Z"/>
            <path class="cls-2" d="M1221.04,595.74c-1.1.31-2.52.62-4.29.93,1.43-.34,2.84-.65,4.29-.93Z"/>
            <path class="cls-6" d="M1141.61,650.77h0c-11.19-24.73-5.14-55.41,1.9-76.79,5.61-17.02,16.36-39.99,21.65-50.9,1.12-2.31,4.47-2.07,5.27.36l2.13,6.44c2.13,6.46,1.35,13.52-2.17,19.34-10.82,17.88-32.55,59.69-22.76,94.1,1.1,3.87-4.04,11.88-6.02,7.45Z"/>
          </g>
        </g>
        <g>
          <path class="cls-4" d="M1372.01,762.25l-3.49-1.4c15.41-22.94,39.33-38.67,58.16-45.95,16.49-6.37,29.68-8.46,34.4-9.07,1.15-.15,2.28.29,3.04,1.17l2.92,3.4c1.44,1.68.44,4.37-1.76,4.69-16.85,2.41-70,12.52-93.28,47.16Z"/>
          <path class="cls-8" d="M1306.43,768.8c17.68-44.16,42.56-34.2,73.25-21.91,30.69,12.29,55.57,22.25,37.89,66.41-12.67,31.65-47.82,47.35-78.51,35.06-30.69-12.29-45.3-47.9-32.63-79.55Z"/>
          <path class="cls-9" d="M1325.05,759.67c1.11-7.92,13.85-16.25,21.76-15.14,7.92,1.11,11.6,9.95,10.49,17.87-1.11,7.91-12.01,14.72-19.93,13.61-7.91-1.11-13.43-8.42-12.33-16.34Z"/>
        </g>
        <path class="cls-28" d="M1732.51,779.92l94.79,675.25c11.76,83.75-53.27,158.54-137.84,158.54h-142.82c-72.12,0-128.26-62.62-120.42-134.31l80.22-628.13,226.07-71.35Z"/>
        <path class="cls-28" d="M1234.69,779.92s229.76,78.34,497.82,0l-78.98,835.93h-500.22l81.37-835.93Z"/>
        <path class="cls-17" d="M1234.69,779.92l94.79,676.98c11.76,83.96-53.27,158.95-137.84,158.95h-142.82c-72.12,0-128.26-62.78-120.42-134.66l67.9-701.27s33.45,6.53,114.83,6.53,123.56-6.53,123.56-6.53Z"/>
        <path class="cls-3" d="M1659.83,855.2c0-9.83-7.97-17.8-17.8-17.8s-17.8,7.97-17.8,17.8c0,6.57,3.57,12.3,8.87,15.38,7.55,59.9-4.36,108.86-34.06,138.86-27,27.27-67.96,37.38-118.45,29.23-44.39-7.16-73.6-56.28-90.29-96.23-12-28.73-19.42-57.02-23.23-73.81,3.76-3.26,6.14-8.06,6.14-13.43,0-9.83-7.97-17.8-17.8-17.8s-17.8,7.97-17.8,17.8c0,6.63,3.63,12.4,9,15.46,9.57,43.91,45,174.26,130.73,188.09,12.48,2.01,24.46,3.01,35.92,3.01,41.11,0,75.34-12.88,100.22-38.01,34.06-34.39,48-88.98,39.89-154.86,3.93-3.26,6.43-8.19,6.43-13.7Z"/>
      </g>
      <g>
        <g>
          <path class="cls-3" d="M1962.32,1034.76c12.04,4,25.06,6.75,38.84,8.05,52.23,4.93,114.96-10.96,173.06-59.21,0,0,5.49-43.46-6.88-82.98h-.02c-8.59-27.42-27.36-62.79-60.07-73.75-21.07-7.06-38.54-4.3-53.5,1.84-25.45,10.41-43.69,30.6-60.21,28.94-16.28-1.63-35.37,1.05-53.04,8.04-2.89,1.14-5.75,2.38-8.54,3.77h0c-1.17.57-2.31,1.15-3.45,1.76-.03,0-.05.02-.07.04-25.09,13.41-44.84,36.39-45.2,68.79-.09,7.51.93,15.68,3.35,24.52,8.56,31.55,36.92,57.31,75.73,70.17Z"/>
          <path class="cls-7" d="M2085.9,838.69s31.68-.57,39.43,21.03c7.75,21.6-13.83,26.29-28.08,18.56-14.25-7.73-28.64-34.88-11.35-39.59Z"/>
          <path class="cls-19" d="M1883.24,940.06c-.08,7.51.94,15.69,3.35,24.53,8.56,31.55,44.46,104.49,83.27,117.37,0,0,76.98,35.36,120.99,18.91,49.14-18.37,79.39-57.2,83.37-117.27,0,0,5.49-43.45-6.88-82.98h-.01s-49.08,87.66-166.04,83.42c-53.12-1.93-91.72-22.31-118.05-43.97Z"/>
          <g>
            <path class="cls-26" d="M1968.82,819.51c6.15-16.86,26.4-16.71,44.91-22.66,18.53-5.95,45.46-28.08,45.46-28.08,0,0-24.15-6.94-55.32-8-31.17-1.05-35.05,58.74-35.05,58.74Z"/>
            <path class="cls-6" d="M1968.82,819.51c3.72-18.38,20.19-40.6,33.71-44.71,13.52-4.11,56.66-6.03,56.66-6.03,0,0-24.15-6.94-55.32-8-31.17-1.05-35.05,58.74-35.05,58.74Z"/>
          </g>
          <path class="cls-19" d="M1993.55,857.65c-16.28-1.63-35.37,1.05-53.04,8.04,31.17-10.5,69,9.03,75.21-1.86,6.65-11.69,36.88-34.27,38.04-35.13-25.45,10.41-43.69,30.6-60.21,28.94Z"/>
          <path class="cls-2" d="M1928.51,871.23c.93-.4,2.07-.98,3.45-1.75-1.17.56-2.31,1.14-3.45,1.75Z"/>
          <path class="cls-6" d="M2013.53,864.61h0c-6.13-23.16-27.37-40.78-44.1-51.48-13.32-8.51-33.48-18.24-43.18-22.76-2.05-.96-4.21,1.07-3.41,3.18l2.14,5.6c2.14,5.61,6.61,10,12.26,12.02,17.37,6.21,55.54,22.69,68.02,51.69,1.4,3.26,9.38,5.88,8.27,1.74Z"/>
        </g>
        <path class="cls-5" d="M1881.02,1555.16s-23.28,17.45-58.96,8.23c0,0-28.77-6.55-35.08,7.79,0,0,44.12,22.41,55.28,28.54,8.41,4.62,17.2,11.91,23.4,17.55,4.91,4.46,12.57,3.86,16.75-1.29,1.94-2.39,4.16-5.23,6.6-8.53,6.8-9.22,22.65-39,22.65-39l-30.65-13.29Z"/>
        <path class="cls-4" d="M1867.35,1546.3s14.18,32.69,46.91,26.68c0,0,66.78-55.15,112.59-112.45,14.88-18.61,27.54-37.44,34.99-54.68,30.38-70.33,112.37-175.23,164.5-228.4l-130.42-47.18s-41.78,84.04-97.36,187.26c-40.06,74.37-87.28,158.71-131.2,228.76Z"/>
        <path class="cls-5" d="M1998.55,1317.54l28.3,143c14.88-18.61,27.54-37.44,34.99-54.68,30.38-70.33,112.37-175.23,164.5-228.4l-130.42-47.18s-41.78,84.04-97.36,187.26Z"/>
        <path class="cls-5" d="M2105.16,1574.13s1.42,26.09-30.2,29.57c0,0-18.07.1-18.12,16.7l91.91.29s2.67-6.7,3.32-21.04c.5-11.02-10.68-39.81-10.68-39.81l-36.23,14.3Z"/>
        <path class="cls-4" d="M2138.69,1130.28s-58.1,63.84-94.99,178.87c-20.07,62.58,36.78,219.93,47.86,274.59,0,0,38.14,3.24,64.21-6.84,0,0,1.98-112.91-13.27-199.94-8.53-48.71,76.5-104.17,113.66-192.17,25.28-59.87-5.47-58.85-43.27-60.29l-74.21,5.79Z"/>
        <path class="cls-12" d="M2205.76,845.44c32.33,18.25,98.51,1.42,98.51,1.42,0,0-26.88-30.73-14.66-80.21l-25.38,12.89-27.26,13.85s-1.76,8.74-2.99,24.44c-.31,4.04-.59,8.56-.79,13.49-16.6,5.03-27.42,14.13-27.42,14.13Z"/>
        <path class="cls-20" d="M2087.22,1126.98c0,5.68,6.55,8.4,7.94,8.68,13.04,2.38,49.44,16.54,82.24,19.79,27.62,2.89,53.25.15,81.42-5.51,3.73-.75,12.49-3.11,13.11-6.68.78-3.9,108.65-219.9,24.79-312.69-1.97-2.18-18.52,1.74-33.66,5.34-13.98,3.32-26.8,1.47-38.25-3.13l-14.2,7.47c-17.43,9.71-50.42,44.23-54.28,71.31-1.96,13.77-9.83,23.97-12.11,36.09-.85,4.48-1.71,8.86-2.59,13.12-1.72,8.37-3.49,16.33-5.31,23.9-4.93,20.48-10.14,38.12-15.25,53.35-5.44,16.17-10.78,29.63-15.54,40.88-6.18,14.59-11.41,25.5-14.67,33.85-2.31,5.88-3.63,10.49-3.63,14.23Z"/>
        <path class="cls-15" d="M2090.85,1112.75c152.27-71.74,205.01-209.5,205.01-209.5,0,0-123.71,45.64-154.23,57.52-1.72,8.37-3.49,16.33-5.31,23.9-4.93,20.48-10.14,38.12-15.25,53.35-5.44,16.17-10.78,29.63-15.54,40.88-6.18,14.59-11.41,25.5-14.67,33.85Z"/>
        <g>
          <path class="cls-12" d="M1987.58,1074.84s-21.17-8.68-26.03-7.98c-4.86.69-18.32-2.67-17.55,1.74.53,3.04,17.9,6.25,17.9,6.25,0,0-19.4-4.36-17.9.17,1.03,3.12,5.15,15.55,11.57,19.61,7.68,4.86,21.57,2.51,37.86.16,29.9-4.32-5.84-19.94-5.84-19.94Z"/>
          <path class="cls-20" d="M1990.93,1089.78c-4.87-12.69-7.09-18.44-7.09-18.44,0,0,99.43-81.04,109.56-87.99,6.9-4.74,75.63-56.11,109.14-96.15,16.62-19.86,42.83-28.94,68.17-23.62l20.87,4.38c25.2,5.28,33.39,37.18,13.84,53.94-55.06,47.2-147.93,101.95-165.24,113.34-42.98,28.27-138.06,67.88-138.06,67.88,0,0-7.37-3.37-11.19-13.34Z"/>
        </g>
        <path class="cls-13" d="M2233.97,817.82c31.79,1.78,52.46-24.46,52.46-24.46,0,0-14.37-7.96-22.21-13.82l-27.26,13.85s-1.76,8.74-2.99,24.44Z"/>
        <path class="cls-12" d="M2220.43,785.18s48.17,34.57,69.23,4.24c21.06-30.33,41.47-46.29,11.61-69.64-29.86-23.35-43.94-15.97-53.43-7.56-9.49,8.41-39.39,63.19-27.4,72.96Z"/>
        <path class="cls-5" d="M2242.74,684.82c1.73-11.66,5.61-19.86,5.61-19.86,0,0,3.02,12.52,25.91,10.79,22.88-1.73,59.15,2.25,71.24,28.33.77,1.66,1.46,3.37,2.06,5.12,2.19-5.78,2.72-14.44,2.72-14.44,4.35,11.23,0,25.27,0,25.27h0c.07.41.12.82.18,1.23,5.05,4.27,9.29,17.54,9.29,17.54-1.52-3.7-5.24-6.12-8.55-7.61.1,20.29-8.13,40.13-22.57,46.03-21.12,8.63-20.95,2.05-42.19,16.14,0,0-5.7-7.07-1.81-11.82,3.89-4.75,18.57-11.66,10.36-18.57s-11.23.86-14.25-3.89c-3.02-4.75,12.09-18.57-7.34-31.52-19.43-12.95-32.38-31.09-30.65-42.74Z"/>
      </g>
      <g>
        <path class="cls-24" d="M821.88,114.33c-.08-2.29-1.85-26.91-39.37-28.2,0,0,18.45,2.2,21.63,10.31,0,0-12.56-10.02-22.79-6.8-10.23,3.22-16.24,21.14-16.3,27.04-.06,5.89,5.62,24.9,12.11,26.51,2.46.61,5.29.45,7.86,0-1.73,2.7-3.42,5.67-5.04,8.99-14.97,30.73.47,60.76,13.14,57.44,8.13-2.13,10.43,11.74,10.43,11.74l78.96-63.92s-29-60.01-60.65-43.12Z"/>
        <path class="cls-4" d="M849.37,1019.55l-16.77,6.24s-72.85-101.03-81.82-189.93c-1.6-15.87-1.07-31.25,2.4-45.45,0,0-.71-4.07-1.96-11.26-.58-3.35-1.29-7.39-2.1-12.02-2.37-13.57-5.63-32.14-9.35-53.28-8.57-48.65-19.68-110.84-28.3-156.56l4.52-1.45,48.9-15.77,10.1-32.1,36.41-9.58s8.13,15.91,15.4,91.07c1.34,9.86,2.56,20.73,3.48,32.52,2.83,35.98,3.04,80.62-3.46,131.65-1.67,13.06-3.78,26.55-6.39,40.41-1.92,10.16-2.2,24-1.4,39.9,3.67,72.67,30.34,185.6,30.34,185.6Z"/>
        <path class="cls-5" d="M830.28,621.99l-79.06,157.18c-.58-3.35-1.29-7.39-2.1-12.02-2.37-13.57-5.63-32.14-9.35-53.28-8.57-48.65-19.68-110.84-28.3-156.56l4.52-1.45,48.9-15.77,10.1-32.1,36.41-9.58s8.13,15.91,15.4,91.07c1.34,9.86,2.56,20.73,3.48,32.52Z"/>
        <path class="cls-4" d="M795.5,518.57l-1.83-15.7c-30.66,8.14-112.59-22.76-112.59-22.76,0,0-29.7,26.11-25.8,88.7,1.9,30.55,5.38,160.37,9.01,198.78,1.31,13.92,2.46,23.83,2.93,27.79,0,.02,0,.03,0,.04.14,1.21-.28,2.35-.89,3.4-5.35,9.07-9.77,18.52-13.41,28.19-35.65,94.99,5.49,211.97,5.49,211.97l10.67-4.3s23.41-130.18,42.43-187.69c3.23-9.75,6.32-17.42,9.16-22,8.27-13.35,15.94-35.16,22.91-61.1,13.17-49.04,23.76-112.84,30.82-162.08.97.04,21.08-83.24,21.08-83.24Z"/>
        <path class="cls-22" d="M1037.07,498.52c-6.6,5.84-24.12-14.21-26.53-16.88-.13-.25-.25-.38-.25-.38l5.33-14.85s22.97-.89,26.78,2.92c3.81,3.81,1.9,22.97-5.33,29.19Z"/>
        <path class="cls-22" d="M1015.62,466.41l-2.29,15.36s-1.01,0-2.79-.13c-5.58-.38-19.17-1.14-34.52-2.79-23.1-2.28-50.52-6.35-61.43-13.07-16.63-10.15-43.92-41.25-61.68-72.35-.51-.76-.89-1.52-1.27-2.28-9.27-16.5-15.74-32.87-16.25-45.95-.38-8,.51-14.85,2.16-20.81,2.16-7.87,5.71-14.09,9.39-18.78.51-.76,1.02-1.52,1.78-2.16,6.09-7.23,12.06-10.28,12.06-10.28,3.05-1.27,6.35.25,9.77,3.93v.13c2.79,2.92,5.84,7.36,8.76,12.95.13.13.25.25.25.38.63,1.14,1.27,2.41,2.03,3.81.25.25.38.64.51.89,1.4,2.92,2.79,5.96,4.19,9.14,15.61,34.01,32.24,85.54,46.07,100.9,5.96,6.6,33.25,19.55,54.96,29.19,15.61,6.85,28.3,11.93,28.3,11.93Z"/>
        <path class="cls-22" d="M854.08,328.2c-9.63,4.46-21.25,7.5-35.31,8.27-52.72,2.89-64.68-43.32-66.86-73.99,7.6-2.75,14.25-2.49,18.09-2.29,3.74.2,7.64.59,10.86.99,6.45-3.37,18.03-19.73,24.73-47.1l2.27,1.05,38.04,17.88s-4.04,12.38-7.02,24.22c-2.33,9.27-4,18.23-2.6,20.73,3,1.22,4.79,1.99,4.79,1.99,0,0,0,.01.01.04.38.97,8.65,22.04,13.01,48.21Z"/>
        <path class="cls-27" d="M867.26,362.79c-.4,1.05-.84,2.08-1.31,3.14-13.35,28.75-38.07,147.87-38.07,147.87,3.52,21.41-160.94-4.2-161.37-23.7-5.79-20.68,20.55-53.89,35.41-70.56,1.86-2.09,3.53-4.34,4.98-6.71,3.67-5.94,6-12.65,6.74-19.66,2.92-27.64,1.81-53.54,2.05-69.3h0c2.9-2.15,5.71-4.14,8.33-6.03,4-2.92,7.53-5.64,10.13-8.41,2.86-3.01,4.66-6.09,4.86-9.57.15-2.63.07-5.33-.21-8.02-.12-1.27-.29-2.55-.48-3.82-2.05-13.38-7.64-25.51-7.64-25.51,14.14-5.72,39.3-2.31,39.3-2.31,0,0-.03,1.4-.04,3.68-.08,9.19,0,32.78,2.94,37.24,3.68,5.56,71.06,29.92,74.62,22.37,3.5-7.42-6.09-42.19-6.45-43.5-.01-.03-.01-.04-.01-.04,22.57,8.86,30.63,16.29,30.63,16.29-13.6,8.82,6.09,38.65-4.42,66.55Z"/>
        <path class="cls-16" d="M845.89,233.02s-4.04,12.37-7.02,24.22c-22.23-6.2-28.99-29.58-31.02-42.1l38.04,17.88Z"/>
        <path class="cls-22" d="M850.57,246.11s-53.19-12.31-45.02-45.32c8.18-33.01,6.82-56.83,41.13-50.36,34.31,6.46,37.76,20.69,37.71,32.37-.05,11.68-19.77,65.66-33.82,63.31Z"/>
        <path class="cls-24" d="M887.39,164.06c-5.72-11.96-12.45-11.33-16.66-9.2-24.99-23.13-49.51-4.23-49.51-4.23-9.44,22.8-29.89,32.11-29.89,32.11,0,0,8.17,8.37,31.86,8.18,7.23-.06,14.51-3.38,21.13-7.96-12.77,12.86-27.74,20.69-27.74,20.69,29.65-5.67,49.53-40,51.57-43.64,2.51,3.71,7.32,11.6,7.72,18.27.55,9.06-2.57,26.66,2.62,27.32,0,0,17.48-23.59,8.9-41.54Z"/>
        <path class="cls-27" d="M871.69,296.24s12.81,22.34,14.72,28.09c0,0-16.61-.64-23.32,12.14,0,0-1.61-37.22,8.59-40.23Z"/>
        <path class="cls-3" d="M783.6,473.77c-32.44-.34-59.91-34.03-76.69-60.95,3.67-5.94,6-12.65,6.74-19.66,2.92-27.64,1.81-53.54,2.05-69.3h0c2.9-2.15,5.71-4.14,8.33-6.03,4-2.92,7.53-5.64,10.13-8.41,26.56,44.9,93.42,164.8,49.44,164.34Z"/>
        <path class="cls-5" d="M720.48,1047.71h-84.47s-2.02-12.87,2.39-22.64c4.23-9.37,10.85-13.63,9.26-24.97,5.37,5.53,14.12,11.72,26.33,10.07,1.5,2.43,9.66,15.41,14.66,19,5.52,3.97,30.13,2.55,31.83,18.54Z"/>
        <path class="cls-5" d="M901.85,1047.71h-84.47s-3.16-13.47,2.39-22.64c4.91-8.11,3.03-12.73-.61-19.44,3.83,1.57,8.78,2.99,14.23,2.68,4.21-.24,8.66-2.15,12.56-4.42,3.64,4.14,19.2,21.79,24.07,25.28,5.52,3.97,30.14,2.55,31.84,18.54Z"/>
        <g>
          <path class="cls-4" d="M986.29,444.5l-4.14-1.02c13.73-28.22,38.15-49.67,58.18-60.82,17.54-9.76,32.05-14.18,37.26-15.61,1.27-.35,2.61-.03,3.6.84l3.82,3.37c1.89,1.66,1.18,4.85-1.24,5.55-18.57,5.36-76.76,25.09-97.49,67.71Z"/>
          <path class="cls-23" d="M913.57,462.18c12.93-52.44,42.48-45.15,78.93-36.16,36.45,8.99,65.99,16.28,53.06,68.72-9.27,37.58-46.33,60.77-82.78,51.78-36.45-8.99-58.48-46.75-49.21-84.33Z"/>
          <path class="cls-11" d="M933.08,448.99c0-9.08,13.02-20.45,22.09-20.45s14.61,9.37,14.61,18.44-11.19,18.44-20.27,18.44-16.43-7.36-16.43-16.43Z"/>
        </g>
        <path class="cls-22" d="M906.21,491.42l-4.44,16.24s-5.58-1.01-14.47-2.67c-2.67-.51-4.19-.89-4.19-.89-7.11-1.4-15.61-3.3-24.88-5.33h-.13c-15.87-3.81-33.63-8.38-48.61-13.45-10.53-3.68-19.67-7.61-25.89-11.55-.63-.38-1.14-.76-1.78-1.27-14.85-10.79-32.49-42.52-46.2-76.53-1.9-4.7-3.68-9.39-5.46-13.96-6.35-17.01-11.42-33.76-14.47-48.23-1.9-8.63-3.17-16.5-3.43-22.97-.13-2.28-.25-4.44-.13-6.47.25-36.81,18.53-41.88,18.53-41.88.38-.13.76-.25,1.27-.38,3.17-.51,6.47,1.65,9.9,5.84,4.31,5.2,8.88,13.71,13.58,23.99,7.23,16.37,14.85,37.57,21.96,58.64,3.93,11.55,7.74,23.1,11.55,33.76,2.16,6.47,4.32,12.57,6.35,18.15,3.93,10.66,7.49,19.29,10.66,24.75,2.03,3.55,7.87,8.5,15.61,14.09,13.45,9.77,33.13,21.58,50.26,31.22,7.11,4.06,13.83,7.74,19.42,10.79,9.01,4.95,14.98,8.12,14.98,8.12Z"/>
        <path class="cls-27" d="M755.38,291.95c-24.43-6.74-43.28,12.34-43.28,12.34.31-36.75,18.6-41.78,18.6-41.78,7.36-3.05,15.89,9.7,24.68,29.44Z"/>
        <path class="cls-22" d="M906.21,491.42s7.97.17,12.48-2.58c4.51-2.75,17.28-6.51,23.04-5.88,0,0,2.13.88,1.38,2.88-.75,2-10.14,3.63-10.14,7.39,0,0,11.77-.38,15.28-1.88,3.51-1.5,17.02,1.95,19.66,3.51,2.63,1.56-17.15,13.47-25.92,18.28-8.77,4.81-40.21-5.47-40.21-5.47l4.44-16.24Z"/>
      </g>
      <g>
        <g>
          <path class="cls-28" d="M900.25,1616.73c-2.88,0-5.34-2.35-5.83-5.55l-28.58-187.93-41.11-270.28-11.5-75.58,29.28-.97,5.08,43.87,35.67,308.33,21.15,182.76c.33,2.84-1.63,5.35-4.16,5.35Z"/>
          <path class="cls-28" d="M600.6,1077.38l-13.03,85.66h0s-35.99,236.62-35.99,236.62l-32.18,211.52c-.48,3.2-2.95,5.55-5.82,5.55-2.54,0-4.5-2.51-4.16-5.35l27.75-239.78,29.68-256.48,4.48-38.69,29.28.97Z"/>
          <path class="cls-17" d="M587.57,1163.04c1.71-36.81-20.73-47.93-20.73-47.93l4.48-38.69,29.28.97-13.03,85.66Z"/>
          <path class="cls-17" d="M847.59,1120.29c-18.97,9.71-22.87,32.68-22.87,32.68l-11.5-75.58,29.28-.97,5.08,43.87Z"/>
        </g>
        <path class="cls-28" d="M483.94,1047.71h445.94c6.83,0,12.38,5.55,12.38,12.38v4.92c0,6.83-5.55,12.38-12.38,12.38h-445.93c-6.83,0-12.38-5.55-12.38-12.38v-4.92c0-6.83,5.55-12.38,12.38-12.38Z"/>
      </g>
      <path class="cls-6" d="M2380.91,1616.14h-108.22c-5.8-4.92,4.01-16.09,14.27-16.84,4.45-.34,10.08.6,16.52,1.96,1.49-19.78,9.99-108.7,42.05-105.13,36.04,4,0,39.16-10.19,59.98-7.55,15.42-15.51,37.53-19.15,47.96,2.93.63,5.96,1.26,9.05,1.83,4.78-14.67,22.55-64,45.15-61.13,26.54,3.37,15.87,23.15-2.94,34.89-13.8,8.63-30.75,20.91-38.8,26.84,6.82,1.11,13.94,1.86,21.17,1.7,18.54-.44,27.59,5.02,31.09,7.96Z"/>
      <path class="cls-6" d="M296.38,1616.14h108.22c5.8-4.92-4.01-16.09-14.27-16.84-4.45-.34-10.08.6-16.52,1.96-1.49-19.78-9.99-108.7-42.05-105.13-36.04,4,0,39.16,10.19,59.98,7.55,15.42,15.51,37.53,19.15,47.96-2.93.63-5.96,1.26-9.05,1.83-4.78-14.67-22.55-64-45.15-61.13-26.54,3.37-15.87,23.15,2.94,34.89,13.8,8.63,30.75,20.91,38.8,26.84-6.82,1.11-13.94,1.86-21.17,1.7-18.54-.44-27.59,5.02-31.09,7.96Z"/>
      <g>
        <path class="cls-18" d="M1294.66,1451.51c4.64,23.29,10.33,43.44,16.94,60.85,51.25,135.02,158.07,105.91,262.34,105.91,117.72,0,117.49-78.84,117.49-185.43s-65.21-191.28-182.93-191.28-234.65,105.42-213.84,209.95Z"/>
        <g>
          <path class="cls-25" d="M1763.07,1467.48c.73-107.98-77.79-194.74-182.62-223.53-106.98-29.38-195.82,42.49-195.65,147.22.17,105.21,90.85,209.41,199.36,223.41,104.95,13.54,178.2-42.07,178.92-147.1Z"/>
          <path class="cls-14" d="M1753.64,1464.88c.7-102.6-73.91-185.03-173.52-212.39-101.65-27.92-186.06,40.38-185.91,139.89.16,99.96,86.33,198.97,189.43,212.28,99.72,12.87,169.33-39.97,170-139.77Z"/>
          <g>
            <path class="cls-18" d="M1572.23,1404.79l29.15-109.72c2.17-8.16-4.19-17.79-13.04-19.71-10.8-2.34-25.66-4.86-41.45-5.4-18.28-.62-33.64.92-44.25,2.56-8.23,1.27-11.52,10.5-6.67,18.68l67.26,113.4c2.41,4.06,7.93,4.18,8.99.19Z"/>
            <path class="cls-18" d="M1597.48,1438.47l109.31,68.32c8.13,5.08,17.43,1.94,19.03-6.46,1.96-10.24,3.94-24.59,3.94-40.58,0-18.51-2.03-34.79-4.01-46.24-1.53-8.88-10.75-15.48-18.67-13.38l-109.71,29.19c-3.93,1.05-3.86,6.67.11,9.15Z"/>
            <path class="cls-18" d="M1590.74,1418.16l108.11-28.76c8.04-2.14,10.58-11.86,5.18-19.93-6.59-9.84-16.21-23.04-28.1-36.05-13.76-15.06-26.92-26.73-36.47-34.52-7.4-6.04-17.15-4.3-19.73,3.52l-35.84,108.38c-1.28,3.88,2.93,8.4,6.86,7.35Z"/>
            <path class="cls-18" d="M1580.33,1448.63l33.43,120.72c2.49,8.98,12.22,14.88,19.95,12.06,9.43-3.44,22.05-8.85,34.37-16.65,14.26-9.03,25.2-18.59,32.47-25.76,5.63-5.55,3.46-16.15-4.4-21.45l-108.87-73.47c-3.9-2.63-8.17.17-6.96,4.55Z"/>
            <path class="cls-18" d="M1553.8,1408.09l-73.04-108.16c-5.43-8.05-15.96-10.24-21.57-4.48-6.84,7.03-15.68,17.26-23.4,29.77-8.93,14.48-14.81,28.22-18.42,38.17-2.8,7.71,2.96,17.49,11.65,19.81l120.47,32.1c4.31,1.15,6.96-3.28,4.3-7.21Z"/>
            <path class="cls-18" d="M1549.46,1425.19l-118.99-20.69c-8.85-1.54-15.26,5.57-13.11,14.58,2.62,10.99,6.92,26.05,13.54,41.9,7.67,18.34,16.1,33.59,22.48,44.09,4.95,8.14,15.33,10.71,21.03,5.22l78.93-76.08c2.83-2.72.44-8.26-3.88-9.01Z"/>
            <path class="cls-18" d="M1560.15,1443.64l-64.16,87.76c-4.77,6.53-1.4,17.16,6.94,21.77,10.17,5.63,24.38,12.74,40.16,18.4,18.27,6.55,34.27,10.23,45.51,12.26,8.71,1.57,14.96-5.53,12.64-14.38l-32.07-122.69c-1.15-4.39-6.69-6.31-9.02-3.12Z"/>
          </g>
        </g>
      </g>
      <g>
        <path class="cls-24" d="M1297.97,894.27c.49-1.96-42.55,19.45-44.73,21.87-20.18,22.39-14.43,51.61-2.88,51.89,7.41.18,5.97,12.49,5.97,12.49l82.52-34.91s-9.94-57.94-40.88-51.35Z"/>
        <path class="cls-24" d="M1308.13,898.79s2.95-32.15-32.97-32.15c0,0,10.88,2.95,16.51,8.86,0,0-22.91-13.45-47.84,7.22-24.93,20.67-9.44,72.49-17.02,82.33s-37.1,11.81-33.5,43.63c3.61,31.82,93.7,71.67,87.91,98,0,0,35.3-51.9,10.06-75.58,0,0,12.31,11.59,13.56,25.37,0,0,3.34-26.9-13.78-35.5-15.15-7.61-27.55-35.46-26.24-40.44,1.31-4.98,43.3-81.73,43.3-81.73Z"/>
        <path class="cls-16" d="M1275.52,1050.03c-5.54-26.67-40.12-34.94-56.48-13.16-2.94,3.92-5.01,8.55-5.69,14.01-3.74,30.27,44.67,153.58,51.6,164.75,12.62,20.33,86.93,90.01,86.93,90.01l13.7-8.3s-52.71-89.24-60.87-97.59c-9.44-9.66-18.67-99.08-29.19-149.72Z"/>
        <path class="cls-16" d="M1346.67,1297.37s19.99-13.12,27.56-12.28c7.57.85,29.47,7.15,29.74,10.37.27,3.22-24.4,5.23-26.06,6.99-1.66,1.76-18.41,12.94-24.48,9.44-6.07-3.51-6.75-14.51-6.75-14.51Z"/>
        <path class="cls-27" d="M1207.24,1593.88l-17.86-2.62s-60.04-47.71-68.98-136.75c-.91-9.06-1.1-18.26-.43-27.53.08-1.07-.04-2.14-.62-3.04,0,0,0-.01-.02-.03-1.92-2.95-6.7-10.33-13.18-20.82-6.38-10.34-17.31-29.89-29.33-51.83-21.65-39.51-46.86-86.76-55.5-101.81-27.55-47.96-14.27-80.22-14.27-80.22,0,0,76.85-7.6,97.91-26.02l7.58,11.69s16.65,73.71,15.86,74.06c.82,2.51,1.65,5.06,2.5,7.66,13.14,40.56,28.26,91.25,36.5,132.54,4.63,23.23,7.09,43.47,5.77,57.26-.45,4.73.1,12,1.36,20.97,7.44,52.9,32.71,146.48,32.71,146.48Z"/>
        <path class="cls-5" d="M1244.7,1616.48h-74.5s-1.79-11.35,2.11-19.97c3.73-8.27,9.04-8.53.68-21.49,4.73,4.87,19.95,6.89,30.72,5.44,1.32,2.14,8.51,16.49,12.92,19.66,4.87,3.5,26.58,2.25,28.08,16.35Z"/>
        <path class="cls-3" d="M1130.91,1236.63c-6.51,35.89-21.88,95.63-54.09,114.64-21.65-39.51-46.86-86.76-55.5-101.81-27.55-47.96-14.27-80.22-14.27-80.22,0,0,76.85-7.6,97.91-26.02l7.58,11.69s16.65,73.71,15.86,74.06c.82,2.51,1.65,5.06,2.5,7.66Z"/>
        <path class="cls-20" d="M1267.55,1033.48s10.53,10.95,15.34,24.08c0,0-16.8,48.25-56.08,54.31,0,0,31.07-78.4,40.73-78.38Z"/>
        <path class="cls-27" d="M1078.66,1174.79l.25-13.93c-27.76,3.5-95.72-33.18-95.72-33.18,0,0-29.04,19.32-33.02,74.49-1.94,26.93-14.22,140.8-15.58,174.81-.5,12.32-.66,21.12-.72,24.63,0,.02,0,.03,0,.03-.02,1.07-.52,2.02-1.18,2.87-5.74,7.3-10.73,15.04-15.04,23.06-42.36,78.82-20.21,185.92-20.21,185.92l9.84-2.5s35.82-111.02,59.23-159.05c3.97-8.15,7.58-14.48,10.6-18.15,8.8-10.69,18.08-28.85,27.23-50.7,17.29-41.31,34.08-95.82,46.06-138.03.84.15,28.25-70.27,28.25-70.27Z"/>
        <path class="cls-22" d="M1241.12,1081.79c-45.38-10.42-16.39-74.19-13.76-73.07,6.29-1.28,20.1-12.32,32.45-33.89l1.67,1.45,27.88,24.44s-6.44,9.51-11.86,18.82c-4.23,7.29-7.84,14.47-7.26,16.94,2.24,1.76-17,48.1-29.11,45.32Z"/>
        <path class="cls-16" d="M1289.36,1000.73s-6.45,9.49-11.86,18.82c-17.33-10.68-17.35-32.14-16.01-43.25l27.88,24.44Z"/>
        <path class="cls-22" d="M1290.13,1012.97s-42.08-23.42-27.1-49.4c14.98-25.98,19.65-46.5,47.15-32.65,27.5,13.85,26.96,26.75,24.06,36.64-2.89,9.89-32.78,50.83-44.12,45.41Z"/>
        <path class="cls-24" d="M1341.36,952.41c-1.93-11.54-7.79-12.64-11.87-11.87-15.54-25.7-40.93-15.67-40.93-15.67-13.56,17.02-33.17,19.92-33.17,19.92,0,0,4.88,9.09,25,14.71,6.15,1.72,13.12.68,19.85-1.59-13.96,7.78-28.56,10.76-28.56,10.76,26.51,2.43,51.74-21.81,54.36-24.41,1.22,3.76,3.37,11.62,2.08,17.37-1.75,7.81-8.68,21.96-4.45,23.79,0,0,20.57-15.73,17.68-33.03Z"/>
        <path class="cls-5" d="M956.69,1616.48h-74.5s-1.79-11.35,2.11-19.97c3.73-8.27,9.57-12.02,8.17-22.02,4.73,4.87,12.45,10.33,23.22,8.88,1.32,2.14,8.52,13.59,12.93,16.76,4.87,3.5,26.58,2.25,28.08,16.35Z"/>
        <path class="cls-20" d="M1246.46,1132.35c-9.58,3.35-23.04,5.18-36.8,6.67-19.59,2.14-39.82,3.6-50.41,7.83-3.86,1.54-6.45,3.44-7.26,5.88-4.59,13.81-24.83,35.12-24.83,35.12-129.73-5.9-143.97-60.17-143.97-60.17,87.28-101.49,235.06-130.87,235.06-130.87,0,0,10.56-4.47,37.14,16.65,17.74,14.1,15.4,19.52,15.4,19.52,0,0,3.88,89.53-24.33,99.37Z"/>
        <path class="cls-15" d="M1209.66,1139.02c-19.59,2.14-39.82,3.6-50.41,7.83-4.33-64.7,26.2-113.37,26.2-113.37,0,0,19.92,81.06,24.21,105.54Z"/>
        <path class="cls-22" d="M1229.82,1020.96s-49.1,4.85-53.03,36.75c-3.94,31.9,47.07,161.84,54.38,173.61,13.3,21.42,91.61,94.85,91.61,94.85l14.43-8.75s-55.55-94.04-64.15-102.84c-13.5-13.82-26.61-182.58-43.24-193.63Z"/>
        <path class="cls-20" d="M1178.2,1076.91c.13.72,45.31,14.76,74.39,0,0,0,6.22-67.09-28.49-63.45-34.71,3.64-55.27,14.58-56.15,31.2-.87,16.62,10.25,32.25,10.25,32.25Z"/>
        <path class="cls-22" d="M1318.31,1316.85s17.61-16.17,25.22-16.56c7.6-.38,30.24,2.3,31.02,5.44.78,3.13-23.24,9.09-24.59,11.1-1.35,2-16.08,15.74-22.64,13.26-6.56-2.48-9-13.23-9-13.23Z"/>
      </g>
      <rect class="cls-1" y="1615.37" width="2710.58" height="7.19" rx="3.07" ry="3.07"/>
    </g>
  </g>
</svg>