<?xml version="1.0" encoding="UTF-8"?>
<svg id="Calque_2" data-name="Calque 2" xmlns="http://www.w3.org/2000/svg" viewBox="0 0 2695.14 1574.06">
  <defs>
    <style>
      .cls-1 {
        fill: #2b478b;
      }

      .cls-2 {
        fill: #233862;
      }

      .cls-3 {
        fill: #b84c42;
      }

      .cls-4 {
        fill: #ebf2f9;
      }

      .cls-5 {
        fill: #d2e4ff;
      }

      .cls-6, .cls-7 {
        fill: #aed3ff;
      }

      .cls-8 {
        fill: #9ed9f0;
      }

      .cls-9 {
        fill: #e27f2b;
      }

      .cls-10 {
        fill: #bed4f4;
      }

      .cls-11 {
        fill: #b64c41;
      }

      .cls-12 {
        fill: #cb7d45;
      }

      .cls-13 {
        fill: #283250;
      }

      .cls-14 {
        fill: #74acbe;
      }

      .cls-15 {
        fill: #ebf3fa;
      }

      .cls-16 {
        fill: #d9935c;
      }

      .cls-7 {
        opacity: .5;
      }

      .cls-17 {
        fill: #ffa412;
      }

      .cls-18 {
        fill: #afcdfb;
      }

      .cls-19 {
        fill: #e9f3fe;
      }

      .cls-20 {
        fill: #739af0;
      }

      .cls-21 {
        fill: #4a75cb;
      }
    </style>
  </defs>
  <g id="Layer_1" data-name="Layer 1">
    <g>
      <path class="cls-15" d="M220.53,1564.83s-516.81-793.13,31.87-1010.05c138.21-54.64,186.42-819.6,800.32-437.12,244.14,152.11,595.67-31.96,932.32,68.64,309.17,92.4,316.28,358.92,277.19,454.87-42.71,104.84,127.62,230.19,302.06,316.28,273.63,135.04,72.42,609.62-186.09,611.89-258.5,2.27-2157.68-4.52-2157.68-4.52Z"/>
      <g>
        <g>
          <path class="cls-4" d="M2114.08,1566.87s242.39-5.77,345.97-152.68c187.64-266.14,103.08-499.53-230.98-482.16-373.71,19.43-327.62-805.58-974.7-408.37-140.51,86.25-453.23-94.89-578.17,282.51-29.71,89.74-252.82,95.99-397.02,167.96-226.19,112.89-162.31,594.62,51.37,596.52,213.68,1.9,1783.53-3.78,1783.53-3.78Z"/>
          <path class="cls-5" d="M978,330.62h-11.6l-2.59-151.96L456.47,25.83l-217.7,148.79,7.95-2.87c-6.87,0-12.49,5.62-12.49,12.49v72.85c0,6.87,5.62,12.49,12.49,12.49h106.15c6.87,0,12.49-5.62,12.49-12.49v-29.14h70.77v1340.46h83.26V227.94h342.48l95.48,102.68h-19.59c-6.87,0-12.49,5.62-12.49,12.49v12.49c0,6.87,5.62,12.49,12.49,12.49h40.24c6.87,0,12.49-5.62,12.49-12.49v-12.49c0-6.87-5.62-12.49-12.49-12.49ZM365.17,182.15c-1-5.89-6.14-10.41-12.3-10.41h-99.64L457.68,33.8l492.45,148.35H365.17ZM871.82,227.94l85.19,1.59,2.1,92.29-87.29-93.88Z"/>
          <path class="cls-5" d="M2443.14,407.2l5.87,2.35-149.75-102.43-348.01,104.83-1.78,104.24h-7.96c-4.71,0-8.57,3.86-8.57,8.57v8.57c0,4.71,3.86,8.57,8.57,8.57h27.6c4.71,0,8.57-3.85,8.57-8.57v-8.57c0-4.71-3.85-8.57-8.57-8.57h-13.43l65.49-70.44h234.93v919.48h57.11V445.75h48.54v19.99c0,4.71,3.85,8.57,8.57,8.57h72.82c4.71,0,8.57-3.85,8.57-8.57v-49.97c0-4.71-3.85-8.57-8.57-8.57ZM1954.48,510.15l1.86-64.4h58.01l-59.88,64.4ZM2370.32,407.2c-4.22,0-7.75,3.1-8.44,7.14h-401.25l337.8-101.76,140.24,94.62h-68.35Z"/>
          <g>
            <rect class="cls-5" x="1273.76" y="74.49" width="480.47" height="1495.14"/>
            <g>
              <rect class="cls-7" x="1273.76" y="280.79" width="347.77" height="219.04"/>
              <rect class="cls-7" x="1273.76" y="681.88" width="347.77" height="219.04"/>
              <rect class="cls-7" x="1273.76" y="1077.79" width="347.77" height="219.04"/>
            </g>
            <polygon class="cls-6" points="2353.2 1295.43 2288.36 1295.43 2288.36 1092.88 1754.23 1092.88 1754.23 74.49 1621.53 74.49 1621.53 1570.47 1754.23 1570.47 1754.23 1569.63 2288.36 1569.63 2288.36 1569.63 2353.2 1569.63 2353.2 1295.43"/>
          </g>
          <path class="cls-5" d="M1126.06,492.76v-8.07h-17.66v-53.26h-14.62v53.26h-37.03v-53.26h-14.62v53.26h-40.26v-53.26h-14.62v53.26h-37.03v-53.26h-14.62v53.26h-19.37v8.07h19.37v25.93h-19.37v8.07h19.37v25.93h-19.37v8.07h19.37v25.93h-19.37v8.07h19.37v25.93h-19.37v8.07h19.37v25.93h-19.37v8.07h19.37v20.98h-19.37v8.07h19.37v25.93h-19.37v8.07h19.37v25.93h-19.37v8.07h19.37v25.93h-19.37v8.07h19.37v25.93h-19.37v8.07h19.37v25.93h-19.37v8.07h19.37v24.75h-19.37v8.07h19.37v25.93h-19.37v8.07h19.37v25.93h-19.37v8.07h19.37v25.93h-19.37v8.07h19.37v25.93h-19.37v8.07h19.37v25.93h-19.37v8.07h19.37v20.98h-19.37v8.07h19.37v25.93h-19.37v8.07h19.37v25.93h-19.37v8.07h19.37v25.93h-19.37v8.07h19.37v25.93h-19.37v8.07h19.37v25.93h-19.37v8.07h19.37v23.13h-19.37v8.07h19.37v25.93h-19.37v8.07h19.37v25.93h-19.37v8.07h19.37v25.93h-19.37v8.07h19.37v25.93h-19.37v8.07h19.37v25.93h-19.37v8.07h19.37v20.98h-19.37v8.07h19.37v25.93h-19.37v8.07h19.37v25.93h-19.37v8.07h209.81v-8.07h-17.66v-25.93h17.66v-8.07h-17.66v-25.93h17.66v-8.07h-17.66v-20.98h17.66v-8.07h-17.66v-25.93h17.66v-8.07h-17.66v-25.93h17.66v-8.07h-17.66v-25.93h17.66v-8.07h-17.66v-25.93h17.66v-8.07h-17.66v-25.93h17.66v-8.07h-17.66v-23.13h17.66v-8.07h-17.66v-25.93h17.66v-8.07h-17.66v-25.93h17.66v-8.07h-17.66v-25.93h17.66v-8.07h-17.66v-25.93h17.66v-8.07h-17.66v-25.93h17.66v-8.07h-17.66v-20.98h17.66v-8.07h-17.66v-25.93h17.66v-8.07h-17.66v-25.93h17.66v-8.07h-17.66v-25.93h17.66v-8.07h-17.66v-25.93h17.66v-8.07h-17.66v-25.93h17.66v-8.07h-17.66v-24.75h17.66v-8.07h-17.66v-25.93h17.66v-8.07h-17.66v-25.93h17.66v-8.07h-17.66v-25.93h17.66v-8.07h-17.66v-25.93h17.66v-8.07h-17.66v-25.93h17.66v-8.07h-17.66v-20.98h17.66v-8.07h-17.66v-25.93h17.66v-8.07h-17.66v-25.93h17.66v-8.07h-17.66v-25.93h17.66v-8.07h-17.66v-25.93h17.66v-8.07h-17.66v-25.93h17.66ZM1042.14,492.76v25.93h-40.26v-25.93h40.26ZM1001.88,1519.89v-25.93h40.26v25.93h-40.26ZM1042.14,1527.96v25.93h-40.26v-25.93h40.26ZM1001.88,1485.89v-20.98h40.26v20.98h-40.26ZM1001.88,1456.84v-25.93h40.26v25.93h-40.26ZM1001.88,1422.83v-25.93h40.26v25.93h-40.26ZM1001.88,1388.83v-25.93h40.26v25.93h-40.26ZM1001.88,1354.83v-25.93h40.26v25.93h-40.26ZM1001.88,1320.83v-25.93h40.26v25.93h-40.26ZM1001.88,1286.83v-23.13h40.26v23.13h-40.26ZM1001.88,1255.63v-25.93h40.26v25.93h-40.26ZM1001.88,1221.63v-25.93h40.26v25.93h-40.26ZM1001.88,1187.63v-25.93h40.26v25.93h-40.26ZM1001.88,1153.63v-25.93h40.26v25.93h-40.26ZM1001.88,1119.63v-25.93h40.26v25.93h-40.26ZM1001.88,1085.63v-20.98h40.26v20.98h-40.26ZM1001.88,1056.57v-25.93h40.26v25.93h-40.26ZM1001.88,1022.57v-25.93h40.26v25.93h-40.26ZM1001.88,988.57v-25.93h40.26v25.93h-40.26ZM1001.88,954.57v-25.93h40.26v25.93h-40.26ZM1001.88,920.57v-25.93h40.26v25.93h-40.26ZM1001.88,886.57v-24.75h40.26v24.75h-40.26ZM1001.88,853.75v-25.93h40.26v25.93h-40.26ZM1001.88,819.75v-25.93h40.26v25.93h-40.26ZM1001.88,785.75v-25.93h40.26v25.93h-40.26ZM1001.88,751.75v-25.93h40.26v25.93h-40.26ZM1001.88,717.75v-25.93h40.26v25.93h-40.26ZM1001.88,683.75v-20.98h40.26v20.98h-40.26ZM1001.88,654.7v-25.93h40.26v25.93h-40.26ZM1001.88,620.7v-25.93h40.26v25.93h-40.26ZM1001.88,586.7v-25.93h40.26v25.93h-40.26ZM1001.88,552.7v-25.93h40.26v25.93h-40.26ZM950.23,492.76h37.03v25.93h-37.03v-25.93ZM950.23,526.77h37.03v25.93h-37.03v-25.93ZM950.23,560.77h37.03v25.93h-37.03v-25.93ZM950.23,594.77h37.03v25.93h-37.03v-25.93ZM950.23,628.77h37.03v25.93h-37.03v-25.93ZM950.23,662.77h37.03v20.98h-37.03v-20.98ZM950.23,691.82h37.03v25.93h-37.03v-25.93ZM950.23,725.82h37.03v25.93h-37.03v-25.93ZM950.23,759.82h37.03v25.93h-37.03v-25.93ZM950.23,793.82h37.03v25.93h-37.03v-25.93ZM950.23,827.82h37.03v25.93h-37.03v-25.93ZM950.23,861.82h37.03v24.75h-37.03v-24.75ZM950.23,894.64h37.03v25.93h-37.03v-25.93ZM950.23,928.64h37.03v25.93h-37.03v-25.93ZM950.23,962.64h37.03v25.93h-37.03v-25.93ZM950.23,996.64h37.03v25.93h-37.03v-25.93ZM950.23,1030.64h37.03v25.93h-37.03v-25.93ZM950.23,1064.64h37.03v20.98h-37.03v-20.98ZM950.23,1093.7h37.03v25.93h-37.03v-25.93ZM950.23,1127.7h37.03v25.93h-37.03v-25.93ZM950.23,1161.7h37.03v25.93h-37.03v-25.93ZM950.23,1195.7h37.03v25.93h-37.03v-25.93ZM950.23,1229.7h37.03v25.93h-37.03v-25.93ZM950.23,1263.7h37.03v23.13h-37.03v-23.13ZM950.23,1294.9h37.03v25.93h-37.03v-25.93ZM950.23,1328.9h37.03v25.93h-37.03v-25.93ZM950.23,1362.9h37.03v25.93h-37.03v-25.93ZM950.23,1396.9h37.03v25.93h-37.03v-25.93ZM950.23,1430.9h37.03v25.93h-37.03v-25.93ZM950.23,1464.91h37.03v20.98h-37.03v-20.98ZM950.23,1493.96h37.03v25.93h-37.03v-25.93ZM950.23,1527.96h37.03v25.93h-37.03v-25.93ZM1093.78,1553.89h-37.03v-25.93h37.03v25.93ZM1093.78,1519.89h-37.03v-25.93h37.03v25.93ZM1093.78,1485.89h-37.03v-20.98h37.03v20.98ZM1093.78,1456.84h-37.03v-25.93h37.03v25.93ZM1093.78,1422.83h-37.03v-25.93h37.03v25.93ZM1093.78,1388.83h-37.03v-25.93h37.03v25.93ZM1093.78,1354.83h-37.03v-25.93h37.03v25.93ZM1093.78,1320.83h-37.03v-25.93h37.03v25.93ZM1093.78,1286.83h-37.03v-23.13h37.03v23.13ZM1093.78,1255.63h-37.03v-25.93h37.03v25.93ZM1093.78,1221.63h-37.03v-25.93h37.03v25.93ZM1093.78,1187.63h-37.03v-25.93h37.03v25.93ZM1093.78,1153.63h-37.03v-25.93h37.03v25.93ZM1093.78,1119.63h-37.03v-25.93h37.03v25.93ZM1093.78,1085.63h-37.03v-20.98h37.03v20.98ZM1093.78,1056.57h-37.03v-25.93h37.03v25.93ZM1093.78,1022.57h-37.03v-25.93h37.03v25.93ZM1093.78,988.57h-37.03v-25.93h37.03v25.93ZM1093.78,954.57h-37.03v-25.93h37.03v25.93ZM1093.78,920.57h-37.03v-25.93h37.03v25.93ZM1093.78,886.57h-37.03v-24.75h37.03v24.75ZM1093.78,853.75h-37.03v-25.93h37.03v25.93ZM1093.78,819.75h-37.03v-25.93h37.03v25.93ZM1093.78,785.75h-37.03v-25.93h37.03v25.93ZM1093.78,751.75h-37.03v-25.93h37.03v25.93ZM1093.78,717.75h-37.03v-25.93h37.03v25.93ZM1093.78,683.75h-37.03v-20.98h37.03v20.98ZM1093.78,654.7h-37.03v-25.93h37.03v25.93ZM1093.78,620.7h-37.03v-25.93h37.03v25.93ZM1093.78,586.7h-37.03v-25.93h37.03v25.93ZM1093.78,552.7h-37.03v-25.93h37.03v25.93ZM1093.78,518.7h-37.03v-25.93h37.03v25.93Z"/>
          <g>
            <rect class="cls-5" x="1298.63" width="5.17" height="92.08"/>
            <rect class="cls-5" x="1585.22" width="5.17" height="92.08"/>
            <rect class="cls-5" x="1334.84" width="5.17" height="92.08"/>
            <rect class="cls-5" x="1611.08" width="5.17" height="92.08"/>
          </g>
        </g>
        <g>
          <g>
            <path class="cls-2" d="M1754.16,1565.38s.99-21.41,6.73-32.89c5.74-11.48,51.67-3.59,51.67-3.59,0,0,10.59,19.15,9.15,36.38l-67.55.1Z"/>
            <path class="cls-2" d="M1630.91,1565.38s.99-21.41,6.73-32.89c5.74-11.48,51.67-3.59,51.67-3.59,0,0,10.59,19.15,9.15,36.38l-67.55.1Z"/>
            <path class="cls-16" d="M1783.93,656.9c-5.74,4.15-57.67,31.26-57.67,31.26l-54.76-39.04s16.63-2.42,17.07-2.55c4.94-1.38,4.72-14.63,5.34-28.74.1-2.18.22-4.37.38-6.55l53.62-1.95.04.67c.04.68.1,1.39.15,2.13l.11,1.53c.03.53.08,1.05.12,1.6.97,12.4,3.04,29.92,7,31.96,2.25,1.16,17.51.98,28.6,9.68Z"/>
            <path class="cls-12" d="M1748.33,615.27c-4.42,8.85-14.27,24.25-28.88,23.75-13.95-.5-21.9-13.18-25.53-21.18.1-2.18.22-4.37.38-6.55l53.62-1.95.04.67.15,2.13.11,1.53c.03.53.08,1.05.12,1.6Z"/>
            <path class="cls-1" d="M1687.91,491.74s25.86-25.75,56.38.52c0,0-18.14-3.77-56.38-.52Z"/>
            <path class="cls-11" d="M1678.31,586.47s-8.19-16.96-13.24-36.71c-3.61-14.1-.31-67.61,53.49-63.97,0,0,15.57.36,30.84,9.09,12.14,6.94,30.08,22.54,14.9,70.15l-3.67,15.98-82.32,5.46Z"/>
            <path class="cls-16" d="M1753.57,608.95c-13.89,13.28-31.14,30.97-68.33-1.75-7.28-6.4-6.78-16.24-7.21-30.38-.51-16.73-4.54-26.98-2.67-36.62,2.22-11.54,12.09-16.75,32.57-18.54,37.6-3.26,56.61,5.21,54.08,23.87-5.63,41.65,5.68,49.92-8.45,63.42Z"/>
            <path class="cls-11" d="M1722.93,520.97s22.29-.47,27.38,6.98c5.09,7.45,5.8,15.79,8.36,19.99,2.57,4.2,2.14,8.92,2.14,8.92l4.95-33.27-30.17-6-12.66,3.38Z"/>
            <path class="cls-8" d="M1852.93,704.5s-9.52,28.05-48.11,33.19c-1.04.14-2.12.26-3.21.37h-157.17s-.29-.09-.84-.26c-6.1-1.94-43.65-14.8-47.6-38.86,0,0,19.74-40.54,34.81-45.57,4.39-1.47,10.47-2.57,16.87-3.4,6.53-.84,13.41-1.4,19.18-1.77,7.94-.5,13.78-.62,13.78-.62,0,0,12.24,24.81,42.03,24.45,29.79-.36,36.69-24.08,36.69-24.08,0,0,8.36.24,19.47,1.44,6.13.66,13.08,1.6,19.94,2.97,11.62,2.31,22.93,5.8,29.4,11.06,17.22,13.99,24.76,41.09,24.76,41.09Z"/>
            <path class="cls-1" d="M1815.55,921.46c-1.67-9.29-4.16-23.43-6.11-35.87.01-.17,5.83-70.23,7.98-82.06,2.15-11.84-12.48-76.27-12.48-76.27-3.4-9.86-9.17-12.87-13.6-12.87l7.44-62.04c-6.86-1.37-13.81-2.31-19.94-2.97l-3.56,65.01-.05.94c-8.15.45-18.31,1-27.77,1.42-9.46.43-18.23.74-23.62.74-10.97,0-36.14-1.26-52.85-2.17l-.07-.93-4.04-66.19c-5.77.37-12.65.93-19.18,1.77l7.1,64.43h0c-4.68.01-10.07,8.32-10.81,12.94l-.72,20.16c-3.54,10.15-10.87,32.69-12.09,48.51-1.61,20.92,7.13,93.69,7.19,94.19-.32,8.68-.93,19.76-2.12,30.49-6.57,17.79-34.58,100.54-31.72,211.81,2.66,103.87,4.23,281.35,16.47,367.52,1.99,13.99,4.26,25.57,6.86,34.04,1.31,4.27,5,7.36,9.43,7.98,14.03,1.95,45.67,5.53,59.28.58,6.52-2.38,11.2-38.6,14.5-85.3,3.17-44.77,5.07-99.18,6.13-142.6.01,0,.01-.01.01-.02.85-34.62,1.17-62.25,1.17-72.48,0-23.14,5.47-91.05,7.28-130.99.05-1.13,1.7-1.14,1.78-.02h0c2.74,47.43,12.33,119.34,12.48,135.31.36,38.75-1.9,287.73,15.04,296.1,12.95,6.39,43.47,1.56,58.05-.41,5.27-.71,9.61-4.47,11.09-9.58,18.22-62.65,19.83-280.33,22.9-400.12,2.81-109.7-24.37-191.69-31.43-211.02Z"/>
            <path class="cls-16" d="M1672.8,966.26c-5.38,4.31-22.96,2.51-29.77-3.23-6.83-5.75-20.45-3.95-23.68-6.1-.23-.15-63.7-75.36-70.57-107.01-6.94-31.94,36.99-119.83,49.42-143.8,9.2,19.44,39.86,29.94,45.33,31.67.55.17.84.26.84.26h1.7c-10.34,27.97-41.27,78.31-53.19,97.28-2.96,4.72-3.34,10.61-.99,15.67,15.31,32.82,30.28,60.51,36.84,79.69,1.3,2.13,4.1,5.94,7.48,5.43,4.67-.72,19.74-3.95,27.28,7.17,7.53,11.13,14.7,18.67,9.32,22.97Z"/>
            <g>
              <path class="cls-17" d="M1769.42,492.49s-4.14-5.62-11.54-11.91c-1.17-1.01-2.44-2.04-3.78-3.05-13.63-10.37-35.44-20.49-61.73-9.52-7.12,2.97-13.05,7-17.97,11.68-1.16,1.1-2.27,2.23-3.31,3.4-22.8,25.29-20.87,64.96-20.87,64.96l131.54-1.41c.43-36.72-12.35-54.14-12.35-54.14Z"/>
              <path class="cls-9" d="M1744.81,547.03c-.37-5.53-2.89-50.92,13.06-66.44-1.17-1.02-.89-.84-2.24-1.86-17,17.85-18.09,62.54-18.03,68.38l-42.05.45c-1.25-32.22-19.03-64.29-21.16-67.87-1.16,1.1-1.39,1.32-2.43,2.49,3.09,5.43,14.69,36.49,15.8,65.47l-37.55.4s35.03,9.06,61.42,8.73c26.39-.33,70.12-10.14,70.12-10.14l-36.95.4Z"/>
            </g>
            <path class="cls-11" d="M1677.78,721.18c-13.46,25.84-51.67,30.68-51.67,30.68,12.38-30.14-12.56-39.65-27.99-70.51-15.43-30.86,11.84-51.32,11.84-51.32-16.87,3.23-20.1,25.84-20.1,25.84-1.43-15.07,11.13-40.54,50.96-45.57,29.16-3.68,36.2-13.51,37.88-18.51.66,6.49,2.23,11.57,6.59,15.4,3.08,2.71,6.03,5.07,8.84,7.13-.07,1.17-.12,2.35-.17,3.51-.17,3.97-.28,7.88-.46,11.46-5.21,6.21-5.06,12.82-4.18,16.98.55,2.58,1.38,4.22,1.38,4.22,4.18,5.8,6.3,11.51,6.91,17.21,1.85,17.07-9.74,34.11-19.83,53.48Z"/>
            <path class="cls-2" d="M1815.24,919.77l-5.81-34.18c-28.3,10.5-55.06,15.08-78.69,16.34-2.78-5.13-7.85-8.89-14.01-9.78l-20.87-3.02c-8.24-1.19-16,3.1-19.62,10.1-20.05-3.1-33.58-7.65-37.87-9.21v.18s-2.09,30.01-2.09,30.01v.08c12.05,3.21,23.62,5.7,34.67,7.6l-.62,4.18c-1.53,10.38,5.63,20.04,16,21.6l23.13,3.47c11.03,1.65,21.12-6.5,21.81-17.63l.4-6.44c44.1-.23,73.4-9.5,83.55-13.29Z"/>
            <path class="cls-16" d="M1899.82,849.92c-6.88,31.65-70.35,106.86-70.57,107.01-.55.37-1.41.62-2.49.82-.04.01-.08.01-.12.02-5.24.9-15.47.53-21.08,5.26-6.81,5.74-24.4,7.53-29.79,3.23-5.38-4.31,1.8-11.84,9.33-22.97,7.54-11.12,22.61-7.89,27.27-7.17,2.78.42,5.18-2.08,6.65-4.17.03-.04.06-.08.09-.12.28-.41.54-.8.74-1.14,6.42-18.76,20.87-45.63,35.81-77.51,2.99-6.37,2.55-13.84-1.18-19.82-9.98-15.94-30.24-49.07-43.27-75.64-1.52-7.69-3.04-14.91-4.21-20.38,28.63-4.61,40.49-22.02,44.32-29.45,13.53,26.26,55.28,110.82,48.5,142.02Z"/>
          </g>
          <g id="P297LW">
            <path class="cls-17" d="M2044.65,841.12c11.36,34.78,73.28,94.9,81.84,100.89,0,0,14.41-24.01,11.53-37.46-2.35-10.98-26.46-50.11-34.71-69.34-.43-1-.82-1.95-1.15-2.83-1.13-2.95-1.73-5.23-1.59-6.59.41-4.18,13.54-14.34,28.81-26.39,19.83-15.67,43.27-34.53,47.07-47.56,6.72-23.05,30.01-114.33,30.01-114.33,0,0-57.87,12.51-74.2,26.92-16.33,14.41-86.44,134.47-89.32,165.2-.32,3.35.32,7.23,1.72,11.49Z"/>
            <path class="cls-16" d="M2044.65,841.12c11.36,34.78,73.28,94.9,81.84,100.89,0,0,14.41-24.01,11.53-37.46-2.48-11.55-29.03-54.25-35.86-72.17-10.29-1.79-34.44-3.98-57.5,8.74Z"/>
            <path class="cls-16" d="M2206.43,629.49l.04,7.09s-1.93,22.17,25.37,25.4c27.3,3.25,47.85-6.66,47.11-23.76-2.46-13.25-5.03-24.33-5.22-35.29-.07-4.07.21-8.39.97-13.27l-52.89-1.06-15.58,2.55.2,38.34Z"/>
            <path class="cls-12" d="M2206.23,591.14l.2,38.34c5.62,2.61,11.96,4.21,19.07,4.21,24.31,0,40.02-17.83,48.24-30.76-.07-4.07.21-8.39.97-13.27l-52.89-1.06-15.58,2.55Z"/>
            <path class="cls-2" d="M2253.05,1569.44s2.57-20,8.51-31.89c5.95-11.89,43.78-4.32,43.78-4.32,0,0,7.57,6.49,9.19,36.75l-61.48-.54Z"/>
            <path class="cls-2" d="M2124.15,1569.38c8.89-5.43,3.83-45.91,3.83-45.91,0,0-41.43-33.14-47.12-7.77-5.7,25.37-39.36,36.77-58.52,39.87-13.23,2.14-17.32,9.47-18.59,13.8h120.4Z"/>
            <path class="cls-1" d="M2209.95,1270.44c-1.69,9.29-2.76,16.91-3.04,22.38-3.85,75.12-63.23,246.87-73.85,250.88-16.43,6.2-42.31-6.98-55.85-11.29-5.61-1.79-9.4-7.45-8.15-13.19,29.41-135.19,40.21-329.85,44.15-445.1,1.99-58.05,11.95-98.15,11.95-98.15,0,0,144.83-38.64,145.69,10.24.76,43.26-47.97,212.89-60.89,284.25Z"/>
            <path class="cls-2" d="M2209.95,1270.44l-96.75-196.34c1.99-58.05,11.95-98.15,11.95-98.15,0,0,144.83-38.64,145.69,10.24.76,43.26-47.97,212.89-60.89,284.25Z"/>
            <path class="cls-1" d="M2177.73,986.37l76.56,554.9s33.62,8.11,59.77,1.62c0,0,22.41-295.12,20.55-366.47-1.87-71.35,16.09-190.91-4.1-204.1-20.18-13.19-152.78,14.05-152.78,14.05Z"/>
            <path class="cls-17" d="M2120.99,987.39s39.12,22.81,95.79,22.17c22.09-.25,41.31-1.9,57.62-4.33,45.45-6.74,68.39-19.43,68.2-24.16-.15-4.26-.45-18.43-.99-24.52-7.22-83.29-3.49-148.08-13.21-196.74-.12-.59-.23-1.17-.36-1.75-12.86-61.87-33.02-97.42-43.03-112-3.66-5.32-5.95-7.84-6.07-7.84,0,11.54-24.59,21.51-44.63,20.21-16.89-1.1-27.84-13.95-27.84-20.9l-.02-.02c-1.38,0-76.17,51.98-76.23,100.28-.26,216.47-13.38,249.68-9.23,249.6Z"/>
            <path class="cls-9" d="M2274.29,1004.52c.04.24.07.48.11.71,45.45-6.74,68.39-19.43,68.2-24.16-.15-4.26-.45-18.43-.99-24.52-7.22-83.29-3.49-148.08-13.21-196.74-23.86,31.89-72.9,115.4-54.11,244.71Z"/>
            <g>
              <path class="cls-19" d="M2149.79,900.98l6.11,20.32,6.07,20.17,263.65-79.31c.37.02.74-.02,1.09-.13.36-.11.7-.28,1.02-.5,3.32-2.35,3.93-10.97,1.37-20.68-.13-.54-.29-1.08-.45-1.62-3.08-10.44-8.69-18.16-13-18.23-.36,0-.69.04-1.03.13-.35.11-.66.26-.97.47l-263.86,79.36Z"/>
              <path class="cls-10" d="M2155.9,921.3l6.07,20.17,263.65-79.31c.37.02.74-.02,1.09-.13.36-.11.7-.28,1.02-.5,3.32-2.35,3.93-10.97,1.37-20.68-10.78,8.09-62.25,43.87-150.1,61.27-90.81,17.99-118.92,19.11-123.1,19.17Z"/>
              <path class="cls-18" d="M2149.29,900.86c4.41-1.3,10.69,6.8,14.02,18.09,3.34,11.3,2.47,21.51-1.94,22.81-4.41,1.3-10.69-6.8-14.02-18.09-3.34-11.3-2.47-21.51,1.94-22.81Z"/>
            </g>
            <g>
              <path class="cls-19" d="M2411.74,814.17l31.08-5.04c.34-.16.66-.28,1.03-.34.35-.05.68-.06,1.03,0,4.26.63,8.81,9.02,10.5,19.78.1.57.17,1.11.24,1.67.61,4.76.52,9.17-.12,12.7-.69,3.77-2.03,6.52-3.85,7.55-.04.03-.08.05-.11.07-.35.18-.7.31-1.08.36-.36.06-.72.05-1.09-.02l-271.77,44.1-3.37-20.79-3.39-20.95,240.9-39.09Z"/>
              <path class="cls-10" d="M2298.78,871.32c58.13-3.74,88.94-34.47,112.96-57.15l31.08-5.04c.34-.16.66-.28,1.03-.34.35-.05.68-.06,1.03,0,4.26.63,8.81,9.02,10.5,19.78.1.57.17,1.11.24,1.67.61,4.76.52,9.17-.12,12.7-1.46,4.13-2.96,6.93-3.85,7.55-.04.03-.08.05-.11.07-.35.18-.7.31-1.08.36-.36.06-.72.05-1.09-.02l-271.77,44.1-3.37-20.79c4.15.49,32.16,3.05,124.55-2.89Z"/>
              <path class="cls-18" d="M2170.36,853.07c4.54-.71,9.71,8.14,11.53,19.77,1.83,11.64-.37,21.65-4.91,22.36-4.54.71-9.71-8.14-11.53-19.77-1.83-11.63.37-21.65,4.91-22.36Z"/>
            </g>
            <path class="cls-16" d="M2267.04,933.05c63.04-10.03,104.7-36.44,121.81-49.21,5.84-4.36,8.82-7.14,8.82-7.14,32.3-67.91-26.13-186.97-36.82-207.15-11.53-21.76-81.9-31.33-81.9-31.33,0,0,11.24,33.06,15.63,76.16,4.39,43.1,51.22,127.1,49.3,134.15-.48,1.78-6.14,5.5-14.39,10.21-24.46,13.93-71.74,36.38-74.61,41.66-3.84,7.04,12.16,32.66,12.16,32.66Z"/>
            <path class="cls-16" d="M2254.88,900.39s-35.22-14.09-43.86-8.32c-8.64,5.76-23.05,14.41-23.05,20.17s18.25,21.13,33.62,25.93c15.37,4.8,45.46-5.12,45.46-5.12l-12.17-32.66Z"/>
            <path class="cls-17" d="M2294.58,714.37c4.39,43.1,51.22,127.1,49.3,134.15-.48,1.78-6.14,5.5-14.39,10.21.52.04,1.05.05,1.58.03,36.84-1.62,53.52,18.76,57.77,25.07,5.84-4.36,8.82-7.14,8.82-7.14,32.3-67.91-26.13-186.97-36.82-207.15-11.53-21.76-81.9-31.33-81.9-31.33,0,0,11.24,33.06,15.63,76.16Z"/>
            <path class="cls-16" d="M2203.14,609.78s67.74,13.68,75.62-28.63c7.87-42.32,21.92-69.05-21-79.58-42.92-10.53-54.35,4.05-60.41,17.54-6.06,13.49-11.62,86.02,5.8,90.67Z"/>
            <path class="cls-2" d="M2277.41,593.34s13.1-27.95,24.02-40.36c10.92-12.41,4.96-74.47-42.2-72.48-47.16,1.99-64.04,35.75-64.54,42.2-.5,6.45,37.73,1.49,48.16,9.93,10.43,8.44.5,22.34,12.41,27.31,11.92,4.96,21.35,4.96,19.36,15.89-1.99,10.92,2.79,17.53,2.79,17.53Z"/>
            <path class="cls-17" d="M2262.85,451.68c13.49,3.39,23.62,8.81,31.18,15.33.75.64,1.48,1.31,2.18,1.98h0c27.97,26.68,16.81,69.14,16.81,69.14,0,0-3.72,10.73-6.28,14.89-2.56,4.16-39.7-.64-41.62-8.64-1.92-8-9.28-16.33-9.28-16.33,0,0-39.15-2.69-41.78-2.88-8.84-.64-34.08-9.42-34.08-9.42.29-2.48,14.49-81.23,82.88-64.05Z"/>
            <path class="cls-9" d="M2156.78,507.42c4.7-1.15,12.7-2.43,25.9-2.91,0,0,11.08,9.18,33.11,16.17,10.35-13.04,39.84-44.48,78.24-53.67.12-.03.22-.06.34-.09.82,1.03,1.28,1.37,1.84,2.06h0c.17.21.36.45.56.75-31.26,5.45-60.97,40.56-71.17,53.7,8.75,2.15,18.82,3.85,30.23,4.6,0,0-68.42,1.28-99.69-15.19-2.38-1.25-1.98-4.79.63-5.43Z"/>
            <path class="cls-9" d="M2087.11,818.11c1.27,7.18,5.14,14.74,16.19,17.11-.43-1-.82-1.95-1.15-2.83-1.13-2.95-1.73-5.23-1.59-6.59.41-4.18,13.54-14.34,28.81-26.39,1.26-6.84,4.33-27.13,0-43.24-5.28-19.69-43.7,53.79-42.26,61.95Z"/>
            <path class="cls-9" d="M2336.84,853.88s47.06-3.84,62.43,23.53c0,0-1.31,9.23-10.42,6.42,0,0-39.81-27.21-59.36-25.1,0,0,3.03-4.77,7.35-4.85Z"/>
            <path class="cls-9" d="M2103.3,835.21s-24.42,1.02-55.15,14.41c0,0-6.82-6.7-4.1-10.54,2.72-3.84,45.99-17.65,59.25-3.86Z"/>
          </g>
        </g>
        <g>
          <path class="cls-20" d="M1082.32,885.02c11.03,2.55,60.89,3.15,95.89-4.71,7.3-1.63,13.97-3.64,19.48-6.07,6.59-2.91,11.57-6.42,14.1-10.65,3.96-6.59,11.2-29.16,19.71-58.75,23.44-81.51,56.43-216.2,56.43-216.2,0,0-66.24,13.52-80.26,25.06-14.03,11.54-25.33,196.09-38.52,201.04-1.94.73-6.09,1.88-10.39,3.99l-.21.1c-2.56,1.26-3.76,2.1-6.88,3.7-27.35,14.05-74.98,39.13-79.67,44.76-6.19,7.42-5.78,14.02,10.3,17.73Z"/>
          <path class="cls-20" d="M1209.42,692.87c0-3.12.31-6.24.88-9.36,8.52-46.87,76.3-94.87,77.64-94.87v.98c.01,7.16,11.31,20.39,28.7,21.52,20.63,1.35,46.1-10.42,46.1-22.31.12,0,11.59,1.55,15.48,1.98,16.54,1.88,49.54,10.81,63.68,21.5,13.45,10.16-5.55,74.2-17.32,119.55-4.98,19.19-8.66,35.02-8.05,42.03.3,3.43,3.38,49.98,6.12,92.08,2.28,34.74,4.33,66.44,4.39,68.43.15,3.95-19.47,17.76-52.41,28.2-7.95,2.52-16.7,4.85-26.13,6.78-16.91,3.48-36.03,5.72-56.84,5.64-6.8-.03-13.25-.37-19.33-.98-47.06-4.61-63.17-58.24-62.9-281.19Z"/>
          <path class="cls-16" d="M1362.72,588.28c.4-18.2.1-39.94-2.36-58.31l-72.66,11.87s-.08,22.18.24,46.79c-.04,0-1.98,22.82,26.14,26.16,28.11,3.34,49.4-8.91,48.65-26.52Z"/>
          <path class="cls-21" d="M1368.49,833.89c0,69.68,33.77,50.9,54.16,32.09-2.75-42.11-4.68-191.26-4.68-191.26,0,0-49.48,59.38-49.48,159.17Z"/>
          <path class="cls-21" d="M1149.54,823.14c1.35,9.77,8.95,39.5,21.06,59.3,7.3-1.63,21.58-5.77,27.09-8.21,6.59-2.91,11.57-6.42,14.1-10.65,3.96-6.59,11.2-29.16,19.71-58.75-6.3-36.42-12.28-72.38-12.28-72.38l-1.86-24.12c0,1.86-28.24,107.83-41.03,110.31-7.71,1.5-11.98.26-16.63-.41-.21.1-.42.21-.63.31-2.56,1.26-6.41,2.99-9.53,4.6Z"/>
          <path class="cls-2" d="M1369.64,509.02s48.51-76.48-44.63-81.54c0,0-34.93,4.11-42.84-3.8,0,0-27.1,41.18-1.79,85.34,25.31,44.15,89.27,0,89.27,0Z"/>
          <path class="cls-16" d="M1289.85,548.93c7.06,5.56,27.76,11.07,33.75,11.72,0,0,30.7-6.85,36.28-10.21,8.64-5.24,8.09-15.84,8.53-30.58.53-17.45,2.29-31.15.34-41.21-2.31-12.03-9.94-18.88-31.31-20.74-39.21-3.4-55.55,6.42-56.23,19.56-.18,3.53-.34,6.9-.46,10.08-1.57,41,1.67,55.54,9.1,61.38Z"/>
          <path class="cls-2" d="M1280.4,500.99c.38,23.75,6.78,37.81,11.43,39.59,5.34,2.05,11.63,3.74,18.19,4.86,2.21.26,4.32.19,4.3-1.07-.07-3.75-5.08-8.36-1.36-11.68,3.9-3.48,24.84-4.65,26.53,2.94.82,3.7-5.93,10.24-1.3,10.39,1.4-.24,2.78-.51,4.1-.85,7.63-1.99,13.61-5.6,16.13-7.12,8.64-5.24,8.08-13.27,9.99-27.89,1.24-9.46,1.24-4.33,0,9.71-1.3,14.69,1.24,24.12-8.53,30.58-5.43,3.6-36.73,17.66-36.73,17.66.46-7.45-26.23-13.61-33.29-19.16-6.56-5.15-9.84-17.07-9.45-47.94Z"/>
          <path class="cls-1" d="M1427.03,934.41c.15,3.95-19.47,17.76-52.41,28.2-2.65.85-5.4,1.66-8.23,2.44-.04.01-.06.04-.07.08-3.07,36.06-11.39,86.99-18.9,136.15h0c-1.94,12.75-3.82,25.37-5.55,37.58-4.58,32.31-8,61.75-8.37,82.94v.22c-.16,9.72,8.04,33.98,8.66,39.58.38,3.43.69,7.05.92,10.85.89,15.18.53,33.12-.69,52.26-5.38,83.57-27.46,190.5-35.34,195.06-15.66,9.05-44.16-.01-58.65-2.13-6-.89-10.8-6-10.49-12.05,7.08-138.7-13.25-331.86-28.44-450.6-.4-3.09-.79-6.12-1.18-9.1-1.82-14-3.02-27.08-3.77-38.87-.69-10.34-1.03-19.73-1.18-27.87-.04-2.54-.06-4.96-.07-7.25-.04-7.43,5.88-56.1,6.15-279.05h0c0-5.15,4.22-9.36,9.37-9.36h136.34c13.18,0,23.78,10.78,23.61,23.96-.21,17.01.4,40.75,4.09,63.42,5.03,30.96,15.81,59.88,38.05,66.84.02,0,.04.02.05.04.1.22.71,1.58,1.68,3.83,0,.01,0,.02,0,.03.21,5.6.45,11.3.7,17.1.05,1.16.1,2.34.16,3.51.02.69.06,1.37.1,2.07.05,1.18.11,2.36.17,3.55.09,1.95.18,3.92.3,5.91.09,1.56.17,3.12.26,4.69.16,3.02.35,6.07.54,9.15.05.99.11,1.97.19,2.97.26,3.98.53,8.03.84,12.1.09,1.25.18,2.5.28,3.76.04.61.09,1.21.14,1.82.12,1.6.25,3.19.38,4.8.14,1.69.28,3.4.43,5.12.54,6.26-.26,11.84-.1,16.23Z"/>
          <path class="cls-2" d="M1342.38,1324.73c-5.38,83.57-27.46,190.5-35.34,195.06-15.66,9.05-44.16-.01-58.65-2.13-6-.89-10.8-6-10.49-12.05,7.08-138.7-13.25-331.86-28.44-450.6-.4-3.09-.79-6.12-1.18-9.1-1.82-14-3.02-27.08-3.77-38.87,7.22-47.08,48-49.6,84.97,47.79-4.58,32.31,54.12,250.76,52.89,269.91Z"/>
          <path class="cls-1" d="M1428.56,1217.88c1.12,9.66,12.43,32.63,13.78,38.11,18.69,75.18,8.37,253.42-.9,260.55-14.34,11.03-43.79,5.79-58.42,5.59-6.06-.09-11.49-4.53-11.98-10.56-11.49-142.02-59.12-337.09-89.75-451.83-15.42-57.8-17.61-100.3-17.61-100.3,0,0,143.15-87.7,158.63-39.79,13.7,42.4-2.39,224.06,6.24,298.24Z"/>
          <g>
            <path class="cls-17" d="M1282.77,406.09c.99-1.11,2.03-2.19,3.14-3.23,4.67-4.44,10.29-8.26,17.05-11.08,24.96-10.41,45.66-.8,58.59,9.04,1.28.96,2.47,1.93,3.59,2.89,7.03,5.98,10.96,11.31,10.96,11.31,0,0,12.12,16.54,11.72,51.39l-124.86,1.33s-1.83-37.65,19.81-61.66Z"/>
            <g>
              <path class="cls-9" d="M1352.78,466.78l-6.86.08c-.14-1.99.19-47.3,17.1-64.9,1.28.96,1.01.79,2.12,1.76-16.05,15.49-12.39,62.6-12.36,63.06Z"/>
              <path class="cls-9" d="M1298.52,467.37c-1.43-27.74-12.05-56.9-14.92-62.08.99-1.14,1.2-1.35,2.3-2.43,1.99,3.43,18.27,33.62,20,64.43l81.92-.88s-41.51,9.31-66.56,9.62c-25.05.31-58.3-8.29-58.3-8.29l35.56-.38Z"/>
            </g>
          </g>
          <path class="cls-1" d="M1383.12,591.48s-42.19,49.15-44.66,92.03l21.49,1.14s5.41-47.76,37.16-90.23c0,0-4.97-1.2-6.62-1.53-2.21-.44-7.38-1.41-7.38-1.41Z"/>
          <path class="cls-1" d="M1277.93,590.81c-30.22,45.73-33.46,93.63-33.46,93.63l-21.69-.37c1.78-33.71,22.96-70.79,34.65-88.35,0,0,15.01-3.79,20.5-4.91Z"/>
          <path class="cls-20" d="M1416.88,855.31c-1.06,50.32,5.21,150.53,5.21,150.53h29.69c14.02-70.51,18.96-115.87,18.96-140.61,0-4.87-.03-9.41-.06-13.61-.18-21.13-.75-33.4-.75-33.4,5.57-128.02-20-196.48-28.03-205.9-8.04-9.43-44.78-17.9-44.78-17.9,0,0-12.14,35.37-17.08,63.82-4.95,28.45,38.92,148,37.11,188.86-.11,2.55-.2,5.29-.26,8.21Z"/>
          <path class="cls-16" d="M975.41,869.82c6.34,8.99,10.37,13.78,19,16.13,12.53,3.42,23.69-2.79,31.95-7.55,6.32-3.64,14.21-3.94,17.58-3.88,19.42,4.74,39.43,22.72,126.65,7.92,10.53-12.58,3.81-37.25-18.92-59.9-36.47,9.64-100.64,21.8-112.13,29.25,0,0-14.67-4.22-23.78-1.79-3.45.92-7.31,3.42-10.77,6.18-5.45,4.33-12.86,4.68-19.32.79-6.22-3.75-12.88-4.62-15.2-3.78-3.6,1.31.94,10.98,4.93,16.63Z"/>
          <path class="cls-20" d="M1370.32,970.18l-92.52-7.47c-4.48-.36-7,5.02-3.87,8.24l64.87,66.39c2.37,2.42,6.43,1.74,7.87-1.33l12.66-26.98,30.33,14.23,2.33-4.96-30.33-14.23,12.66-26.98c1.44-3.07-.63-6.63-4.01-6.91Z"/>
          <path class="cls-3" d="M953.74,852.44l121.25,40.3c4.11,1.37,8.54-.86,9.91-4.97l10.27-30.91c1.36-4.11-.86-8.54-4.97-9.91l-121.25-40.3c-4.11-1.37-8.54.86-9.91,4.97l-10.27,30.91c-1.36,4.11.86,8.54,4.97,9.91Z"/>
          <path class="cls-17" d="M1472.2,1056.27h0c-1.55,3.59-5.72,5.24-9.3,3.69l-72.1-31.15c-3.59-1.55-5.24-5.72-3.69-9.3h0c1.55-3.59,5.72-5.24,9.3-3.69l72.1,31.15c3.59,1.55,5.24,5.72,3.69,9.3Z"/>
          <path class="cls-16" d="M1422.09,1005.84s-6.27-100.21-5.21-150.53c23.74-7.66,42.89-5.98,53.8-3.69.04,4.19.06,8.73.06,13.61,0,24.74-4.95,70.1-18.96,140.61,6.18,25.98,5.77,54.02-4.95,58.97-10.72,4.95-46.18-13.61-45.77-21.85.41-8.25,21.03-37.11,21.03-37.11Z"/>
        </g>
        <g>
          <g>
            <g>
              <g>
                <path class="cls-17" d="M510.83,1038.84h144.48c7.97,0,14.45,6.47,14.45,14.45v108.36c0,7.97-6.47,14.45-14.45,14.45h-144.48c-7.97,0-14.45-6.47-14.45-14.45v-108.36c0-7.97,6.47-14.45,14.45-14.45Z"/>
                <path class="cls-9" d="M557.79,1038.84h144.48c7.97,0,14.45,6.47,14.45,14.45v108.36c0,7.97-6.47,14.45-14.45,14.45h-144.48c-7.97,0-14.45-6.47-14.45-14.45v-108.36c0-7.97,6.47-14.45,14.45-14.45Z"/>
              </g>
              <path class="cls-17" d="M526.48,1039.45s34.31-25.28,39.43-24.68c5.12.6,13.24,2.41,13.24,2.41l-30.7,23.18-21.97-.9Z"/>
            </g>
            <path class="cls-8" d="M797.32,640.06c-13.76-10.4-45.88-19.1-61.98-20.93-3.78-.42-15.09-.47-15.21-.47,0,11.57-24.65,21.56-44.73,20.25-16.93-1.11-27.92-13.98-27.92-20.95v-.02c-1.31,0-67.28,45.79-75.57,91.41-.55,3.05-.85,6.08-.85,9.11-.26,216.99-13.41,250.27-9.26,250.2,0,0,24.68,18.99,70.48,23.48,5.92.59,12.2.93,18.82.95,20.25.07,38.86-2.11,55.32-5.49,9.17-1.88,17.69-4.14,25.43-6.6,32.06-10.16,51.16-23.61,51.01-27.45-.16-4.27.63-9.7.1-15.8-2-22.97-3.09-43.04-3.94-63.26,34.8,3.06,54.87-.39,54.87-.39,28.5-61.32-17.95-219.99-36.56-234.05ZM789.19,816.69c-2.12.57-4.42,1.11-6.87,1.63-1.7.37-3.47.72-5.3,1.06-.04-.83-.06-1.67-.1-2.49-.47-11.37-1-22.19-1.75-32.48-.63-8.62-1.4-16.87-2.41-24.74,12,31.65,20.37,55.97,16.42,57.03Z"/>
            <path class="cls-16" d="M647.48,617.96s-50.96,7.72-72.91,26.01c-21.94,18.29-24.16,134.72-31.48,167.64-1.44,6.46-2.73,16.9-3.84,29.61-3.92,44.67.78,106.61,4.67,129.51.41,5.52.2,13.63-2.99,21.61-5.62,14.05-6.82,18.06,3.21,26.09,10.03,8.03,20.87,19.26,28.49,16.05,5.88-2.48,4.84-41.49,4.05-59.2,8.8-37.84,23.06-108.87,36.48-177.7,17.9-91.77,34.31-179.62,34.31-179.62Z"/>
            <path class="cls-8" d="M647.48,617.97s-9.46,50.63-21.85,115.16c-3.92,20.48-8.15,42.36-12.46,64.46-17.54,34.37-32.59,57.74-37.24,53.35-9.49-8.96-26.14-10.07-36.67-9.73,1.11-12.71,2.41-23.14,3.84-29.61.58-2.6,1.12-5.72,1.65-9.27,6.14-41.42,9.62-141.53,29.82-158.36,10.63-8.85,28.06-15.23,43.22-19.47h.01c7.74-2.16,14.89-3.74,20.24-4.83,5.78-1.16,9.44-1.71,9.44-1.71Z"/>
            <path class="cls-14" d="M575.93,850.94c-9.48-8.96-26.14-10.06-36.68-9.73,1.11-12.71,2.41-23.15,3.84-29.61.58-2.6,1.12-5.72,1.65-9.27l52.58-126.94s-16.75,179.94-21.4,175.54Z"/>
            <path class="cls-16" d="M720.26,616.67c.39-17.72.09-38.87-2.3-56.75l-70.72,11.56s0,21.58.31,45.53c-.04,0-.07,0-.07,0,0,0-1.93,22.21,25.43,25.47,27.36,3.25,48.08-8.67,47.35-25.81Z"/>
            <path class="cls-2" d="M661.07,1556.25c8.89-5.47,3.69-46.31,3.69-46.31,0,0-41.65-33.06-47.26-7.61-5.61,25.46-39.31,37-58.5,40.19-13.25,2.2-17.33,9.56-18.58,13.9l120.66-.17Z"/>
            <path class="cls-14" d="M782.33,818.37s-13.24,17.9-15.95,17.9-36.12-12.94-26.54-41.89c9.58-28.94,32.93-34.74,32.93-34.74,1.01,7.87,1.78,16.12,2.41,24.74.75,10.29,1.28,21.12,1.75,32.48.04.82.06,1.66.1,2.49,1.83-.34,3.6-.69,5.3-1.06v.06Z"/>
            <path class="cls-2" d="M788.7,1556.25c8.89-5.47,3.69-46.31,3.69-46.31,0,0-41.65-33.06-47.26-7.61-5.61,25.46-39.31,37-58.5,40.19-13.25,2.2-17.33,9.56-18.58,13.9l120.66-.17Z"/>
            <path class="cls-1" d="M782.86,953.56c.14,3.84-18.95,17.29-51.01,27.45-2.58.83-5.26,1.61-8.01,2.38-.04,0-.06.04-.07.08-2.99,35.09-11.09,84.67-18.39,132.51h0c-1.89,12.41-3.72,24.69-5.41,36.58-4.45,31.45-7.79,60.1-8.15,80.73v.22c-.16,9.46,7.83,33.07,8.43,38.53.37,3.34.67,6.86.89,10.56.87,14.77.52,32.23-.67,50.87-5.24,81.34-26.73,185.41-34.4,189.84-15.24,8.81-42.98-.01-57.08-2.07-5.84-.87-10.51-5.84-10.21-11.73,6.89-134.99-12.89-322.99-27.68-438.56-.39-3.01-.77-5.96-1.14-8.86-1.77-13.63-2.94-26.36-3.67-37.83-.67-10.07-1-19.2-1.14-27.13-.04-2.47-.06-4.83-.07-7.06-.04-7.24,5.72-54.6,5.98-271.59h0c0-5.01,4.11-9.11,9.12-9.11h132.7c12.82,0,23.14,10.49,22.98,23.32-.21,16.55.39,39.67,3.98,61.72,4.9,30.13,15.39,58.28,37.03,65.05.02,0,.04.02.05.04.1.22.69,1.54,1.64,3.73,0,0,0,.02,0,.03.2,5.45.43,10.99.69,16.65.05,1.13.1,2.28.16,3.42.02.67.06,1.34.1,2.01.05,1.14.11,2.3.17,3.46.08,1.9.18,3.82.29,5.76.08,1.52.17,3.03.25,4.56.16,2.94.34,5.91.53,8.91.05.96.11,1.91.18,2.89.25,3.88.52,7.81.82,11.77.08,1.22.18,2.43.28,3.66.04.59.08,1.18.13,1.77.12,1.55.24,3.11.37,4.67.13,1.65.28,3.31.42,4.98.53,6.09-.25,11.52-.1,15.8Z"/>
            <path class="cls-2" d="M700.47,1333.45c-5.24,81.34-26.73,185.41-34.4,189.84-15.24,8.81-42.98-.01-57.08-2.07-5.84-.87-10.51-5.84-10.21-11.73,6.89-134.99-12.89-322.99-27.68-438.56-.39-3.01-.77-5.96-1.14-8.86-1.77-13.63-2.94-26.36-3.67-37.83,7.03-45.82,46.71-48.28,82.7,46.51,15.42,36.72,52.67,244.06,51.48,262.7Z"/>
            <path class="cls-1" d="M784.35,1229.45c1.09,9.4,12.1,31.76,13.42,37.09,18.19,73.17,8.14,246.65-.88,253.59-13.95,10.74-42.62,5.63-56.86,5.44-5.9-.08-11.18-4.41-11.66-10.28-11.19-138.23-57.54-328.08-87.35-439.76-15.01-56.26-17.14-97.62-17.14-97.62,0,0,139.32-85.36,154.39-38.73,13.33,41.26-2.33,218.07,6.08,290.27Z"/>
            <path class="cls-1" d="M740.11,619.78s-41.06,47.83-43.47,89.57h20.87s5.32-45.37,36.22-86.71l-13.62-2.86Z"/>
            <path class="cls-1" d="M638.04,619.68c-29.41,44.51-32.9,89.67-32.9,89.67h-20.87c1.73-32.81,22.14-67.75,33.52-84.84h.01c7.74-2.16,14.89-3.74,20.24-4.83Z"/>
            <path class="cls-17" d="M850.01,878.22c-.78-15.9-2.96-34.81-7.1-57.29-.01,10.83-.72,21.08-2.31,30.35,5.16,41.15,3.17,72.6-6,90.41-5.68,11.04-13.55,19.52-23.07,25.19,4.85-4.72,9.13-10.35,12.75-16.83,7.05-12.63,13.54-36.14,11.13-79.51-.49,1.23-.99,2.43-1.53,3.59,0,0-1.79.31-5.23.66,1.41,31.71-1.97,55.99-10.07,70.52-6.13,11.01-14.46,19.23-24.4,24.46,3.13-3.1,6.01-6.59,8.68-10.48,8.36-12.29,17.09-36.45,17.46-83.87-2.09.12-4.4.22-6.94.29-.39,36.35-5.75,63.4-15.84,78.19-.46.68-.95,1.37-1.45,2.03,7.66-13.14,14.98-36.96,15.36-80.18-2.17.03-4.49.06-6.95.03-.36,36.32-5.75,63.35-15.83,78.12-6.32,9.26-14.24,16.04-23.34,20.22-2.78-.47-5.63-1.1-8.48-1.86-.39-.09-.77-.19-1.15-.31-.04-.01-.08-.02-.12-.03-.37-.1-.76-.21-1.14-.32-3.49-1.01-6.87-2.17-10.15-3.48-40.15-15.94-63.18-51.84-65.42-81.35-1.59-20.96.11-52.17,4.35-86.12,8.34-66.9,26.51-144.46,48.61-175.28.37-.52.73-1.03,1.1-1.51,0,0,0-.01.01-.01.46-.61.93-1.2,1.4-1.75.82-.98,1.62-1.9,2.45-2.74t.02-.02c1.73-1.78,3.46-3.18,5.15-4.21.46.28.97.62,1.52,1.06,1.43,1.09,3.14,2.76,5.12,5.27.01.02.03.03.04.06,2.31.5,4.7,1.07,7.15,1.69,1.14.31,2.31.61,3.48.95.08.01.14.02.22.05.28.06.55.14.82.22,1.43.4,2.87.82,4.31,1.25.82.25,1.64.51,2.46.76.97.31,1.93.62,2.89.94,1.05.35,2.1.71,3.13,1.07,1.1.39,2.21.78,3.29,1.19-.02-.03-.04-.07-.07-.1-13.01-20.5-22.25-25.27-28.25-24.99-.94.04-1.86.17-2.81.38-1.09-.29-2.1-.41-3.01-.41-2.01.01-4.03.39-6.05,1.11-6.18.6-12.68,4.5-19.41,11.68-.46.47-.92.98-1.38,1.5-3.74,4.21-7.48,9.34-11.21,15.22-.02.03-.04.07-.07.1-35.58,56.23-68.75,181.15-70.73,239.62-1.56,46.27,34.07,87.64,70.07,104.58,3.52,1.65,7.02,3.09,10.47,4.29,1.95.68,3.88,1.29,5.8,1.83.04.01.08.02.12.03,7.46,2.1,14.71,3.13,21.66,3.13,1.49,0,2.96-.04,4.41-.14,1.5.1,2.99.14,4.47.14,6.54,0,12.83-.92,18.77-2.74.94-.04,1.88-.11,2.8-.18.79-.08,1.59-.14,2.36-.24,1.52-.18,3.03-.41,4.52-.68,4.36.02,8.6-.3,12.71-.98,12.93-2.12,24.4-7.68,33.79-16.42,5.91-5.49,11-12.25,15.09-20.19,6-11.69,11.32-32.24,9.55-67.96ZM640.33,874.07c1.74-51.75,30.04-161.66,61.33-221.01-1.09,2.63-2.2,5.34-3.28,8.13-29.57,62.62-54.4,162.21-56.09,212.53-.72,21.05,6.27,41.07,17.49,58.25-13.51-18.96-20.06-40.18-19.45-57.91ZM714.83,970.45c-44.53-20.96-66.72-64.35-65.63-96.38.95-28.43,9.93-74.43,23.01-119.95-10.2,49.2-15.9,99.11-14.5,129.77,1.77,38.82,29.35,71.1,60.15,87.92-1.01-.42-2.01-.87-3.03-1.36ZM664.6,883.43c-2.03-44.39,12-133.78,32.75-197.9,2.33-7.17,4.73-14.03,7.22-20.49.93-1.96,1.85-3.87,2.78-5.76-15.97,43.75-27.98,106.28-33.18,158.8-2.67,27.15-3.52,51.62-2.17,69.45,2.43,32.04,22.4,58.8,46.93,75.82-34.21-18.91-53.08-52.56-54.32-79.93Z"/>
            <path class="cls-16" d="M782.33,818.37c-1.13.17-22.47,4.06-23.63,4.23-35.54,5.21-83.35,7.5-88.33,7.73-.47-.44-17.43-16.23-24.04-16.23s-26.04,7.04-28.01,12.46c-1.97,5.42-2.76,15.17,2.76,17.34,5.52,2.17,28.4,7.59,34.32,8.13.81.07,1.78.07,2.84-.02,42.5,12.49,79.09,18.63,107.28,21.53,2.52.26,17.06,2.15,29.97,2.02-.45-24.54-8.71-47.2-13.16-57.18Z"/>
            <path class="cls-11" d="M727,539.53s47.21-74.44-43.44-79.36c0,0-34,4-41.7-3.69,0,0-26.37,40.08-1.74,83.06,24.63,42.97,86.89,0,86.89,0Z"/>
            <path class="cls-16" d="M649.34,578.37c6.87,5.41,27.02,10.78,32.85,11.4,0,0,29.88-6.66,35.31-9.94,8.41-5.1,7.87-15.42,8.3-29.77.52-16.98,2.23-30.32.33-40.11-2.25-11.71-9.68-18.37-30.47-20.19-38.17-3.31-54.07,6.24-54.73,19.04-.17,3.44-.33,6.71-.44,9.82-1.53,39.9,1.63,54.05,8.86,59.74Z"/>
            <g>
              <path class="cls-17" d="M733.29,448.04s-3.82-5.19-10.67-11.01c-1.08-.94-2.25-1.88-3.49-2.82-12.59-9.58-32.74-18.93-57.03-8.8-6.58,2.74-12.06,6.47-16.6,10.79-1.08,1.02-2.1,2.06-3.06,3.14-21.06,23.37-19.28,60.01-19.28,60.01l121.53-1.3c.39-33.93-11.41-50.02-11.41-50.02Z"/>
              <g>
                <path class="cls-9" d="M710.59,498.41c-.03-.45-3.59-46.3,12.03-61.38-1.08-.94-.83-.77-2.07-1.71-16.45,17.12-16.78,61.23-16.64,63.16l6.68-.08Z"/>
                <path class="cls-9" d="M665.05,498.91c-1.15-29.76-17.58-59.4-19.55-62.71-1.08,1.02-1.28,1.22-2.24,2.3,2.85,5.02,13.58,33.71,14.6,60.48l-34.69.37s32.37,8.37,56.75,8.06c24.38-.3,64.78-9.36,64.78-9.36l-79.64.85Z"/>
              </g>
            </g>
          </g>
          <path class="cls-12" d="M647.48,576.61s12.02,9.16,34.7,13.17c0,0,12.43.59,37.5-11.56,0,0-30.95,26.02-37.65,26.27-6.7.25-34.55-27.88-34.55-27.88Z"/>
        </g>
        <g>
          <path class="cls-2" d="M1401.84,1550.41c9.14-5.62,3.77-47.29,3.77-47.29,0,0-42.79-33.97-48.56-7.82-5.77,26.15-40.39,38.02-60.11,41.29-13.61,2.26-18.64,9.3-19.93,13.77l124.83.05Z"/>
          <path class="cls-2" d="M1532.96,1550.41c9.14-5.62,3.77-47.29,3.77-47.29,0,0-42.79-33.97-48.56-7.82-5.77,26.15-40.39,38.02-60.11,41.29-13.61,2.26-18.56,9.3-19.85,13.77l124.75.05Z"/>
          <path class="cls-2" d="M1288.39,1135.23v50.82H165.01c-5.7,0-10.32,4.62-10.32,10.32v374.92h2402.08v-436.06h-1268.37Z"/>
          <path class="cls-3" d="M2425.28,1522.72h127.94c4.33,0,7.85,3.52,7.85,7.85v32.61c0,4.33-3.52,7.85-7.85,7.85h-127.94c-4.33,0-7.85-3.52-7.85-7.85v-32.61c0-4.33,3.52-7.85,7.85-7.85Z"/>
          <path class="cls-3" d="M2274.03,1522.72h127.94c4.33,0,7.85,3.52,7.85,7.85v32.61c0,4.33-3.52,7.85-7.85,7.85h-127.94c-4.33,0-7.85-3.52-7.85-7.85v-32.61c0-4.33,3.52-7.85,7.85-7.85Z"/>
          <path class="cls-3" d="M2122.79,1522.72h127.94c4.33,0,7.85,3.52,7.85,7.85v32.61c0,4.33-3.52,7.85-7.85,7.85h-127.94c-4.33,0-7.85-3.52-7.85-7.85v-32.61c0-4.33,3.52-7.85,7.85-7.85Z"/>
          <path class="cls-3" d="M1971.54,1522.72h127.94c4.33,0,7.85,3.52,7.85,7.85v32.61c0,4.33-3.52,7.85-7.85,7.85h-127.94c-4.33,0-7.85-3.52-7.85-7.85v-32.61c0-4.33,3.52-7.85,7.85-7.85Z"/>
          <path class="cls-3" d="M1820.3,1522.72h127.94c4.33,0,7.85,3.52,7.85,7.85v32.61c0,4.33-3.52,7.85-7.85,7.85h-127.94c-4.33,0-7.85-3.52-7.85-7.85v-32.61c0-4.33,3.52-7.85,7.85-7.85Z"/>
          <path class="cls-3" d="M1669.06,1522.72h127.94c4.33,0,7.85,3.52,7.85,7.85v32.61c0,4.33-3.52,7.85-7.85,7.85h-127.94c-4.33,0-7.85-3.52-7.85-7.85v-32.61c0-4.33,3.52-7.85,7.85-7.85Z"/>
          <path class="cls-3" d="M1517.81,1522.72h127.94c4.33,0,7.85,3.52,7.85,7.85v32.61c0,4.33-3.52,7.85-7.85,7.85h-127.94c-4.33,0-7.85-3.52-7.85-7.85v-32.61c0-4.33,3.52-7.85,7.85-7.85Z"/>
          <path class="cls-3" d="M1366.57,1522.72h127.94c4.33,0,7.85,3.52,7.85,7.85v32.61c0,4.33-3.52,7.85-7.85,7.85h-127.94c-4.33,0-7.85-3.52-7.85-7.85v-32.61c0-4.33,3.52-7.85,7.85-7.85Z"/>
          <path class="cls-3" d="M1214.37,1522.72h127.94c4.33,0,7.85,3.52,7.85,7.85v32.61c0,4.33-3.52,7.85-7.85,7.85h-127.94c-4.33,0-7.85-3.52-7.85-7.85v-32.61c0-4.33,3.52-7.85,7.85-7.85Z"/>
          <path class="cls-3" d="M1063.13,1522.72h127.94c4.33,0,7.85,3.52,7.85,7.85v32.61c0,4.33-3.52,7.85-7.85,7.85h-127.94c-4.33,0-7.85-3.52-7.85-7.85v-32.61c0-4.33,3.52-7.85,7.85-7.85Z"/>
          <path class="cls-3" d="M911.89,1522.72h127.94c4.33,0,7.85,3.52,7.85,7.85v32.61c0,4.33-3.52,7.85-7.85,7.85h-127.94c-4.33,0-7.85-3.52-7.85-7.85v-32.61c0-4.33,3.52-7.85,7.85-7.85Z"/>
          <path class="cls-3" d="M760.64,1522.72h127.94c4.33,0,7.85,3.52,7.85,7.85v32.61c0,4.33-3.52,7.85-7.85,7.85h-127.94c-4.33,0-7.85-3.52-7.85-7.85v-32.61c0-4.33,3.52-7.85,7.85-7.85Z"/>
          <path class="cls-3" d="M609.4,1522.72h127.94c4.33,0,7.85,3.52,7.85,7.85v32.61c0,4.33-3.52,7.85-7.85,7.85h-127.94c-4.33,0-7.85-3.52-7.85-7.85v-32.61c0-4.33,3.52-7.85,7.85-7.85Z"/>
          <path class="cls-3" d="M458.16,1522.72h127.94c4.33,0,7.85,3.52,7.85,7.85v32.61c0,4.33-3.52,7.85-7.85,7.85h-127.94c-4.33,0-7.85-3.52-7.85-7.85v-32.61c0-4.33,3.52-7.85,7.85-7.85Z"/>
          <path class="cls-3" d="M306.91,1522.72h127.94c4.33,0,7.85,3.52,7.85,7.85v32.61c0,4.33-3.52,7.85-7.85,7.85h-127.94c-4.33,0-7.85-3.52-7.85-7.85v-32.61c0-4.33,3.52-7.85,7.85-7.85Z"/>
          <path class="cls-3" d="M155.67,1522.72h127.94c4.33,0,7.85,3.52,7.85,7.85v32.61c0,4.33-3.52,7.85-7.85,7.85h-127.94c-4.33,0-7.85-3.52-7.85-7.85v-32.61c0-4.33,3.52-7.85,7.85-7.85Z"/>
          <path class="cls-3" d="M2499.48,1467.54h55.11c4.33,0,7.85,3.52,7.85,7.85v32.61c0,4.33-3.52,7.85-7.85,7.85h-55.11c-4.33,0-7.85-3.52-7.85-7.85v-32.61c0-4.33,3.52-7.85,7.85-7.85Z"/>
          <path class="cls-3" d="M2348.24,1467.54h127.94c4.33,0,7.85,3.52,7.85,7.85v32.61c0,4.33-3.52,7.85-7.85,7.85h-127.94c-4.33,0-7.85-3.52-7.85-7.85v-32.61c0-4.33,3.52-7.85,7.85-7.85Z"/>
          <path class="cls-3" d="M2196.99,1467.54h127.94c4.33,0,7.85,3.52,7.85,7.85v32.61c0,4.33-3.52,7.85-7.85,7.85h-127.94c-4.33,0-7.85-3.52-7.85-7.85v-32.61c0-4.33,3.52-7.85,7.85-7.85Z"/>
          <rect class="cls-3" x="2037.9" y="1467.54" width="143.63" height="48.31" rx="7.85" ry="7.85"/>
          <rect class="cls-3" x="1886.66" y="1467.54" width="143.63" height="48.31" rx="7.85" ry="7.85"/>
          <rect class="cls-3" x="1735.42" y="1467.54" width="143.63" height="48.31" rx="7.85" ry="7.85"/>
          <rect class="cls-3" x="1584.17" y="1467.54" width="143.63" height="48.31" rx="7.85" ry="7.85"/>
          <rect class="cls-3" x="1432.93" y="1467.54" width="143.63" height="48.31" rx="7.85" ry="7.85"/>
          <path class="cls-3" d="M1288.58,1467.54h127.94c4.33,0,7.85,3.52,7.85,7.85v32.61c0,4.33-3.52,7.85-7.85,7.85h-127.94c-4.33,0-7.85-3.52-7.85-7.85v-32.61c0-4.33,3.52-7.85,7.85-7.85Z"/>
          <path class="cls-3" d="M1137.34,1467.54h127.94c4.33,0,7.85,3.52,7.85,7.85v32.61c0,4.33-3.52,7.85-7.85,7.85h-127.94c-4.33,0-7.85-3.52-7.85-7.85v-32.61c0-4.33,3.52-7.85,7.85-7.85Z"/>
          <path class="cls-3" d="M986.09,1467.54h127.94c4.33,0,7.85,3.52,7.85,7.85v32.61c0,4.33-3.52,7.85-7.85,7.85h-127.94c-4.33,0-7.85-3.52-7.85-7.85v-32.61c0-4.33,3.52-7.85,7.85-7.85Z"/>
          <path class="cls-3" d="M834.85,1467.54h127.94c4.33,0,7.85,3.52,7.85,7.85v32.61c0,4.33-3.52,7.85-7.85,7.85h-127.94c-4.33,0-7.85-3.52-7.85-7.85v-32.61c0-4.33,3.52-7.85,7.85-7.85Z"/>
          <rect class="cls-3" x="675.76" y="1467.54" width="143.63" height="48.31" rx="7.85" ry="7.85"/>
          <rect class="cls-3" x="524.51" y="1467.54" width="143.63" height="48.31" rx="7.85" ry="7.85"/>
          <rect class="cls-3" x="373.27" y="1467.54" width="143.63" height="48.31" rx="7.85" ry="7.85"/>
          <rect class="cls-3" x="222.03" y="1467.54" width="143.63" height="48.31" rx="7.85" ry="7.85"/>
          <path class="cls-3" d="M153.75,1467.54h55.11c4.33,0,7.85,3.52,7.85,7.85v32.61c0,4.33-3.52,7.85-7.85,7.85h-55.11c-4.33,0-7.85-3.52-7.85-7.85v-32.61c0-4.33,3.52-7.85,7.85-7.85Z"/>
          <rect class="cls-3" x="2417.43" y="1411.41" width="143.63" height="48.31" rx="7.85" ry="7.85"/>
          <path class="cls-3" d="M2274.03,1411.41h127.94c4.33,0,7.85,3.52,7.85,7.85v32.61c0,4.33-3.52,7.85-7.85,7.85h-127.94c-4.33,0-7.85-3.52-7.85-7.85v-32.61c0-4.33,3.52-7.85,7.85-7.85Z"/>
          <path class="cls-3" d="M2122.79,1411.41h127.94c4.33,0,7.85,3.52,7.85,7.85v32.61c0,4.33-3.52,7.85-7.85,7.85h-127.94c-4.33,0-7.85-3.52-7.85-7.85v-32.61c0-4.33,3.52-7.85,7.85-7.85Z"/>
          <path class="cls-3" d="M1971.54,1411.41h127.94c4.33,0,7.85,3.52,7.85,7.85v32.61c0,4.33-3.52,7.85-7.85,7.85h-127.94c-4.33,0-7.85-3.52-7.85-7.85v-32.61c0-4.33,3.52-7.85,7.85-7.85Z"/>
          <path class="cls-3" d="M1820.3,1411.41h127.94c4.33,0,7.85,3.52,7.85,7.85v32.61c0,4.33-3.52,7.85-7.85,7.85h-127.94c-4.33,0-7.85-3.52-7.85-7.85v-32.61c0-4.33,3.52-7.85,7.85-7.85Z"/>
          <path class="cls-3" d="M1669.06,1411.41h127.94c4.33,0,7.85,3.52,7.85,7.85v32.61c0,4.33-3.52,7.85-7.85,7.85h-127.94c-4.33,0-7.85-3.52-7.85-7.85v-32.61c0-4.33,3.52-7.85,7.85-7.85Z"/>
          <path class="cls-3" d="M1517.81,1411.41h127.94c4.33,0,7.85,3.52,7.85,7.85v32.61c0,4.33-3.52,7.85-7.85,7.85h-127.94c-4.33,0-7.85-3.52-7.85-7.85v-32.61c0-4.33,3.52-7.85,7.85-7.85Z"/>
          <path class="cls-3" d="M1366.57,1411.41h127.94c4.33,0,7.85,3.52,7.85,7.85v32.61c0,4.33-3.52,7.85-7.85,7.85h-127.94c-4.33,0-7.85-3.52-7.85-7.85v-32.61c0-4.33,3.52-7.85,7.85-7.85Z"/>
          <path class="cls-3" d="M1214.37,1411.41h127.94c4.33,0,7.85,3.52,7.85,7.85v32.61c0,4.33-3.52,7.85-7.85,7.85h-127.94c-4.33,0-7.85-3.52-7.85-7.85v-32.61c0-4.33,3.52-7.85,7.85-7.85Z"/>
          <path class="cls-3" d="M1063.13,1411.41h127.94c4.33,0,7.85,3.52,7.85,7.85v32.61c0,4.33-3.52,7.85-7.85,7.85h-127.94c-4.33,0-7.85-3.52-7.85-7.85v-32.61c0-4.33,3.52-7.85,7.85-7.85Z"/>
          <path class="cls-3" d="M911.89,1411.41h127.94c4.33,0,7.85,3.52,7.85,7.85v32.61c0,4.33-3.52,7.85-7.85,7.85h-127.94c-4.33,0-7.85-3.52-7.85-7.85v-32.61c0-4.33,3.52-7.85,7.85-7.85Z"/>
          <path class="cls-3" d="M760.64,1411.41h127.94c4.33,0,7.85,3.52,7.85,7.85v32.61c0,4.33-3.52,7.85-7.85,7.85h-127.94c-4.33,0-7.85-3.52-7.85-7.85v-32.61c0-4.33,3.52-7.85,7.85-7.85Z"/>
          <path class="cls-3" d="M609.4,1411.41h127.94c4.33,0,7.85,3.52,7.85,7.85v32.61c0,4.33-3.52,7.85-7.85,7.85h-127.94c-4.33,0-7.85-3.52-7.85-7.85v-32.61c0-4.33,3.52-7.85,7.85-7.85Z"/>
          <path class="cls-3" d="M458.16,1411.41h127.94c4.33,0,7.85,3.52,7.85,7.85v32.61c0,4.33-3.52,7.85-7.85,7.85h-127.94c-4.33,0-7.85-3.52-7.85-7.85v-32.61c0-4.33,3.52-7.85,7.85-7.85Z"/>
          <path class="cls-3" d="M306.91,1411.41h127.94c4.33,0,7.85,3.52,7.85,7.85v32.61c0,4.33-3.52,7.85-7.85,7.85h-127.94c-4.33,0-7.85-3.52-7.85-7.85v-32.61c0-4.33,3.52-7.85,7.85-7.85Z"/>
          <path class="cls-3" d="M155.67,1411.41h127.94c4.33,0,7.85,3.52,7.85,7.85v32.61c0,4.33-3.52,7.85-7.85,7.85h-127.94c-4.33,0-7.85-3.52-7.85-7.85v-32.61c0-4.33,3.52-7.85,7.85-7.85Z"/>
          <path class="cls-3" d="M2499.48,1356.24h55.11c4.33,0,7.85,3.52,7.85,7.85v32.61c0,4.33-3.52,7.85-7.85,7.85h-55.11c-4.33,0-7.85-3.52-7.85-7.85v-32.61c0-4.33,3.52-7.85,7.85-7.85Z"/>
          <path class="cls-3" d="M2348.24,1356.24h127.94c4.33,0,7.85,3.52,7.85,7.85v32.61c0,4.33-3.52,7.85-7.85,7.85h-127.94c-4.33,0-7.85-3.52-7.85-7.85v-32.61c0-4.33,3.52-7.85,7.85-7.85Z"/>
          <path class="cls-3" d="M2196.99,1356.24h127.94c4.33,0,7.85,3.52,7.85,7.85v32.61c0,4.33-3.52,7.85-7.85,7.85h-127.94c-4.33,0-7.85-3.52-7.85-7.85v-32.61c0-4.33,3.52-7.85,7.85-7.85Z"/>
          <path class="cls-3" d="M2045.75,1356.24h127.94c4.33,0,7.85,3.52,7.85,7.85v32.61c0,4.33-3.52,7.85-7.85,7.85h-127.94c-4.33,0-7.85-3.52-7.85-7.85v-32.61c0-4.33,3.52-7.85,7.85-7.85Z"/>
          <path class="cls-3" d="M1894.51,1356.24h127.94c4.33,0,7.85,3.52,7.85,7.85v32.61c0,4.33-3.52,7.85-7.85,7.85h-127.94c-4.33,0-7.85-3.52-7.85-7.85v-32.61c0-4.33,3.52-7.85,7.85-7.85Z"/>
          <path class="cls-3" d="M1743.26,1356.24h127.94c4.33,0,7.85,3.52,7.85,7.85v32.61c0,4.33-3.52,7.85-7.85,7.85h-127.94c-4.33,0-7.85-3.52-7.85-7.85v-32.61c0-4.33,3.52-7.85,7.85-7.85Z"/>
          <path class="cls-3" d="M1592.02,1356.24h127.94c4.33,0,7.85,3.52,7.85,7.85v32.61c0,4.33-3.52,7.85-7.85,7.85h-127.94c-4.33,0-7.85-3.52-7.85-7.85v-32.61c0-4.33,3.52-7.85,7.85-7.85Z"/>
          <path class="cls-3" d="M1440.78,1356.24h127.94c4.33,0,7.85,3.52,7.85,7.85v32.61c0,4.33-3.52,7.85-7.85,7.85h-127.94c-4.33,0-7.85-3.52-7.85-7.85v-32.61c0-4.33,3.52-7.85,7.85-7.85Z"/>
          <path class="cls-3" d="M1288.58,1356.24h127.94c4.33,0,7.85,3.52,7.85,7.85v32.61c0,4.33-3.52,7.85-7.85,7.85h-127.94c-4.33,0-7.85-3.52-7.85-7.85v-32.61c0-4.33,3.52-7.85,7.85-7.85Z"/>
          <rect class="cls-3" x="1129.49" y="1356.24" width="143.63" height="48.31" rx="7.85" ry="7.85"/>
          <path class="cls-3" d="M986.09,1356.24h127.94c4.33,0,7.85,3.52,7.85,7.85v32.61c0,4.33-3.52,7.85-7.85,7.85h-127.94c-4.33,0-7.85-3.52-7.85-7.85v-32.61c0-4.33,3.52-7.85,7.85-7.85Z"/>
          <path class="cls-3" d="M834.85,1356.24h127.94c4.33,0,7.85,3.52,7.85,7.85v32.61c0,4.33-3.52,7.85-7.85,7.85h-127.94c-4.33,0-7.85-3.52-7.85-7.85v-32.61c0-4.33,3.52-7.85,7.85-7.85Z"/>
          <path class="cls-3" d="M683.61,1356.24h127.94c4.33,0,7.85,3.52,7.85,7.85v32.61c0,4.33-3.52,7.85-7.85,7.85h-127.94c-4.33,0-7.85-3.52-7.85-7.85v-32.61c0-4.33,3.52-7.85,7.85-7.85Z"/>
          <path class="cls-3" d="M532.36,1356.24h127.94c4.33,0,7.85,3.52,7.85,7.85v32.61c0,4.33-3.52,7.85-7.85,7.85h-127.94c-4.33,0-7.85-3.52-7.85-7.85v-32.61c0-4.33,3.52-7.85,7.85-7.85Z"/>
          <path class="cls-3" d="M381.12,1356.24h127.94c4.33,0,7.85,3.52,7.85,7.85v32.61c0,4.33-3.52,7.85-7.85,7.85h-127.94c-4.33,0-7.85-3.52-7.85-7.85v-32.61c0-4.33,3.52-7.85,7.85-7.85Z"/>
          <path class="cls-3" d="M229.87,1356.24h127.94c4.33,0,7.85,3.52,7.85,7.85v32.61c0,4.33-3.52,7.85-7.85,7.85h-127.94c-4.33,0-7.85-3.52-7.85-7.85v-32.61c0-4.33,3.52-7.85,7.85-7.85Z"/>
          <path class="cls-3" d="M153.75,1356.24h55.11c4.33,0,7.85,3.52,7.85,7.85v32.61c0,4.33-3.52,7.85-7.85,7.85h-55.11c-4.33,0-7.85-3.52-7.85-7.85v-32.61c0-4.33,3.52-7.85,7.85-7.85Z"/>
          <path class="cls-3" d="M2425.28,1301.48h127.94c4.33,0,7.85,3.52,7.85,7.85v32.61c0,4.33-3.52,7.85-7.85,7.85h-127.94c-4.33,0-7.85-3.52-7.85-7.85v-32.61c0-4.33,3.52-7.85,7.85-7.85Z"/>
          <path class="cls-3" d="M2274.03,1301.48h127.94c4.33,0,7.85,3.52,7.85,7.85v32.61c0,4.33-3.52,7.85-7.85,7.85h-127.94c-4.33,0-7.85-3.52-7.85-7.85v-32.61c0-4.33,3.52-7.85,7.85-7.85Z"/>
          <path class="cls-3" d="M2122.79,1301.48h127.94c4.33,0,7.85,3.52,7.85,7.85v32.61c0,4.33-3.52,7.85-7.85,7.85h-127.94c-4.33,0-7.85-3.52-7.85-7.85v-32.61c0-4.33,3.52-7.85,7.85-7.85Z"/>
          <path class="cls-3" d="M1971.54,1301.48h127.94c4.33,0,7.85,3.52,7.85,7.85v32.61c0,4.33-3.52,7.85-7.85,7.85h-127.94c-4.33,0-7.85-3.52-7.85-7.85v-32.61c0-4.33,3.52-7.85,7.85-7.85Z"/>
          <path class="cls-3" d="M1820.3,1301.48h127.94c4.33,0,7.85,3.52,7.85,7.85v32.61c0,4.33-3.52,7.85-7.85,7.85h-127.94c-4.33,0-7.85-3.52-7.85-7.85v-32.61c0-4.33,3.52-7.85,7.85-7.85Z"/>
          <path class="cls-3" d="M1669.06,1301.48h127.94c4.33,0,7.85,3.52,7.85,7.85v32.61c0,4.33-3.52,7.85-7.85,7.85h-127.94c-4.33,0-7.85-3.52-7.85-7.85v-32.61c0-4.33,3.52-7.85,7.85-7.85Z"/>
          <path class="cls-3" d="M1517.81,1301.48h127.94c4.33,0,7.85,3.52,7.85,7.85v32.61c0,4.33-3.52,7.85-7.85,7.85h-127.94c-4.33,0-7.85-3.52-7.85-7.85v-32.61c0-4.33,3.52-7.85,7.85-7.85Z"/>
          <path class="cls-3" d="M1366.57,1301.48h127.94c4.33,0,7.85,3.52,7.85,7.85v32.61c0,4.33-3.52,7.85-7.85,7.85h-127.94c-4.33,0-7.85-3.52-7.85-7.85v-32.61c0-4.33,3.52-7.85,7.85-7.85Z"/>
          <path class="cls-3" d="M1214.37,1301.48h127.94c4.33,0,7.85,3.52,7.85,7.85v32.61c0,4.33-3.52,7.85-7.85,7.85h-127.94c-4.33,0-7.85-3.52-7.85-7.85v-32.61c0-4.33,3.52-7.85,7.85-7.85Z"/>
          <path class="cls-3" d="M1063.13,1301.48h127.94c4.33,0,7.85,3.52,7.85,7.85v32.61c0,4.33-3.52,7.85-7.85,7.85h-127.94c-4.33,0-7.85-3.52-7.85-7.85v-32.61c0-4.33,3.52-7.85,7.85-7.85Z"/>
          <path class="cls-3" d="M911.89,1301.48h127.94c4.33,0,7.85,3.52,7.85,7.85v32.61c0,4.33-3.52,7.85-7.85,7.85h-127.94c-4.33,0-7.85-3.52-7.85-7.85v-32.61c0-4.33,3.52-7.85,7.85-7.85Z"/>
          <path class="cls-3" d="M760.64,1301.48h127.94c4.33,0,7.85,3.52,7.85,7.85v32.61c0,4.33-3.52,7.85-7.85,7.85h-127.94c-4.33,0-7.85-3.52-7.85-7.85v-32.61c0-4.33,3.52-7.85,7.85-7.85Z"/>
          <path class="cls-3" d="M609.4,1301.48h127.94c4.33,0,7.85,3.52,7.85,7.85v32.61c0,4.33-3.52,7.85-7.85,7.85h-127.94c-4.33,0-7.85-3.52-7.85-7.85v-32.61c0-4.33,3.52-7.85,7.85-7.85Z"/>
          <path class="cls-3" d="M458.16,1301.48h127.94c4.33,0,7.85,3.52,7.85,7.85v32.61c0,4.33-3.52,7.85-7.85,7.85h-127.94c-4.33,0-7.85-3.52-7.85-7.85v-32.61c0-4.33,3.52-7.85,7.85-7.85Z"/>
          <path class="cls-3" d="M306.91,1301.48h127.94c4.33,0,7.85,3.52,7.85,7.85v32.61c0,4.33-3.52,7.85-7.85,7.85h-127.94c-4.33,0-7.85-3.52-7.85-7.85v-32.61c0-4.33,3.52-7.85,7.85-7.85Z"/>
          <path class="cls-3" d="M155.67,1301.48h127.94c4.33,0,7.85,3.52,7.85,7.85v32.61c0,4.33-3.52,7.85-7.85,7.85h-127.94c-4.33,0-7.85-3.52-7.85-7.85v-32.61c0-4.33,3.52-7.85,7.85-7.85Z"/>
          <path class="cls-3" d="M2499.48,1246.3h55.11c4.33,0,7.85,3.52,7.85,7.85v32.61c0,4.33-3.52,7.85-7.85,7.85h-55.11c-4.33,0-7.85-3.52-7.85-7.85v-32.61c0-4.33,3.52-7.85,7.85-7.85Z"/>
          <path class="cls-3" d="M2348.24,1246.3h127.94c4.33,0,7.85,3.52,7.85,7.85v32.61c0,4.33-3.52,7.85-7.85,7.85h-127.94c-4.33,0-7.85-3.52-7.85-7.85v-32.61c0-4.33,3.52-7.85,7.85-7.85Z"/>
          <path class="cls-3" d="M2196.99,1246.3h127.94c4.33,0,7.85,3.52,7.85,7.85v32.61c0,4.33-3.52,7.85-7.85,7.85h-127.94c-4.33,0-7.85-3.52-7.85-7.85v-32.61c0-4.33,3.52-7.85,7.85-7.85Z"/>
          <rect class="cls-3" x="2037.9" y="1246.3" width="143.63" height="48.31" rx="7.85" ry="7.85"/>
          <rect class="cls-3" x="1886.66" y="1246.3" width="143.63" height="48.31" rx="7.85" ry="7.85"/>
          <rect class="cls-3" x="1735.42" y="1246.3" width="143.63" height="48.31" rx="7.85" ry="7.85"/>
          <rect class="cls-3" x="1584.17" y="1246.3" width="143.63" height="48.31" rx="7.85" ry="7.85"/>
          <rect class="cls-3" x="1432.93" y="1246.3" width="143.63" height="48.31" rx="7.85" ry="7.85"/>
          <path class="cls-3" d="M1288.58,1246.3h127.94c4.33,0,7.85,3.52,7.85,7.85v32.61c0,4.33-3.52,7.85-7.85,7.85h-127.94c-4.33,0-7.85-3.52-7.85-7.85v-32.61c0-4.33,3.52-7.85,7.85-7.85Z"/>
          <path class="cls-3" d="M1137.34,1246.3h127.94c4.33,0,7.85,3.52,7.85,7.85v32.61c0,4.33-3.52,7.85-7.85,7.85h-127.94c-4.33,0-7.85-3.52-7.85-7.85v-32.61c0-4.33,3.52-7.85,7.85-7.85Z"/>
          <path class="cls-3" d="M986.09,1246.3h127.94c4.33,0,7.85,3.52,7.85,7.85v32.61c0,4.33-3.52,7.85-7.85,7.85h-127.94c-4.33,0-7.85-3.52-7.85-7.85v-32.61c0-4.33,3.52-7.85,7.85-7.85Z"/>
          <path class="cls-3" d="M834.85,1246.3h127.94c4.33,0,7.85,3.52,7.85,7.85v32.61c0,4.33-3.52,7.85-7.85,7.85h-127.94c-4.33,0-7.85-3.52-7.85-7.85v-32.61c0-4.33,3.52-7.85,7.85-7.85Z"/>
          <rect class="cls-3" x="675.76" y="1246.3" width="143.63" height="48.31" rx="7.85" ry="7.85"/>
          <rect class="cls-3" x="524.51" y="1246.3" width="143.63" height="48.31" rx="7.85" ry="7.85"/>
          <rect class="cls-3" x="373.27" y="1246.3" width="143.63" height="48.31" rx="7.85" ry="7.85"/>
          <rect class="cls-3" x="222.03" y="1246.3" width="143.63" height="48.31" rx="7.85" ry="7.85"/>
          <path class="cls-3" d="M153.75,1246.3h55.11c4.33,0,7.85,3.52,7.85,7.85v32.61c0,4.33-3.52,7.85-7.85,7.85h-55.11c-4.33,0-7.85-3.52-7.85-7.85v-32.61c0-4.33,3.52-7.85,7.85-7.85Z"/>
          <rect class="cls-3" x="2417.43" y="1190.17" width="143.63" height="48.31" rx="7.85" ry="7.85"/>
          <path class="cls-3" d="M2274.03,1190.17h127.94c4.33,0,7.85,3.52,7.85,7.85v32.61c0,4.33-3.52,7.85-7.85,7.85h-127.94c-4.33,0-7.85-3.52-7.85-7.85v-32.61c0-4.33,3.52-7.85,7.85-7.85Z"/>
          <path class="cls-3" d="M2122.79,1190.17h127.94c4.33,0,7.85,3.52,7.85,7.85v32.61c0,4.33-3.52,7.85-7.85,7.85h-127.94c-4.33,0-7.85-3.52-7.85-7.85v-32.61c0-4.33,3.52-7.85,7.85-7.85Z"/>
          <path class="cls-3" d="M1971.54,1190.17h127.94c4.33,0,7.85,3.52,7.85,7.85v32.61c0,4.33-3.52,7.85-7.85,7.85h-127.94c-4.33,0-7.85-3.52-7.85-7.85v-32.61c0-4.33,3.52-7.85,7.85-7.85Z"/>
          <path class="cls-3" d="M1820.3,1190.17h127.94c4.33,0,7.85,3.52,7.85,7.85v32.61c0,4.33-3.52,7.85-7.85,7.85h-127.94c-4.33,0-7.85-3.52-7.85-7.85v-32.61c0-4.33,3.52-7.85,7.85-7.85Z"/>
          <path class="cls-3" d="M1669.06,1190.17h127.94c4.33,0,7.85,3.52,7.85,7.85v32.61c0,4.33-3.52,7.85-7.85,7.85h-127.94c-4.33,0-7.85-3.52-7.85-7.85v-32.61c0-4.33,3.52-7.85,7.85-7.85Z"/>
          <path class="cls-3" d="M1517.81,1190.17h127.94c4.33,0,7.85,3.52,7.85,7.85v32.61c0,4.33-3.52,7.85-7.85,7.85h-127.94c-4.33,0-7.85-3.52-7.85-7.85v-32.61c0-4.33,3.52-7.85,7.85-7.85Z"/>
          <path class="cls-3" d="M1366.57,1190.17h127.94c4.33,0,7.85,3.52,7.85,7.85v32.61c0,4.33-3.52,7.85-7.85,7.85h-127.94c-4.33,0-7.85-3.52-7.85-7.85v-32.61c0-4.33,3.52-7.85,7.85-7.85Z"/>
          <path class="cls-3" d="M1214.37,1190.17h127.94c4.33,0,7.85,3.52,7.85,7.85v32.61c0,4.33-3.52,7.85-7.85,7.85h-127.94c-4.33,0-7.85-3.52-7.85-7.85v-32.61c0-4.33,3.52-7.85,7.85-7.85Z"/>
          <path class="cls-3" d="M1063.13,1190.17h127.94c4.33,0,7.85,3.52,7.85,7.85v32.61c0,4.33-3.52,7.85-7.85,7.85h-127.94c-4.33,0-7.85-3.52-7.85-7.85v-32.61c0-4.33,3.52-7.85,7.85-7.85Z"/>
          <path class="cls-3" d="M911.89,1190.17h127.94c4.33,0,7.85,3.52,7.85,7.85v32.61c0,4.33-3.52,7.85-7.85,7.85h-127.94c-4.33,0-7.85-3.52-7.85-7.85v-32.61c0-4.33,3.52-7.85,7.85-7.85Z"/>
          <path class="cls-3" d="M760.64,1190.17h127.94c4.33,0,7.85,3.52,7.85,7.85v32.61c0,4.33-3.52,7.85-7.85,7.85h-127.94c-4.33,0-7.85-3.52-7.85-7.85v-32.61c0-4.33,3.52-7.85,7.85-7.85Z"/>
          <path class="cls-3" d="M609.4,1190.17h127.94c4.33,0,7.85,3.52,7.85,7.85v32.61c0,4.33-3.52,7.85-7.85,7.85h-127.94c-4.33,0-7.85-3.52-7.85-7.85v-32.61c0-4.33,3.52-7.85,7.85-7.85Z"/>
          <path class="cls-3" d="M458.16,1190.17h127.94c4.33,0,7.85,3.52,7.85,7.85v32.61c0,4.33-3.52,7.85-7.85,7.85h-127.94c-4.33,0-7.85-3.52-7.85-7.85v-32.61c0-4.33,3.52-7.85,7.85-7.85Z"/>
          <path class="cls-3" d="M306.91,1190.17h127.94c4.33,0,7.85,3.52,7.85,7.85v32.61c0,4.33-3.52,7.85-7.85,7.85h-127.94c-4.33,0-7.85-3.52-7.85-7.85v-32.61c0-4.33,3.52-7.85,7.85-7.85Z"/>
          <path class="cls-3" d="M155.67,1190.17h127.94c4.33,0,7.85,3.52,7.85,7.85v32.61c0,4.33-3.52,7.85-7.85,7.85h-127.94c-4.33,0-7.85-3.52-7.85-7.85v-32.61c0-4.33,3.52-7.85,7.85-7.85Z"/>
          <path class="cls-3" d="M2499.48,1134.99h55.11c4.33,0,7.85,3.52,7.85,7.85v32.61c0,4.33-3.52,7.85-7.85,7.85h-55.11c-4.33,0-7.85-3.52-7.85-7.85v-32.61c0-4.33,3.52-7.85,7.85-7.85Z"/>
          <path class="cls-3" d="M2348.24,1134.99h127.94c4.33,0,7.85,3.52,7.85,7.85v32.61c0,4.33-3.52,7.85-7.85,7.85h-127.94c-4.33,0-7.85-3.52-7.85-7.85v-32.61c0-4.33,3.52-7.85,7.85-7.85Z"/>
          <path class="cls-3" d="M2196.99,1134.99h127.94c4.33,0,7.85,3.52,7.85,7.85v32.61c0,4.33-3.52,7.85-7.85,7.85h-127.94c-4.33,0-7.85-3.52-7.85-7.85v-32.61c0-4.33,3.52-7.85,7.85-7.85Z"/>
          <path class="cls-3" d="M2045.75,1134.99h127.94c4.33,0,7.85,3.52,7.85,7.85v32.61c0,4.33-3.52,7.85-7.85,7.85h-127.94c-4.33,0-7.85-3.52-7.85-7.85v-32.61c0-4.33,3.52-7.85,7.85-7.85Z"/>
          <path class="cls-3" d="M1894.51,1134.99h127.94c4.33,0,7.85,3.52,7.85,7.85v32.61c0,4.33-3.52,7.85-7.85,7.85h-127.94c-4.33,0-7.85-3.52-7.85-7.85v-32.61c0-4.33,3.52-7.85,7.85-7.85Z"/>
          <path class="cls-3" d="M1743.26,1134.99h127.94c4.33,0,7.85,3.52,7.85,7.85v32.61c0,4.33-3.52,7.85-7.85,7.85h-127.94c-4.33,0-7.85-3.52-7.85-7.85v-32.61c0-4.33,3.52-7.85,7.85-7.85Z"/>
          <path class="cls-3" d="M1592.02,1134.99h127.94c4.33,0,7.85,3.52,7.85,7.85v32.61c0,4.33-3.52,7.85-7.85,7.85h-127.94c-4.33,0-7.85-3.52-7.85-7.85v-32.61c0-4.33,3.52-7.85,7.85-7.85Z"/>
          <path class="cls-3" d="M1440.78,1134.99h127.94c4.33,0,7.85,3.52,7.85,7.85v32.61c0,4.33-3.52,7.85-7.85,7.85h-127.94c-4.33,0-7.85-3.52-7.85-7.85v-32.61c0-4.33,3.52-7.85,7.85-7.85Z"/>
          <path class="cls-3" d="M1288.58,1134.99h127.94c4.33,0,7.85,3.52,7.85,7.85v32.61c0,4.33-3.52,7.85-7.85,7.85h-127.94c-4.33,0-7.85-3.52-7.85-7.85v-32.61c0-4.33,3.52-7.85,7.85-7.85Z"/>
        </g>
        <path class="cls-13" d="M2610.82,1574.06H84.32c-1.53,0-2.78-1.25-2.78-2.78h0c0-1.53,1.25-2.78,2.78-2.78h2526.51c1.53,0,2.78,1.25,2.78,2.78h0c0,1.53-1.25,2.78-2.78,2.78Z"/>
      </g>
    </g>
  </g>
</svg>