<?xml version="1.0" encoding="UTF-8"?>
<svg xmlns="http://www.w3.org/2000/svg" xmlns:xlink="http://www.w3.org/1999/xlink" viewBox="0 0 373.95 429.31">
  <defs>
    <style>
      .cls-1 {
        stroke: #dc8a61;
      }

      .cls-1, .cls-2, .cls-3, .cls-4, .cls-5 {
        fill: none;
      }

      .cls-1, .cls-3, .cls-4, .cls-5 {
        stroke-width: 2px;
      }

      .cls-1, .cls-3, .cls-5 {
        stroke-miterlimit: 10;
      }

      .cls-6 {
        clip-path: url(#clippath-6);
      }

      .cls-7 {
        clip-path: url(#clippath-7);
      }

      .cls-8 {
        fill: #e4fffe;
        opacity: .49;
      }

      .cls-9 {
        clip-path: url(#clippath-4);
      }

      .cls-10, .cls-11, .cls-12 {
        mix-blend-mode: soft-light;
      }

      .cls-10, .cls-13 {
        fill: #231f20;
      }

      .cls-14 {
        fill: #754c29;
      }

      .cls-15 {
        opacity: .1;
      }

      .cls-15, .cls-16 {
        fill: #020b06;
      }

      .cls-17 {
        clip-path: url(#clippath-9);
      }

      .cls-18 {
        clip-path: url(#clippath-10);
      }

      .cls-19 {
        fill: #fff;
      }

      .cls-20 {
        fill: #fcda46;
      }

      .cls-21 {
        fill: #dc8a61;
      }

      .cls-22 {
        fill: #faafbb;
      }

      .cls-23 {
        fill: #ffde17;
      }

      .cls-3 {
        stroke: #b37b00;
      }

      .cls-24 {
        clip-path: url(#clippath-1);
      }

      .cls-25 {
        isolation: isolate;
      }

      .cls-26 {
        clip-path: url(#clippath-5);
      }

      .cls-27 {
        fill: #d4bb00;
      }

      .cls-28 {
        clip-path: url(#clippath-8);
      }

      .cls-29 {
        fill: #b07d00;
      }

      .cls-30 {
        clip-path: url(#clippath-3);
      }

      .cls-31 {
        fill: #fcbbad;
      }

      .cls-32 {
        fill: #ffa385;
      }

      .cls-33 {
        fill: #ea6c6c;
      }

      .cls-34 {
        fill: #f4cb64;
      }

      .cls-35 {
        fill: #f07d58;
      }

      .cls-36 {
        fill: #ffdd82;
      }

      .cls-37 {
        fill: #936500;
      }

      .cls-38 {
        fill: #b37b00;
      }

      .cls-39 {
        fill: #936500;
      }

      .cls-12, .cls-40 {
        opacity: .5;
      }

      .cls-41 {
        clip-path: url(#clippath-2);
      }

      .cls-4 {
        stroke-linejoin: bevel;
      }

      .cls-4, .cls-5 {
        stroke: #ea6c6c;
      }

      .cls-42 {
        fill: #030000;
      }

      .cls-43 {
        fill: #ffa582;
      }

      .cls-44 {
        clip-path: url(#clippath);
      }

      .cls-45 {
        fill: #6bc6c4;
      }

      .cls-46 {
        fill: #adeaea;
      }

      .cls-47 {
        fill: #c93939;
      }
    </style>
    <clipPath id="clippath">
      <rect class="cls-2" x="71.09" y="53.77" width="57.62" height="329.23" transform="translate(-33.98 19.02) rotate(-9.3)"/>
    </clipPath>
    <clipPath id="clippath-1">
      <rect class="cls-2" x="71.09" y="53.77" width="57.62" height="329.23" transform="translate(-33.98 19.02) rotate(-9.3)"/>
    </clipPath>
    <clipPath id="clippath-2">
      <rect class="cls-2" x="249.58" y="51.04" width="118.13" height="19.86"/>
    </clipPath>
    <clipPath id="clippath-3">
      <path class="cls-2" d="M164.85,200.16c-4.46,0-8.61-2.85-10.04-7.33-1.16-3.61-10.83-35.82,6.38-53.38,14.64-14.94,44.65-27.02,45.92-27.53,5.42-2.16,11.56.48,13.72,5.9,2.16,5.42-.48,11.56-5.89,13.72h0c-7.52,3.01-29.11,12.94-38.66,22.69-6.57,6.71-3.74,24.57-1.34,32.17,1.75,5.55-1.32,11.49-6.87,13.26-1.07.34-2.15.5-3.21.5Z"/>
    </clipPath>
    <clipPath id="clippath-4">
      <path class="cls-2" d="M201.1,101.37l-3.92.61c-14.58,2.28-28.11-8.67-30.21-24.45l-2.28-17.08c-2.11-15.78,8.01-30.42,22.59-32.7l3.92-.61c14.58-2.28,28.11,8.67,30.21,24.45l2.28,17.08c2.11,15.78-8.01,30.42-22.59,32.7Z"/>
    </clipPath>
    <clipPath id="clippath-5">
      <path class="cls-2" d="M187.72,81.72l18.06-15.22s8.74,11.42.08,18.3c-8.66,6.88-18.14-3.08-18.14-3.08Z"/>
    </clipPath>
    <clipPath id="clippath-6">
      <path class="cls-2" d="M202.54,113.93s-23.62,36.7,8.47,46.35l1.94,29.32-1.94,10.39s35.44,11.13,56.88-2.98c0,0,0-75.28-30.82-91.16,0,0-10.76.24-16.6,1.29,0,0-.67,10.77-9.45,12.78-8.78,2.01-8.47-5.99-8.47-5.99Z"/>
    </clipPath>
    <clipPath id="clippath-7">
      <rect class="cls-2" x="8.23" y="212.54" width="278.9" height="19.95"/>
    </clipPath>
    <clipPath id="clippath-8">
      <path class="cls-2" d="M250.94,193.96c-4.37,0-8.45-2.73-9.97-7.09-1.92-5.51.99-11.53,6.49-13.45,7.85-2.76,25.18-11.34,28.58-20.19.6-1.56.99-3.59-.72-6.73-10.37-19.09-40.18-19.31-41.33-19.31-.12,0-.09,0-.13,0-5.78,0-10.51-4.65-10.58-10.44-.07-5.82,4.57-10.6,10.39-10.69,1.77-.03,43.55-.3,60.21,30.35,4.32,7.96,4.97,16.41,1.86,24.44-7.85,20.33-37.92,31.32-41.33,32.51-1.15.4-2.33.59-3.48.59Z"/>
    </clipPath>
    <clipPath id="clippath-9">
      <path class="cls-2" d="M203.05,385.39s-13.59,5.48-12.72,11.66,29.65,4.28,40.69,2.85v-14.51h-27.98Z"/>
    </clipPath>
    <clipPath id="clippath-10">
      <path class="cls-2" d="M260.62,385.81s-19.79,15.61-11.04,20.18c8.75,4.57,28.83-4.85,35.67-12.62l-.07-10.24-24.56,2.68Z"/>
    </clipPath>
  </defs>
  <g class="cls-25">
    <g id="Calque_2" data-name="Calque 2">
      <g id="OBJECTS">
        <g>
          <ellipse class="cls-15" cx="184.56" cy="398.39" rx="184.56" ry="30.92"/>
          <g>
            <rect class="cls-36" x="71.09" y="53.77" width="57.62" height="329.23" transform="translate(-33.98 19.02) rotate(-9.3)"/>
            <g>
              <path class="cls-21" d="M55.35,69.55c0,1.68-1.37,3.05-3.05,3.05s-3.05-1.37-3.05-3.05,1.37-3.05,3.05-3.05,3.05,1.37,3.05,3.05Z"/>
              <path class="cls-21" d="M62.02,70.89c0,.65-.53,1.18-1.18,1.18s-1.18-.53-1.18-1.18.53-1.18,1.18-1.18,1.18.53,1.18,1.18Z"/>
              <path class="cls-21" d="M58.36,77.49c0,1.28-1.04,2.32-2.32,2.32s-2.32-1.04-2.32-2.32,1.04-2.32,2.32-2.32,2.32,1.04,2.32,2.32Z"/>
            </g>
            <g class="cls-44">
              <g>
                <path class="cls-1" d="M70.53,52.53c3.11,11.12,5.43,22.47,6.94,33.92,2.99,22.7,2.77,45.68,3.72,68.56,3.38,81.35,21.71,162.06,53.8,236.9"/>
                <path class="cls-1" d="M79.02,42.76c6.8,40.19,13.62,80.51,25.41,119.54,7.86,26,18.72,52.51,39.68,69.77"/>
                <path class="cls-1" d="M89.1,45.91c6.07,49.08,22.62,96.84,48.22,139.15"/>
                <path class="cls-1" d="M140.63,388.45c-5.25-40.37-25.8-77.03-36.49-116.32-3.31-12.16-5.68-24.72-4.99-37.3.32-5.79,2.25-12.71,7.85-14.22,1.79-.48,3.71-.3,5.49.22,5.42,1.56,9.58,5.97,12.53,10.77s4.96,10.12,7.79,15c6.27,10.83,16.62,19.24,28.51,23.14"/>
                <path class="cls-1" d="M150.44,382.77c-3.56-28.5-19.07-54.04-26.45-81.8-2.58-9.7-3.69-21.37,3.31-28.56,1.77-1.81,4.15-3.26,6.68-3.08,1.74.12,3.33.99,4.81,1.91,6.68,4.14,12.44,9.77,16.74,16.36"/>
                <path class="cls-1" d="M62.6,51.49c8.06,22.91,6.22,48.01,3.23,72.11-2.99,24.1-7.03,48.55-3.06,72.51"/>
                <path class="cls-1" d="M61.26,210.36c9.47,2.34,15.04,12.04,18.36,21.21,5.16,14.25,7.57,29.33,9.83,44.32,5.97,39.57,11.15,79.25,16.24,118.94"/>
              </g>
            </g>
            <rect class="cls-21" x="62.15" y="59.19" width="9.38" height="329.23" transform="translate(168.97 433.86) rotate(170.7)"/>
            <g class="cls-12">
              <g class="cls-24">
                <path class="cls-13" d="M80.88,22.27c8.28,43.3,16.57,86.59,24.85,129.89,6.24,32.62,12.5,65.42,13.46,98.62.96,33.2-3.61,67.12-18.1,97.01-14.49,29.89-39.69,55.43-71.23,65.84,10.5,12.01,27.58,15.46,43.44,17.15,19.38,2.06,38.93,2.52,58.39,1.38,15.55-.91,31.41-2.95,45.33-9.96,26.02-13.1,41-41.43,48.32-69.64,14.56-56.1,5.09-115.63-9.76-171.65-17.83-67.28-43.35-132.53-75.89-194.06"/>
              </g>
            </g>
          </g>
          <g>
            <rect class="cls-36" x="249.58" y="51.04" width="118.13" height="19.86"/>
            <g class="cls-41">
              <g>
                <path class="cls-1" d="M242.7,60.09c25.01,3.22,50.3-.51,75.42-2.75,25.11-2.24,51.16-2.87,74.72,6.13"/>
                <path class="cls-1" d="M378.62,66.78c-16.3-3.8-33.16-5.52-49.84-4.11-5.3.45-10.8,1.3-15.14,4.37-4.34,3.08-7.08,8.99-4.98,13.88"/>
                <path class="cls-1" d="M243.93,55.52c21.58.23,44.2.22,63.29-9.86"/>
                <path class="cls-1" d="M240.76,65.57c18.81-.13,37.62,4.8,53.94,14.15"/>
              </g>
            </g>
            <rect class="cls-21" x="367.71" y="51.04" width="6.23" height="19.86" transform="translate(741.66 121.93) rotate(180)"/>
            <polygon class="cls-45" points="346.65 37.81 346.65 37.81 353.11 33.05 347.93 27.2 348.07 26.04 318.51 26.04 318.51 111.17 337.79 111.17 342.37 108.17 338.92 101.82 338.92 101.82 343.91 97.73 339.94 93.37 339.94 93.37 345.44 89.55 341.05 84.18 341.05 84.18 346.72 80.61 342.18 74.87 342.2 74.64 348.07 70.89 343.37 64.96 343.37 64.96 348.82 60.96 344.7 56.06 350.3 52.89 345.7 46.73 352.09 42.33 346.65 37.81"/>
            <polygon class="cls-46" points="343.34 37.81 343.34 37.81 349.8 33.05 344.62 27.2 344.76 26.04 315.2 26.04 315.2 111.17 334.48 111.17 339.06 108.17 335.61 101.82 335.61 101.82 340.59 97.73 336.63 93.37 336.63 93.37 342.13 89.55 337.74 84.18 337.74 84.18 343.41 80.61 338.86 74.87 338.89 74.64 344.76 70.89 340.06 64.96 340.06 64.96 345.5 60.96 341.39 56.06 346.99 52.89 342.39 46.73 348.78 42.33 343.34 37.81"/>
            <path class="cls-33" d="M351.02,31.32h-29.56c-6.23,0-11.3-5.07-11.3-11.3v-8.71c0-6.23,5.07-11.3,11.3-11.3h29.56c6.23,0,11.3,5.07,11.3,11.3v8.71c0,6.23-5.07,11.3-11.3,11.3ZM321.46,10.56c-.41,0-.74.33-.74.74v8.71c0,.41.33.74.74.74h29.56c.41,0,.74-.33.74-.74v-8.71c0-.41-.33-.74-.74-.74h-29.56Z"/>
            <polygon class="cls-45" points="284.54 98.9 284.54 98.9 281.24 94.6 285.31 90.65 282.67 86.2 286.09 82.23 286.09 82.23 284.05 78.1 286.82 74.33 284.09 70.35 287.48 67.15 285.21 63.48 288.13 60.15 285.56 56.47 288.76 53.33 286.61 49.47 289.43 46.14 289.43 46.14 287.49 42.33 290.11 38.76 290.11 38.76 288.01 35.1 290.73 32.13 290.73 32.13 288.71 28.09 291.5 23.86 270.67 23.86 270.67 106.06 283.88 106.06 281.08 101.82 284.54 98.9"/>
            <polygon class="cls-46" points="281.59 98.9 281.59 98.9 278.29 94.6 282.36 90.65 279.72 86.2 283.14 82.23 283.14 82.23 281.1 78.1 283.87 74.33 281.14 70.35 284.53 67.15 282.26 63.48 285.18 60.15 282.61 56.47 285.81 53.33 283.66 49.47 286.48 46.14 286.48 46.14 284.54 42.33 287.16 38.76 287.16 38.76 285.06 35.1 287.78 32.13 287.78 32.13 285.76 28.09 288.55 23.86 267.72 23.86 267.72 106.06 280.93 106.06 278.13 101.82 281.59 98.9"/>
            <path class="cls-47" d="M290.51,28.08h-20.82c-5.65,0-10.25-4.6-10.25-10.25v-4.35c0-5.65,4.6-10.25,10.25-10.25h20.82c5.65,0,10.25,4.6,10.25,10.25v4.35c0,5.65-4.6,10.25-10.25,10.25ZM269.69,11.69c-.99,0-1.8.81-1.8,1.8v4.35c0,.99.81,1.8,1.8,1.8h20.82c.99,0,1.8-.81,1.8-1.8v-4.35c0-.99-.81-1.8-1.8-1.8h-20.82Z"/>
            <path class="cls-22" d="M347.09,31.32h-29.56c-6.23,0-11.3-5.07-11.3-11.3v-8.71c0-6.23,5.07-11.3,11.3-11.3h29.56c6.23,0,11.3,5.07,11.3,11.3v8.71c0,6.23-5.07,11.3-11.3,11.3ZM317.53,10.56c-.41,0-.74.33-.74.74v8.71c0,.41.33.74.74.74h29.56c.41,0,.74-.33.74-.74v-8.71c0-.41-.33-.74-.74-.74h-29.56Z"/>
            <path class="cls-35" d="M287.56,28.08h-20.82c-5.65,0-10.25-4.6-10.25-10.25v-4.35c0-5.65,4.6-10.25,10.25-10.25h20.82c5.65,0,10.25,4.6,10.25,10.25v4.35c0,5.65-4.6,10.25-10.25,10.25ZM266.74,11.69c-.99,0-1.8.81-1.8,1.8v4.35c0,.99.81,1.8,1.8,1.8h20.82c.99,0,1.8-.81,1.8-1.8v-4.35c0-.99-.81-1.8-1.8-1.8h-20.82Z"/>
          </g>
          <g>
            <path class="cls-14" d="M203.05,385.39s-13.59,5.48-12.72,11.66,29.65,4.28,40.69,2.85v-14.51h-27.98Z"/>
            <path class="cls-39" d="M190.83,394.31c-.43.88-.63,1.8-.5,2.73.87,6.18,29.65,4.28,40.69,2.85v-3.82c-10.34,1.33-36.21,3.09-40.19-1.76Z"/>
            <path class="cls-14" d="M260.62,385.81s-19.79,15.61-11.04,20.18c8.75,4.57,28.83-4.85,35.67-12.62l-.07-10.24-24.56,2.68Z"/>
            <path class="cls-38" d="M249.58,402.22c-.89-.47-1.48-1.05-1.83-1.72-.8,2.27-.5,4.27,1.83,5.48,8.75,4.57,28.83-4.85,35.67-12.62l-.03-3.73c-6.86,7.77-26.91,17.16-35.64,12.59Z"/>
            <path class="cls-42" d="M239.84,92.89c-.91-2.22-1.89-4.46-2.84-6.64-2.01-4.61-4.05-9.3-5.61-14.08-.56-7.62-1.11-15.24-1.67-22.86-.91-12.52-12.07-23.49-24.47-25.45l-42.41,11.25c-4.07,4.43-6.29,9.91-7.51,15.8-1.01,4.11-1.57,8.39-2.13,12.6-1.08,8.19-2.19,16.66-6.57,23.47-1.45,2.24-3.27,4.32-5.03,6.34-2.41,2.75-4.89,5.59-6.56,8.96-2.84,5.75-2.89,12.77-.14,18.3.04.08.08.15.12.22-1.02,5.1.79,10.81,4.48,14.49-1.14,3.26-1.39,6.83-.61,10.2,1.42,6.1,6.19,11.3,12.15,13.25,1.79.58,3.66.87,5.54.87,2.5,0,5-.52,7.3-1.48,2.08-.34,4.09-1.08,5.86-2.25-.09,6.6,6.35,10.98,12.69,12.81,6.34,1.83,13.3.13,18.96-3.25,4.66,4.15,11.24,4.97,16.96,2.48,5.72-2.49,9.75-8.47,9.9-14.71,8.39-2.28,16.48-11.41,16.61-20.11.03-2.34-.34-4.6-.96-6.82,2.81-8.91,1.47-19.89-4.08-33.38ZM136.81,103.14c1.55-3.14,3.85-5.76,6.28-8.54,1.81-2.07,3.68-4.2,5.2-6.57,3.11-4.83,4.65-10.36,5.65-16.02.1,12.69-.4,26.62-9.02,35.88-2.59,2.79-5.83,5.01-7.95,8.18-.41.61-.74,1.26-1.03,1.91-1.71-4.68-1.42-10.21.87-14.84ZM151.66,156.87c-5.32-1.74-9.57-6.38-10.84-11.82-.64-2.76-.5-5.66.31-8.37,1.15.85,2.42,1.54,3.82,1.97-1.72,6,2.2,13.11,7.23,16.81,1.34.98,2.84,1.71,4.42,2.19-1.67,0-3.34-.25-4.94-.77ZM231.9,79.27c1.05,2.62,2.18,5.2,3.29,7.76.94,2.16,1.92,4.4,2.82,6.6,4.78,11.62,6.35,21.25,4.75,29.19-2.29-5.96-5.89-11.68-7.79-17.82-1.56-5.06-1.96-10.39-2.34-15.68-.24-3.35-.49-6.7-.73-10.06Z"/>
            <path class="cls-31" d="M164.85,200.16c-4.46,0-8.61-2.85-10.04-7.33-1.16-3.61-10.83-35.82,6.38-53.38,14.64-14.94,44.65-27.02,45.92-27.53,5.42-2.16,11.56.48,13.72,5.9,2.16,5.42-.48,11.56-5.89,13.72h0c-7.52,3.01-29.11,12.94-38.66,22.69-6.57,6.71-3.74,24.57-1.34,32.17,1.75,5.55-1.32,11.49-6.87,13.26-1.07.34-2.15.5-3.21.5Z"/>
            <g class="cls-30">
              <path class="cls-20" d="M166.7,125.37s-1.47,26.98,19.62,30.3c21.09,3.32,51.84-28.05,24.69-44.75-27.16-16.7-44.31,14.44-44.31,14.44Z"/>
              <path class="cls-10" d="M220.82,117.82c-1.47-3.69-4.79-6.09-8.48-6.56,1.54,1.13,2.81,2.69,3.57,4.59,2.16,5.42-.48,11.56-5.89,13.72-7.52,3.01-29.11,12.94-38.66,22.69-6.57,6.71-3.74,24.57-1.34,32.17,1.75,5.55-1.32,11.49-6.87,13.26-1.07.34-2.15.5-3.21.5-.45,0-.9-.04-1.35-.09,1.79,1.32,3.98,2.06,6.26,2.06,1.06,0,2.15-.16,3.21-.5,5.55-1.77,8.62-7.7,6.87-13.26-2.4-7.6-5.23-25.46,1.34-32.17,9.55-9.75,31.15-19.68,38.66-22.69,5.42-2.16,8.05-8.31,5.89-13.72Z"/>
            </g>
            <path class="cls-29" d="M164.42,173.08c-2.65,0-10.45.42-10.45,4.56s6.31,4.06,6.31,4.06v10.6h8.28v-10.6s6.31.08,6.31-4.06-7.8-4.56-10.45-4.56Z"/>
            <path class="cls-27" d="M211.01,199.99s-15.43,70.85-7.96,185.39c0,0,13.11,6.32,27.98,0,0,0,5.17-126.34,8.54-162.13h3.79s13.9,116.65,17.27,162.55c0,0,13.26,5.9,24.63.42,0,0-1.9-87.59-7.79-161.7,0,0,3.64-15.81-9.57-27.51,0,0-57.02,3.75-56.88,2.98"/>
            <g class="cls-11">
              <path class="cls-13" d="M277.46,224.52s3.64-15.81-9.57-27.51c0,0-2.5.16-6.44.42,12.67,11.66,9.12,27.09,9.12,27.09,5.9,74.12,7.79,161.7,7.79,161.7-2.47,1.19-5.03,1.84-7.53,2.13,4.37.46,9.56.2,14.42-2.13,0,0-1.9-87.59-7.79-161.7Z"/>
              <path class="cls-13" d="M236.46,223.25h-3.79c-3.37,35.8-8.54,162.13-8.54,162.13-3.64,1.55-7.17,2.33-10.44,2.64,4.85.45,10.92.08,17.33-2.64,0,0,4.04-98.63,7.3-146.29-1.15-9.82-1.86-15.85-1.86-15.85Z"/>
            </g>
            <rect class="cls-43" x="62.26" y="250.58" width="261.1" height="61.31"/>
            <rect class="cls-10" x="262.05" y="250.58" width="61.31" height="61.31"/>
            <rect class="cls-31" x="201.43" y="80.79" width="19.15" height="56.55" transform="translate(-23.65 72.26) rotate(-18.42)"/>
            <path class="cls-31" d="M201.1,101.37l-3.92.61c-14.58,2.28-28.11-8.67-30.21-24.45l-2.28-17.08c-2.11-15.78,8.01-30.42,22.59-32.7l3.92-.61c14.58-2.28,28.11,8.67,30.21,24.45l2.28,17.08c2.11,15.78-8.01,30.42-22.59,32.7Z"/>
            <g class="cls-40">
              <g class="cls-9">
                <g>
                  <ellipse class="cls-33" cx="207.79" cy="64.87" rx="10.09" ry="10.92"/>
                  <ellipse class="cls-33" cx="171.99" cy="79.98" rx="10.09" ry="10.92"/>
                </g>
              </g>
            </g>
            <g>
              <path class="cls-16" d="M187.72,81.72l18.06-15.22s8.74,11.42.08,18.3c-8.66,6.88-18.14-3.08-18.14-3.08Z"/>
              <g class="cls-26">
                <path class="cls-19" d="M188.36,78.54s9.55,7.43,21.45-8.99l-2.82-4.12-3.11.09-15.52,13.02Z"/>
                <path class="cls-33" d="M201.46,88.64s.64-13.37,11.48-14.44l-1.79,10.14-9.69,4.3Z"/>
              </g>
            </g>
            <path class="cls-20" d="M202.54,113.93s-23.62,36.7,8.47,46.35l1.94,29.32-1.94,10.39s35.44,11.13,56.88-2.98c0,0,0-75.28-30.82-91.16,0,0-10.76.24-16.6,1.29,0,0-.67,10.77-9.45,12.78-8.78,2.01-8.47-5.99-8.47-5.99Z"/>
            <g class="cls-6">
              <path class="cls-46" d="M249.58,142.86s-2.03,30.36,23.2,33.51l8.31,39.03h-83.68l-2.04-47.31-2.68-21.69s25.01-10.65,56.89-3.55Z"/>
            </g>
            <path class="cls-31" d="M250.94,193.96c-4.37,0-8.45-2.73-9.97-7.09-1.92-5.51.99-11.53,6.49-13.45,7.85-2.76,25.18-11.34,28.58-20.19.6-1.56.99-3.59-.72-6.73-10.37-19.09-40.18-19.31-41.33-19.31-.12,0-.09,0-.13,0-5.78,0-10.51-4.65-10.58-10.44-.07-5.82,4.57-10.6,10.39-10.69,1.77-.03,43.55-.3,60.21,30.35,4.32,7.96,4.97,16.41,1.86,24.44-7.85,20.33-37.92,31.32-41.33,32.51-1.15.4-2.33.59-3.48.59Z"/>
            <path class="cls-31" d="M253.99,170.9s1.1-5.34-4.38-4.38c0,0-.27,4.8-6.44,6.17-6.17,1.37-10.14-1.37-10.14-1.37,0,0-5.07.82-5.34,4.52-.27,3.7,2.19,4.93,2.19,4.93,0,0-3.15,4.11,1.1,6.44,0,0-.98,3.97,2.87,4.66,0,0-.54,3.93,3.16,4.76,3.7.82,14.18.63,17.08-3.25l-.09-22.47Z"/>
            <rect class="cls-29" x="32.04" y="232.49" width="316.59" height="26.13"/>
            <rect class="cls-10" x="292.31" y="232.49" width="56.32" height="26.13"/>
            <rect class="cls-37" x="56.16" y="258.62" width="12.2" height="153.17"/>
            <rect class="cls-37" x="311.16" y="258.62" width="12.2" height="153.17"/>
            <path class="cls-42" d="M161.64,64.55s14.16-10.53,15.25-34.48c0,0,15.81,22.58,47.08,18.51,0,0,1.26-25.73-32.87-28.35-34.12-2.62-29.46,44.33-29.46,44.33Z"/>
            <path class="cls-42" d="M218.24,45.68l.85,12.18,4.27.14s.28-4.42.61-9.42l-5.73-2.9Z"/>
            <path class="cls-23" d="M156.64,42.33s2.13-30.26,31.14-30.26,36.19,20.27,36.19,20.27l-67.33,9.99Z"/>
            <polygon class="cls-32" points="145.89 53.95 142.21 42.73 223.97 31.97 227.95 41.9 145.89 53.95"/>
            <rect class="cls-20" x="213.75" y="44.97" width="11.72" height="5.07" transform="translate(-4.94 39.62) rotate(-10.19)"/>
            <g>
              <path class="cls-8" d="M182.39,49.24c6.6-1.63,13.97-12.84,24.96-8.17,10.99,4.67,9.44,24.99-2.09,25.3-11.53.31-13.64-.75-18.94.31-5.3,1.06-9.42,7.76-18.89,9.05s-15.91-16.22-10.79-22.44,16.75-1.83,25.74-4.04Z"/>
              <path class="cls-33" d="M166.47,77.9c-4.13,0-8.1-2.78-10.82-7.66-3.07-5.52-4.34-13.8-.64-18.3,3.81-4.62,10.21-4.41,16.4-4.21,3.58.12,7.29.24,10.47-.54h0c1.79-.44,3.92-1.93,6.18-3.5,5.2-3.63,11.68-8.15,20.12-4.57,7.23,3.07,9.71,11.59,8.41,18.42-1.25,6.59-5.57,10.79-11.27,10.94-5.1.13-8.45,0-10.89-.09-3.19-.12-4.95-.19-7.69.36-1.75.35-3.55,1.62-5.63,3.08-3.27,2.3-7.33,5.16-13.4,5.99-.42.06-.83.08-1.25.08ZM167.45,51.87c-3.97,0-7.27.45-9.18,2.76-2.13,2.59-1.66,8.67,1.07,13.55,1.01,1.82,3.82,5.99,7.8,5.44,5.05-.69,8.49-3.11,11.53-5.25,2.37-1.67,4.6-3.24,7.23-3.77,3.24-.65,5.4-.57,8.69-.44,2.52.1,5.65.22,10.61.09,5.42-.14,6.9-5.78,7.23-7.5.96-5.04-.79-11.57-5.91-13.74-6.29-2.67-11.25.79-16.05,4.14-2.59,1.81-5.03,3.51-7.59,4.14-3.75.92-7.75.79-11.62.66-1.32-.04-2.61-.09-3.82-.09Z"/>
            </g>
            <path class="cls-42" d="M178.14,62.26c.5,2.02-.32,3.97-1.82,4.34-1.5.37-3.13-.97-3.62-3-.5-2.02.32-3.97,1.82-4.34,1.5-.37,3.13.97,3.62,3Z"/>
            <path class="cls-42" d="M198.1,57.35c.5,2.02-.32,3.97-1.82,4.34-1.5.37-3.13-.97-3.62-3s.32-3.97,1.82-4.34c1.5-.37,3.13.97,3.62,3Z"/>
            <path class="cls-5" d="M182.96,53.33l3.36,11.23s-5.73,3.44-3.36,8.18c2.37,4.75,7.35,1.08,7.35,1.08"/>
            <rect class="cls-34" x="8.23" y="212.54" width="278.9" height="19.95"/>
            <g class="cls-7">
              <g>
                <path class="cls-1" d="M299.01,214.1c-106.65,17.45-217.86-11.52-323.11,13.02"/>
                <path class="cls-1" d="M-7.93,228.59c23.24-2.81,46.79-5,70.01-2.1,23.23,2.91,46.36,11.31,63.43,27.32"/>
                <path class="cls-1" d="M302.26,225.2c-9.57,2.85-19.69,3.18-29.68,3.26-48.77.39-97.57-4.67-146.27-2.02-4.85.27-10.16.8-13.6,4.25-3.43,3.44-2.89,10.75,1.86,11.81"/>
              </g>
            </g>
            <rect class="cls-21" x="267.17" y="212.54" width="19.95" height="19.95"/>
            <rect class="cls-35" x="139.39" y="192.31" width="121.09" height="11.85"/>
            <rect class="cls-47" x="248.63" y="192.31" width="11.85" height="11.85"/>
            <rect class="cls-42" x="121.8" y="204.16" width="159.3" height="8.38"/>
            <path class="cls-35" d="M233.03,171.31v-9.83h16.56v5.04s-1.18,10.68-16.56,4.8Z"/>
            <path class="cls-31" d="M158.37,186.38c-4.03,0-7.27-.52-7.48-.56-1.73-.28-2.9-1.92-2.61-3.64.28-1.73,1.91-2.9,3.64-2.61h0c.07.01,6.55,1.05,11.89.02,1.72-.33,3.38.79,3.71,2.51.33,1.72-.79,3.38-2.51,3.71-2.22.43-4.54.57-6.65.57Z"/>
            <path class="cls-31" d="M158.37,191.19c-4.03,0-7.27-.52-7.48-.56-1.73-.28-2.9-1.92-2.61-3.64.28-1.73,1.91-2.9,3.64-2.61h0c.07.01,6.55,1.05,11.89.02,1.72-.33,3.38.79,3.71,2.51.33,1.72-.79,3.38-2.51,3.71-2.22.43-4.54.57-6.65.57Z"/>
            <path class="cls-31" d="M158.37,196c-4.03,0-7.27-.52-7.48-.56-1.73-.29-2.9-1.92-2.61-3.64.28-1.73,1.9-2.89,3.64-2.61h0c.06.01,6.55,1.05,11.89.02,1.72-.33,3.38.79,3.71,2.51.33,1.72-.79,3.38-2.51,3.71-2.22.43-4.54.57-6.65.57Z"/>
            <path class="cls-31" d="M175.6,192.31s1.7-5.93.6-8.92c-1.32-3.58-1.94-5.07-6.55-3.88-4.62,1.19-7.74,4.17-6.55,5.66s4.64,2.15,8.64-.15l1.34,7.29h2.53Z"/>
            <g class="cls-28">
              <path class="cls-20" d="M285.25,116.62s-3.46,15.06-21.51,24.99c0,0-48.08-1.4-44.12-30.39,3.96-28.99,65.64,5.4,65.64,5.4Z"/>
              <path class="cls-10" d="M293.89,136.41c-16.66-30.65-58.43-30.38-60.21-30.35-.56,0-1.1.07-1.63.16,11.76.79,41.89,5.28,55.43,30.19,4.32,7.96,4.97,16.41,1.86,24.44-7.85,20.33-37.92,31.32-41.33,32.51-.1.03-.19.06-.29.09,1.03.33,2.11.51,3.22.51,1.15,0,2.33-.19,3.48-.59,3.4-1.19,33.47-12.18,41.33-32.51,3.1-8.04,2.46-16.49-1.86-24.44Z"/>
            </g>
            <path class="cls-46" d="M197.82,145.96c0-.89.04-23.3,2.84-37.67l2.93,8.8c-1.56,13.06-1.55,28.66-1.54,28.84l-4.22.04Z"/>
            <path class="cls-46" d="M245.36,144.2c-.03-.34-.73-33.97-25.14-37.77l-1.55-4.61c11.55,1.8,20.57,9.71,26.08,22.88,4.07,9.72,4.79,18.8,4.82,19.18l-4.21.32Z"/>
            <rect class="cls-31" x="219.61" y="52.92" width="14.27" height="17.17" rx="6.29" ry="6.29" transform="translate(-6.46 33.05) rotate(-8.22)"/>
            <path class="cls-4" d="M224.12,58.02l1.71,6.94s1.34-7.49,4.52-6.94"/>
            <g class="cls-11">
              <path class="cls-13" d="M178.55,13.32c28.24,0,36.86,18.21,38.02,21l.15-.02,3.5,8.74,7.73-1.14-3.98-9.93-.14.02c-1.1-2.65-9.27-19.92-36.05-19.92-3.54,0-6.67.46-9.46,1.26.08,0,.15,0,.23,0Z"/>
            </g>
            <g class="cls-17">
              <path class="cls-3" d="M194.19,388.19c2.97,1.09,5.41,3.33,6.58,6.04"/>
              <path class="cls-3" d="M198.48,385.9c3.08,1.1,5.6,3.68,6.63,6.79"/>
            </g>
            <g class="cls-18">
              <path class="cls-3" d="M248.62,394.63c4.26.03,8.49,1.63,11.71,4.43"/>
              <path class="cls-3" d="M252.54,390.2c4.84.02,9.62,2.21,12.8,5.86"/>
            </g>
            <circle class="cls-47" cx="200.39" cy="393.68" r="1.48"/>
            <path class="cls-47" d="M266.59,395.65c0,.89-.72,1.62-1.62,1.62s-1.62-.72-1.62-1.62.72-1.62,1.62-1.62,1.62.72,1.62,1.62Z"/>
            <path class="cls-47" d="M261.97,399.3c0,.81-.66,1.48-1.48,1.48s-1.48-.66-1.48-1.48.66-1.48,1.48-1.48,1.48.66,1.48,1.48Z"/>
            <path class="cls-47" d="M206.66,392.84c0,.81-.66,1.48-1.48,1.48s-1.48-.66-1.48-1.48.66-1.48,1.48-1.48,1.48.66,1.48,1.48Z"/>
          </g>
        </g>
      </g>
    </g>
  </g>
</svg>